<svg width="83" height="83" fill="none" xmlns="http://www.w3.org/2000/svg"><path d="M32.671 35.034l.002.037.008.003.006.025.001-.022L71.99 51.213a174.308 174.308 0 00-2.072 10.69C67.603 76.118 57.955 83 39.985 83c-22.424 0-26.702-12.938-31.05-26.088C6.894 50.745 4.84 44.532.89 39.584c-1.647-2.062-.897-5.247 1.31-6.747 3.079-2.09 7.207-1.317 9.281 1.695l.058.083c.5.729 4.107 5.97 4.127 5.991 0 0-.002 0 0 .002l.005.005v.002c-.002.017.025.035 2.397 3.478.843.024 1.67.106 2.306.21L12.663 7.398C11.121-.564 23.343-3.213 25.072 5.061l7.599 29.973z" fill="#E9DFD3"/><path d="M26.96 45.763l-2.307-.209-4.602-2.752-7.377-35.379C11.4.833 19.5-2.13 23.348 1.696c-2.687.913-4.83 3.44-4.105 7.045 7.622 37.933 7.71 37 7.718 37.022zM34.724 83C7.704 80.099 12.563 54.37.892 39.712c-1.649-2.068-.898-5.264 1.312-6.768 2.616-1.78 5.992-1.491 8.221.492-3.823 1.293-4.794 5.297-2.964 7.594C18.078 54.365 15.014 76.866 34.724 83z" fill="#DFCCB4"/><path d="M35.235 59.438c-1.194-8.177-6.778-14.616-14.865-15.842l-.744-3.51c.022.011 16.445.902 19.071 18.859.342 2.305-3.133 2.745-3.462.493z" fill="#DFCCB4"/><rect width="14.165" height="27.196" rx="7.082" transform="matrix(.982 .2063 -.21091 .97393 62.238 29.019)" fill="#DFCCB4"/><mask id="a" style="mask-type:alpha" maskUnits="userSpaceOnUse" x="57" y="30" width="18" height="28"><rect width="14.165" height="27.196" rx="7.082" transform="matrix(.982 .2063 -.21091 .97393 62.239 29.019)" fill="#E9DFD3"/></mask><g mask="url(#a)"><rect width="14.165" height="27.196" rx="7.082" transform="matrix(.982 .2063 -.21091 .97393 57.547 27.71)" fill="#E9DFD3"/></g><rect width="14.165" height="27.196" rx="7.082" transform="matrix(.982 .2063 -.21091 .97393 49.45 25.61)" fill="#DFCCB4"/><mask id="b" style="mask-type:alpha" maskUnits="userSpaceOnUse" x="45" y="26" width="18" height="28"><rect width="14.165" height="27.196" rx="7.082" transform="matrix(.982 .2063 -.21091 .97393 49.45 25.61)" fill="#E9DFD3"/></mask><g mask="url(#b)"><rect width="14.165" height="27.196" rx="7.082" transform="matrix(.982 .2063 -.21091 .97393 44.758 24.302)" fill="#E9DFD3"/></g><rect width="14.165" height="27.196" rx="7.082" transform="matrix(.982 .2063 -.21091 .97393 35.699 24.267)" fill="#DFCCB4"/><mask id="c" style="mask-type:alpha" maskUnits="userSpaceOnUse" x="31" y="25" width="18" height="28"><rect width="14.165" height="27.196" rx="7.082" transform="matrix(.982 .2063 -.21091 .97393 35.699 24.267)" fill="#E9DFD3"/></mask><g mask="url(#c)"><rect width="14.165" height="27.196" rx="7.082" transform="matrix(.982 .2063 -.21091 .97393 31.007 22.958)" fill="#E9DFD3"/></g></svg>