<svg width="83" height="83" fill="none" xmlns="http://www.w3.org/2000/svg"><path d="M12.11 15.044l6.686 28.333c-2.537 2.984-7.406 11.352-6.583 20.95 1.029 11.998 13.063 15.69 18.411 16.52 5.349.83 18.206 1.661 28.491-3.415 8.229-4.06 10.766-15.72 11.006-21.042a6.33 6.33 0 00.72-.83c.329-.443.685-1.477.822-1.939l2.675-11.351c.445-2.03.061-6.331-5.04-7.291-5.102-.96-7.68 2.43-8.331 4.245l-2.058 7.66 5.349-29.994c.514-2.092.329-6.46-4.526-7.198-4.855-.739-6.822 2.891-7.2 4.799l-6.48 25.01-.925-34.516C45.058 3.355 43.769.075 39.16 0c-4.608-.074-5.897 3.415-5.965 5.168l-1.337 33.594c-2.435-8.583-7.365-25.97-7.612-26.856-.308-1.108-.72-2.03-1.028-2.308-.309-.277-2.572-3.23-7.714-1.753-4.115 1.181-3.977 5.291-3.395 7.198z" fill="#E9DFD3"/><path d="M37.55 7.223c0-3.673 3.262-5.423 6.373-5.25C40.925-1.492 33.189-.39 33.189 5.264L31.881 37.46c-.106 2.62 4.327 2.786 4.434.145L37.55 7.223zm19.51 8.742c.583-3.258 3.49-4.611 6.278-4.411-2.833-3.098-9.709-2.755-10.638 2.453l-6.178 23.881c-.714 2.756 3.904 3.72 4.617.964l5.922-22.887zm-45.187-1.997l7.346 31.54.283 1.22 5.837-1.428c-.882-3.597-2.79-11.737-6.925-30.158-.722-3.214 1.413-5.466 4.088-6.28-3.83-3.41-11.898-.77-10.629 5.106z" fill="#DFCCB4"/><path d="M43.315 53.55l-11.188 1.73c7.546 6.911 11.894 26.196-3.674 24.574C8.993 77.826 7.861 50.55 10.73 47.744c1.414-1.382 5.381-4.943 16.025-3.959 10.643.984 13.771-.122 15.49-.42 1.72-.296 6.826.062 6.42 4.783-.326 3.776-3.702 5.175-5.35 5.403z" fill="#DFCCB4"/><mask id="a" style="mask-type:alpha" maskUnits="userSpaceOnUse" x="9" y="43" width="40" height="37"><path d="M43.315 53.55l-11.188 1.729c7.546 6.911 11.894 26.196-3.674 24.574-19.46-2.028-20.592-29.304-17.723-32.11 1.414-1.382 5.381-4.943 16.025-3.959 10.643.985 13.771-.122 15.49-.42 1.72-.296 6.826.062 6.42 4.783-.326 3.776-3.702 5.175-5.35 5.403z" fill="#DFCCB4"/></mask><g mask="url(#a)"><path d="M41.805 55.213l-10.949 2.1c5.91 6.028 10.055 23.53-2.807 22.703C11.97 78.984 12.474 53.97 15.009 51.27c1.25-1.33 4.74-4.772 13.54-4.322 8.8.45 11.46-.7 12.906-1.047 1.446-.346 5.674-.235 5.086 4.12-.47 3.484-3.353 4.914-4.736 5.193z" fill="#E9DFD3"/></g><rect width="13.447" height="24.746" rx="6.724" transform="matrix(1.00495 .19233 -.2252 .94736 62.832 33.623)" fill="#DFCCB4"/><mask id="b" style="mask-type:alpha" maskUnits="userSpaceOnUse" x="58" y="34" width="18" height="25"><rect width="13.447" height="24.746" rx="6.724" transform="matrix(1.00495 .19233 -.2252 .94736 62.832 33.623)" fill="#E9DFD3"/></mask><g mask="url(#b)"><rect width="13.447" height="24.746" rx="6.724" transform="matrix(1.00495 .19233 -.2252 .94736 58.273 32.465)" fill="#E9DFD3"/></g></svg>