<svg width="83" height="83" fill="none" xmlns="http://www.w3.org/2000/svg"><path d="M82.665 28.964c-2.828 7.856-7.673 17.004-10.945 34.839C69.346 76.738 59.45 83 41.017 83 7.227 83 13.602 57.596.913 43.495c-1.69-1.877-.92-4.775 1.345-6.14 3.157-1.901 7.391-1.198 9.52 1.542.015.02 4.27 5.508 4.292 5.528 0 0-.002 0 0 .002l.005.004c0 .02-.06-.078 2.46 3.167.863.022 1.711.096 2.364.19l-7.91-33.579c-1.582-7.246 10.956-9.656 12.728-2.127l7.812 27.331 1.4-34.058c0-7.136 12.255-7.144 12.255 0l1.033 34.853 6.795-25.96c1.272-7.048 13.375-5.335 12.105 1.72l-5.824 32.289 10.271-22.24c2.406-6.57 13.49-3.685 11.1 2.947z" fill="#E9DFD3"/><path d="M81.908 24.306c-2.39-.11-4.863.991-5.855 3.702l-9.248 20.027c-1.255 2.717-5.9 1.064-4.63-1.685l9.39-20.333c1.712-4.68 7.828-4.562 10.343-1.711zM65.962 11.753c-2.87-.203-5.862 1.173-6.46 4.488l-6.096 23.284c-.734 2.804-5.487 1.824-4.753-.98l6.36-24.296c.956-5.298 8.034-5.647 10.949-2.496zM45.978 2.005c-3.202-.175-6.56 1.606-6.56 5.342l-1.27 30.91c-.11 2.688-4.674 2.518-4.564-.147L34.93 5.356c0-5.753 7.962-6.874 11.048-3.35zM27.633 48.982l-2.366-.19-4.716-2.495L12.99 14.21c-1.306-5.977 6.997-8.664 10.94-5.194-2.754.828-4.95 3.12-4.208 6.39 7.813 34.404 7.903 33.557 7.91 33.577zm7.957 33.773C7.896 80.124 12.875 56.788.914 43.495c-1.69-1.877-.92-4.775 1.345-6.14 2.681-1.614 6.142-1.352 8.426.447-3.919 1.173-4.914 4.805-3.038 6.888 10.881 12.094 7.742 32.502 27.943 38.065z" fill="#DFCCB4"/><path d="M36.154 62.436c-1.226-7.56-6.955-13.515-15.253-14.648l-.763-3.246c.022.01 16.873.834 19.568 17.438.35 2.131-3.215 2.539-3.552.456z" fill="#DFCCB4"/></svg>