<svg width="83" height="83" fill="none" xmlns="http://www.w3.org/2000/svg"><path d="M80.463 33.89c.81-1.966 1.558-3.783 2.202-5.533 2.39-6.494-8.694-9.318-11.1-2.886l-10.27 21.773 5.823-31.611c1.27-6.907-10.832-8.584-12.105-1.683l-6.795 25.414-1.032-34.12c0-6.996-12.255-6.988-12.255 0l-1.4 33.342-7.812-26.758c-1.773-7.37-14.31-5.011-12.729 2.083l7.91 32.874a21.635 21.635 0 00-2.365-.186l-.077-.097c1.463 4.305 3.298 9.799 3.563 10.949.126.547.242 1.485.386 2.64.339 2.724.827 6.653 1.943 9.493.88 2.243 1.27 6.117 1.413 9.252 3.917 1.534 8.868 2.422 15.254 2.422 18.433 0 28.33-6.13 30.703-18.794 2.528-13.486 5.993-21.898 8.743-28.573z" fill="#E9DFD3"/><path d="M76.117 27.42c.992-2.653 3.465-3.732 5.855-3.624-2.516-2.79-8.63-2.906-10.343 1.675l-9.39 19.907c-1.27 2.69 3.375 4.31 4.63 1.649l9.248-19.606zM59.565 15.9c.599-3.245 3.59-4.592 6.46-4.393-2.915-3.085-9.992-2.744-10.948 2.443l-6.36 23.786c-.734 2.745 4.019 3.705 4.753.96L59.565 15.9zM39.482 7.193c0-3.658 3.358-5.401 6.56-5.23-3.086-3.45-11.048-2.351-11.048 3.28L33.648 37.31c-.11 2.61 4.453 2.776 4.564.145l1.27-30.262zM20.614 45.326l-7.56-31.415c-1.306-5.852 6.997-8.483 10.94-5.086-2.754.812-4.95 3.055-4.208 6.256C24.058 33.5 26.02 41.599 26.924 45.16c5.028 1.908-3.536.434-1.981 9.809.35 2.086-3.991 7.75-4.329 5.711-1.225-7.402-.828-8.836.35-13.895l-.35-1.46z" fill="#DFCCB4"/><path d="M44.584 53.668L33.068 55.39c7.767 6.884 12.242 26.092-3.781 24.476-20.03-2.02-21.196-29.186-18.242-31.98 1.454-1.378 5.538-4.925 16.493-3.944 10.955.98 14.175-.122 15.945-.418 1.77-.296 7.025.061 6.607 4.763-.335 3.761-3.81 5.155-5.506 5.381z" fill="#DFCCB4"/><mask id="a" style="mask-type:alpha" maskUnits="userSpaceOnUse" x="9" y="43" width="42" height="37"><path d="M44.584 53.668L33.068 55.39c7.767 6.884 12.242 26.092-3.781 24.476-20.03-2.02-21.196-29.186-18.242-31.98 1.454-1.378 5.538-4.925 16.493-3.944 10.955.98 14.175-.122 15.945-.418 1.77-.296 7.025.061 6.607 4.763-.335 3.761-3.81 5.155-5.506 5.381z" fill="#DFCCB4"/></mask><g mask="url(#a)"><path d="M43.03 55.325l-11.27 2.091c6.084 6.005 10.35 23.436-2.89 22.613-16.549-1.028-16.03-25.942-13.42-28.632 1.285-1.325 4.877-4.754 13.935-4.305 9.058.448 11.797-.698 13.285-1.043 1.488-.344 5.84-.234 5.235 4.104-.485 3.47-3.452 4.894-4.875 5.172z" fill="#E9DFD3"/></g></svg>