<svg width="83" height="83" fill="none" xmlns="http://www.w3.org/2000/svg"><path d="M59.367 48.124l-.023.133.051-.115 11.761 7.334a148.955 148.955 0 00-1.718 8.327C67.14 76.737 57.558 83 39.711 83c-22.27 0-26.52-11.773-30.838-23.739-2.025-5.61-4.066-11.265-7.988-15.767-1.636-1.876-.89-4.774 1.302-6.138 3.057-1.903 7.156-1.2 9.216 1.541l.059.078c.502.669 4.078 5.431 4.098 5.45 0 0-.003 0 0 .002l.004.004v.001c-.001.016.026.032 2.381 3.165a20 20 0 012.29.19L12.577 14.21C11.045 6.963 23.184 4.553 24.9 12.082l7.563 27.331L33.82 5.355c0-7.136 11.865-7.144 11.865 0l.99 34.555-.037.275 12.73 7.939z" fill="#E9DFD3"/><path d="M38.164 7.347c0-3.736 3.25-5.517 6.351-5.342C41.528-1.518 33.82-.397 33.82 5.355L32.515 38.11c-.106 2.665 4.312 2.835 4.419.148l1.23-30.91zm-18.267 38.95l-7.32-32.088c-1.265-5.977 6.774-8.664 10.592-5.194-2.666.828-4.793 3.12-4.074 6.39 4.136 18.813 6.036 27.085 6.91 30.722 4.868 1.95 10.933 6.277 12.438 15.853.339 2.132-3.113 2.539-3.44.457-1.186-7.561-6.733-13.516-14.768-14.65l-.338-1.49zM8.873 59.261c3.956 10.958 7.852 21.754 25.585 23.494C22.179 79.263 18.807 69.92 15.39 60.456c-2.025-5.611-4.066-11.265-7.988-15.766-1.816-2.083-.852-5.715 2.942-6.888-2.212-1.799-5.562-2.062-8.158-.446C-.005 38.72-.751 41.618.885 43.495c3.922 4.502 5.963 10.155 7.988 15.767z" fill="#DFCCB4"/><rect width="13.466" height="25.013" rx="6.733" transform="matrix(1.00009 .1954 -.22202 .9535 62.901 34.206)" fill="#DFCCB4"/><mask id="a" style="mask-type:alpha" maskUnits="userSpaceOnUse" x="58" y="35" width="18" height="25"><rect width="13.466" height="25.013" rx="6.733" transform="matrix(1.00009 .1954 -.22202 .9535 62.901 34.206)" fill="#E9DFD3"/></mask><g mask="url(#a)"><rect width="13.466" height="25.013" rx="6.733" transform="matrix(1.00009 .1954 -.22202 .9535 58.36 33.027)" fill="#E9DFD3"/></g><rect width="13.466" height="25.013" rx="6.733" transform="matrix(1.00009 .1954 -.22202 .9535 50.52 31.137)" fill="#DFCCB4"/><mask id="b" style="mask-type:alpha" maskUnits="userSpaceOnUse" x="46" y="32" width="17" height="25"><rect width="13.466" height="25.013" rx="6.733" transform="matrix(1.00009 .1954 -.22202 .9535 50.52 31.137)" fill="#E9DFD3"/></mask><g mask="url(#b)"><rect width="13.466" height="25.013" rx="6.733" transform="matrix(1.00009 .1954 -.22202 .9535 45.977 29.958)" fill="#E9DFD3"/></g></svg>