<svg width="293" height="310" fill="none" xmlns="http://www.w3.org/2000/svg"><path d="M75.627 278.885c6.169 3.463 13.172 5.612 15.903 6.253.482 1.283 2.12 4.713 4.82 8.176 2.698 3.463 6.585 6.894 8.192 8.177v7.926s4.958 1.497 54.958-1.497 54.435-4.989 54.435-4.989c2.065 0 1.275-2.551 0-4.99-5.192-9.929-1.446-9.196 0-21.701 1.445-12.505 8.192-27.896 11.565-39.439 3.374-11.543 10.602-37.756 6.024-54.59-3.662-13.467-17.429-28.857-23.854-34.87-.723-2.645-2.41-9.042-3.374-13.467-1.204-5.531-10.12-21.403-8.674-31.743 1.446-10.341 0-12.265.964-16.353.964-4.088-.482-8.898-.964-10.822-.482-1.924-.482-6.974-2.168-16.353-1.687-9.379-10.361-20.2-17.831-23.327-7.47-3.126-22.409-12.024-40.48 4.089-18.072 16.112-9.397 43.046-9.397 43.527 0 .481 1.927 2.886 3.132 6.974s.964 12.024 6.265 21.884c4.241 7.888 9.317 12.585 11.325 13.948l2.65 16.112c-.161.481-.915 1.684-2.65 2.646-2.169 1.202-5.542.721-6.988 1.443-1.446.721-1.446 1.923-3.373 2.645-1.928.721-3.133.24-4.338.721-1.204.481-2.168 1.203-2.891 1.684-.723.481-2.409.24-6.024 1.924-3.614 1.683-6.506 4.328-8.192 6.012-1.687 1.683-3.133 2.164-6.747 7.214-3.614 5.05-7.469 16.593-7.951 18.036-.482 1.443-2.892 5.291-5.06 8.417-2.169 3.126-3.615 4.569-5.542 7.696-1.928 3.126-3.133 7.455-3.615 9.619-.385 1.731-6.586 9.86-9.638 13.707l1.205 1.203c-1.767 2.244-5.927 8.08-8.433 13.467-3.133 6.733-6.265 12.505-7.47 18.277-1.205 5.771.482 13.226 1.928 14.669 1.445 1.443 4.578 3.367 12.288 7.695z" fill="#3C5660"/></svg>