<svg viewBox="0 0 515 705" preserveAspectRatio="none" xmlns="http://www.w3.org/2000/svg"><path d="M14.938 214.964c31.327 67.19 41.532 128.182 42.719 150.279 0 19.569-4.984 66.571-24.92 98.032C7.818 502.6 2.964 553.161 69.307 609.901c66.344 56.741 195.148 47.471 322.334-82.583s172.81-343.761 55.905-410.841C356.333 64.137 370.232-32.487 194.32 10.904 6.34 57.273-24.221 130.977 14.938 214.964z" fill="#0E739C"/><path fill-rule="evenodd" clip-rule="evenodd" d="M311.784 681.887c-9.976-20.41 7.895-48.184 37.047-62.526 33.695-16.576 75.513-22.111 87.043 1.479 12.278 25.121-13.177 58.586-49.058 76.238-31.654 15.572-64.2 6.97-75.032-15.191z" fill="#0E739C"/></svg>