<svg viewBox="0 0 557 758" preserveAspectRatio="none" xmlns="http://www.w3.org/2000/svg"><path d="M540.844 239.964c-33.882 67.19-44.919 128.182-46.203 150.279 0 19.569 5.39 66.571 26.952 98.032 26.951 39.325 32.202 89.886-39.553 146.626-71.754 56.741-211.062 47.471-348.621-82.583C-4.139 422.264-53.483 208.557 72.955 141.477c98.652-52.34 83.62-148.964 273.878-105.573 203.309 46.369 236.364 120.073 194.011 204.06z" fill="#278DB6"/><path fill-rule="evenodd" clip-rule="evenodd" d="M64.87 733.962c-10.283-21.226 8.137-50.111 38.186-65.026 34.732-17.24 77.837-22.996 89.722 1.538 12.656 26.126-13.582 60.929-50.568 79.287-32.628 16.195-66.175 7.249-77.34-15.799zM54.058 5.041c13.628-8.817 36.288-5.556 50.596 5.798 16.538 13.122 26.06 32.337 10.308 42.529-16.774 10.852-44.59 5.019-62.201-8.955-15.536-12.328-13.5-29.798 1.297-39.372z" fill="#278DB6"/></svg>