<svg viewBox="0 0 280 300" preserveAspectRatio="none" xmlns="http://www.w3.org/2000/svg"><path d="M93.429 9.118C48.676 5.431.087 1.428.087 71.266c0 3.318-.023 6.56-.045 9.73-.043 6.129-.084 11.983.045 17.575v115.715c6.564 84.964 32.481 83.827 86.832 81.27 10.399-.489 21.904-1.03 34.601-1.03 21.056 0 39.784 1.708 56.316 3.216 60.158 5.487 93.735 8.322 102.057-83.456V98.571c.159-5.61.108-11.474.055-17.6-.027-3.165-.055-6.4-.055-9.705 0-83.5-55.739-74.58-110.27-65.853-16.625 2.66-33.138 5.303-47.925 5.303-8.874 0-18.48-.792-28.27-1.598z" fill="#C5E1EC"/></svg>