<svg width="219" height="230" fill="none" xmlns="http://www.w3.org/2000/svg"><path opacity=".5" d="M163.078 27.498c19.449 11.056 26.536 41.113 25.369 70.07-1.147 28.956-10.527 56.81-29.997 78.941-19.448 22.13-48.966 38.536-72.917 33.264-23.972-5.252-42.337-32.183-57.804-54.313C12.282 133.33-.267 116 .004 98.905c.271-17.094 13.341-33.913 28.809-44.988C44.28 42.862 62.103 37.55 86.95 30.941c24.826-6.59 56.678-14.518 76.127-3.443z" fill="#C5E1EC"/><path d="M25.697 188.789c8.672-9.675 7.81-1.522 15.77 5.63 7.96 7.151 21.729 10.593 13.057 20.269-8.672 9.675-23.052 12.612-27.724.758-7.96-7.152-9.775-16.981-1.103-26.657zM219.001 44.45c0 9.103.112 12.986-8.98 12.986s-16.462-7.38-16.462-16.482-.113-12.985 8.979-12.985c9.092 0 16.463 7.379 16.463 16.481zM190.015 8.528c2.307 4.71 3.359 6.686-2.083 9.358-5.442 2.672-11.724 1.02-14.031-3.689-2.307-4.71-3.359-6.685 2.083-9.358 5.442-2.672 11.724-1.02 14.031 3.69z" fill="#E2F0F6"/></svg>