<svg width="27" height="27" fill="none" xmlns="http://www.w3.org/2000/svg"><path d="M16.22 19.617a12.269 12.269 0 003.942-1.707l-.05.032c.538-.37.888-.998.888-1.71 0-1.128-.879-2.043-1.963-2.043-.376 0-.728.11-1.026.3l.009-.005a8.228 8.228 0 01-9.05-.021l.034.02a1.886 1.886 0 00-1.045-.313c-.694 0-1.304.376-1.653.941l-.004.008v.006A2.08 2.08 0 006 16.213c0 .723.362 1.357.907 1.72l.008.004a12.02 12.02 0 003.807 1.657l.084.017-3.75 3.897a2.062 2.062 0 00-.581 1.445c0 .55.21 1.048.55 1.413l.033.033c.353.368.84.595 1.379.595.538 0 1.025-.227 1.378-.595l3.698-3.829 3.675 3.832a1.92 1.92 0 001.387.598c1.084 0 1.961-.913 1.961-2.04a2.08 2.08 0 00-.574-1.444l-3.742-3.898zm-2.708-5.682c3.695-.004 6.69-3.122 6.69-6.968C20.201 3.12 17.202 0 13.504 0S6.81 3.12 6.81 6.967v.007c.007 3.846 3.005 6.96 6.702 6.96zm0-9.852c1.532 0 2.773 1.292 2.773 2.885 0 1.594-1.241 2.886-2.773 2.886-1.53 0-2.77-1.29-2.773-2.881v-.002c0-1.594 1.241-2.887 2.773-2.888z" fill="#fff"/></svg>