<svg width="27" height="27" fill="none" xmlns="http://www.w3.org/2000/svg"><path fill-rule="evenodd" clip-rule="evenodd" d="M2.787 11.47c6.98-3.104 11.634-5.15 13.962-6.14C23.398 2.507 24.78 2.016 25.68 2c.198-.003.64.047.928.284.242.201.308.472.34.662.032.19.072.624.04.963-.36 3.865-1.919 13.245-2.712 17.574-.336 1.832-.996 2.446-1.636 2.506-1.39.13-2.446-.938-3.793-1.84-2.107-1.41-3.297-2.288-5.343-3.664-2.363-1.59-.831-2.464.516-3.893.353-.374 6.478-6.063 6.597-6.579.015-.064.028-.305-.111-.432-.14-.127-.347-.083-.496-.049-.212.05-3.578 2.32-10.099 6.815-.955.67-1.82.997-2.596.98-.855-.02-2.5-.494-3.722-.9-1.499-.497-2.69-.76-2.587-1.606.054-.44.648-.89 1.781-1.35z" fill="#fff"/></svg>