<svg width="27" height="27" fill="none" xmlns="http://www.w3.org/2000/svg"><path fill-rule="evenodd" clip-rule="evenodd" d="M14.054 0a12.893 12.893 0 019.158 3.778A12.773 12.773 0 0127 12.893c-.003 7.104-5.81 12.884-12.945 12.884h-.006a12.981 12.981 0 01-6.186-1.569L1 26l1.837-6.676a12.813 12.813 0 01-1.728-6.441C1.11 5.779 6.919 0 14.054 0zm5.902 15.58c-.323-.16-1.913-.939-2.21-1.046-.296-.108-.512-.161-.728.16-.215.323-.835 1.048-1.024 1.263-.189.215-.377.242-.7.08a4.764 4.764 0 00-.214-.095 8.382 8.382 0 01-2.388-1.502c-.962-.854-1.61-1.908-1.8-2.23-.168-.29-.036-.446.097-.602l.045-.055c.35-.433.701-.887.809-1.102.108-.214.054-.402-.027-.563a70.582 70.582 0 01-.642-1.533c-.137-.331-.266-.646-.355-.858-.232-.554-.467-.553-.656-.552h-.072c-.189-.01-.404-.012-.62-.012-.216 0-.566.08-.863.403l-.063.068c-.337.358-1.069 1.135-1.069 2.618 0 1.575 1.146 3.097 1.318 3.326l.003.004.057.08c.387.552 2.436 3.478 5.469 4.78.772.333 1.374.53 1.844.679.775.245 1.48.21 2.037.127.622-.092 1.914-.778 2.184-1.53.27-.752.27-1.397.188-1.531-.065-.108-.217-.181-.442-.29l-.178-.086z" fill="#fff"/></svg>