<svg viewBox="0 0 1920 213" preserveAspectRatio="none" xmlns="http://www.w3.org/2000/svg"><path fill-rule="evenodd" clip-rule="evenodd" d="M40 92.283L0 46.141V213h1920V0l-40 30.713c-40 31.29-120 91.85-200 84.641-36.06-3.25-72.12-20.857-108.19-38.465-43.93-21.452-87.87-42.904-131.81-38.39-40 3.821-80 28.803-120 53.784-40 24.981-80 49.963-120 53.784-46.19 4.745-92.38-19.206-138.57-43.156-33.81-17.532-67.62-35.064-101.43-41.34-40-7.715-80-.037-120 7.641s-80 15.357-120 7.642c-29.28-5.435-58.559-19.312-87.839-33.188C581.441 19.628 530.72-4.409 480 15.429c-38.63 14.83-77.259 54.775-115.889 94.72-41.37 42.778-82.741 85.557-124.111 97.488-80 23.071-160-69.212-200-115.354z" fill="#e1eff5"/></svg>