<svg width="75" height="75" fill="none" xmlns="http://www.w3.org/2000/svg"><path d="M48.943 33.595c1.468-2.57 1.82-5.662 1.184-8.536a6.454 6.454 0 003.182-5.58A6.487 6.487 0 0046.83 13a6.467 6.467 0 00-5.214 2.635 12.89 12.89 0 00-8.067 0A6.465 6.465 0 0028.335 13a6.487 6.487 0 00-6.479 6.48 6.453 6.453 0 003.182 5.579c-.63 2.845-.29 5.906 1.142 8.46-4.587 3.67-7.43 9.377-7.163 15.284.128 2.813 1.359 3.967 2.516 4.425-.555 1.71-.41 3.732.449 5.575 2.23 4.784 9.68 6.287 11.192.171 2.825.556 5.997.556 8.821 0 1.51 6.116 8.963 4.613 11.192-.171.86-1.843 1.004-3.866.449-5.576 1.156-.46 2.333-1.616 2.512-4.424.555-8.682-6.391-14.559-7.205-15.208zM46.83 15.144a4.338 4.338 0 012.626 7.786 12.93 12.93 0 00-5.79-6.41 4.32 4.32 0 013.164-1.376zm1.452 12.695c0 5.577-4.5 9.625-10.7 9.625-6.2 0-10.699-4.048-10.699-9.625 0-5.905 4.8-10.71 10.7-10.71 5.9 0 10.7 4.805 10.7 10.71zm-24.278-8.36a4.338 4.338 0 014.33-4.335A4.318 4.318 0 0131.5 16.52a12.93 12.93 0 00-5.79 6.41 4.321 4.321 0 01-1.705-3.451zm5.353 41.278c-2.22 1.036-4.547-.97-5.427-2.858-.695-1.492-.756-3.17-.19-4.426a5.142 5.142 0 003.259-1.798c2.578.422 4.347 3.395 4.236 5.86-.163 1.255-.61 2.63-1.878 3.222zM51.239 57.9c-.88 1.889-3.206 3.894-5.426 2.858-1.857-.866-2.441-3.559-1.303-6.003.774-1.66 2.198-2.838 3.657-3.078a5.14 5.14 0 003.263 1.797c.565 1.257.505 2.934-.19 4.426zm2.763-9.193c-.127 2.79-3.05 3.85-4.558 1.05-1.513-2.81-1.937-6.305-3.945-8.828a1.076 1.076 0 00-1.509-.173 1.07 1.07 0 00-.173 1.506c1.687 2.12 2.057 5.076 3.214 7.483-2.964.914-5.053 4.058-5.228 7.08-2.664.564-5.774.565-8.437.001-.173-3.005-2.268-6.17-5.23-7.082 1.156-2.407 1.525-5.362 3.213-7.482a1.07 1.07 0 00-.174-1.506 1.076 1.076 0 00-1.509.173c-2.011 2.528-2.425 6.006-3.945 8.828-1.463 2.716-4.429 1.784-4.558-1.05-.236-5.197 2.251-10.151 6.249-13.422 2.49 2.91 6.4 4.324 10.17 4.324 3.744 0 7.622-1.39 10.116-4.258 1.907 1.55 6.632 6.145 6.304 13.356z" fill="#fff"/><path d="M32.402 26.598a1.3 1.3 0 100-2.6 1.3 1.3 0 000 2.6zm10.156 0a1.3 1.3 0 100-2.6 1.3 1.3 0 000 2.6zm-8.833 6.745c.99 1.241 2.776 1.616 4.035.517 1.142.832 2.741.747 3.839-.108a1.07 1.07 0 00.185-1.505 1.076 1.076 0 00-1.508-.185c-.633.438-1.175.328-1.625-.328.332-.308.625-.84.85-1.22.65-.998-.069-2.318-1.262-2.318h-1.216c-1.193 0-1.91 1.32-1.26 2.318.07.12.908 1.203.885 1.262-.312.713-.726.79-1.243.232a1.076 1.076 0 00-1.51-.171 1.07 1.07 0 00-.17 1.506z" fill="#fff"/></svg>