<svg width="75" height="75" fill="none" xmlns="http://www.w3.org/2000/svg"><path d="M9.438 40.529a7.134 7.134 0 001.265 4.093c.41.586.767 1.123 1.095 1.651A7.02 7.02 0 0015.043 49a39.844 39.844 0 012.927 7.262l.082.286a7.395 7.395 0 003.255 4.344 7.462 7.462 0 005.36.968c.16-.036.32-.076.476-.12a7.218 7.218 0 004.246-3.25 7.26 7.26 0 00.751-5.725 30.112 30.112 0 00-2.38-5.65c-.54-1.055-1.051-2.065-1.506-3.195.288-.8.432-1.645.424-2.495a38.871 38.871 0 01.016-1.963 7.329 7.329 0 00-1.995-5.262 16.44 16.44 0 00-.49-4.659c-2.043-7.094-6.798-10.896-11.832-9.461-6.502 1.854-9.784 8.187-7.804 15.06a14.546 14.546 0 002.694 5.18l.17.21zm20.699 17.214a5.757 5.757 0 01-1.604 1.742c-.65.465-1.39.789-2.173.954a5.993 5.993 0 01-4.303-.792 5.94 5.94 0 01-2.602-3.5l-.083-.286a40.827 40.827 0 00-2.47-6.4c.199.005.398-.02.59-.07.391-.111.743-.33 1.015-.63a2.185 2.185 0 00.168-2.71 2.206 2.206 0 00-1.417-.91 2.681 2.681 0 01-1.756-1.19c-.384-.61-.788-1.21-1.198-1.805a2.683 2.683 0 01-.274-2.67l3.15-6.833 5.948 4.183a2.996 2.996 0 011.195 2.5 47.75 47.75 0 00-.019 2.155 2.614 2.614 0 01-.777 1.93 2.16 2.16 0 00-.03 3.06 2.23 2.23 0 003.108.034c.289-.283.55-.59.783-.921.349.76.714 1.482 1.072 2.185a29.014 29.014 0 012.278 5.395 5.72 5.72 0 01-.601 4.579zm-2.904-18.328a41.551 41.551 0 00-.017 2.028 5.49 5.49 0 01-1.624 4.016.747.747 0 01-1.211-.228.703.703 0 01.158-.779 4.064 4.064 0 001.218-2.984 46.957 46.957 0 01.019-2.093 4.443 4.443 0 00-.441-2.089 4.467 4.467 0 00-1.366-1.645l-6.667-4.693a.732.732 0 00-1.085.29l-3.514 7.634a4.112 4.112 0 00.399 4.096c.394.58.79 1.16 1.165 1.758a4.119 4.119 0 002.723 1.843.745.745 0 01.6.568.738.738 0 01-.164.646.718.718 0 01-.335.212.77.77 0 01-.366.003 5.6 5.6 0 01-2.106-.866 5.567 5.567 0 01-1.584-1.63 39.523 39.523 0 00-1.132-1.706 5.627 5.627 0 01-.521-5.53l4.018-8.732a.723.723 0 00.039-.502l-.857-2.972a.723.723 0 01.5-.897.733.733 0 01.903.497l.864 3a.726.726 0 00.28.393l7.682 5.407a5.832 5.832 0 011.837 2.175c.422.864.623 1.82.585 2.78zm-12.454-17.94c5.176-1.477 8.637 3.638 10.028 8.465.262.989.4 2.006.41 3.028l-7.036-4.952-.793-2.755a2.18 2.18 0 00-1.043-1.305 2.199 2.199 0 00-1.664-.189c-.558.16-1.03.532-1.311 1.037a2.166 2.166 0 00-.19 1.656l.782 2.715-3.907 8.488a6.81 6.81 0 00-.319.84 13.297 13.297 0 01-1.76-3.764c-1.747-6.064 1.114-11.643 6.803-13.265zm19.234-6.995c-5.033 1.436-7.042 7.166-4.998 14.26a16.472 16.472 0 002.062 4.206 7.32 7.32 0 001.109 5.514c.365.541.718 1.093 1.061 1.66a7.161 7.161 0 001.687 1.89c.215 1.2.32 2.325.424 3.503a30.04 30.04 0 00.99 6.052 7.272 7.272 0 001.38 2.609 7.316 7.316 0 002.305 1.851 7.256 7.256 0 005.331.519 8.02 8.02 0 00.469-.15 7.416 7.416 0 004.03-3.644 7.357 7.357 0 00.449-5.4l-.083-.287a39.823 39.823 0 01-1.386-7.691 6.998 6.998 0 001.303-4.038 41.48 41.48 0 01.05-1.971 7.12 7.12 0 00-1.106-4.14l.035-.27a14.498 14.498 0 00-.474-5.81c-1.98-6.874-8.136-10.516-14.638-8.663zM48.91 47.75a5.908 5.908 0 01-.343 4.337 5.955 5.955 0 01-3.226 2.94 5.865 5.865 0 01-4.637-.293 5.833 5.833 0 01-1.849-1.48 5.797 5.797 0 01-1.103-2.09 28.973 28.973 0 01-.938-5.772c-.07-.786-.145-1.59-.254-2.42.376.16.766.285 1.166.373a2.246 2.246 0 001.64-.315c.486-.312.83-.799.963-1.358.124-.56.02-1.147-.29-1.631s-.8-.826-1.364-.95a2.651 2.651 0 01-1.69-1.229 46.83 46.83 0 00-1.16-1.81 2.986 2.986 0 01-.326-2.755l2.821-6.686 6.31 4.139a2.7 2.7 0 011.19 2.41 49.816 49.816 0 00-.056 2.156 2.654 2.654 0 01-.86 1.945 2.186 2.186 0 00-.148 3.087 2.17 2.17 0 002.221.636c.191-.058.372-.144.539-.253a40.814 40.814 0 001.312 6.732l.082.286zm-.17-14.457a38.33 38.33 0 00-.052 2.04 5.566 5.566 0 01-1.836 4.102.724.724 0 01-1.197-.583.759.759 0 01.242-.521 4.118 4.118 0 001.334-3.008c0-.7.023-1.398.054-2.096a4.119 4.119 0 00-.427-2.089 4.143 4.143 0 00-1.416-1.6l-7.044-4.62a.733.733 0 00-.603-.092l-.011.003a.732.732 0 00-.46.414L34.16 32.74a4.443 4.443 0 00.457 4.12c.392.572.761 1.165 1.126 1.76a4.08 4.08 0 002.626 1.893.711.711 0 01.547.576.701.701 0 01-.012.279.757.757 0 01-.885.554 5.559 5.559 0 01-2.024-.916 5.525 5.525 0 01-1.5-1.634c-.35-.58-.716-1.15-1.094-1.712a5.81 5.81 0 01-.58-5.484l3.636-8.632a.722.722 0 00.028-.482l-.864-3a.723.723 0 01.5-.898.733.733 0 01.903.498l.856 2.972c.048.167.154.31.3.406l8.057 5.29a5.649 5.649 0 011.907 2.154c.439.87.644 1.837.595 2.809zm-.98-5.632a6.848 6.848 0 00-.717-.542l-7.834-5.142-.782-2.715a2.179 2.179 0 00-1.042-1.304 2.199 2.199 0 00-2.976.848 2.17 2.17 0 00-.19 1.656l.794 2.755-3.332 7.91a12.26 12.26 0 01-1.263-2.786c-1.39-4.828-1.178-10.99 3.998-12.465 5.69-1.622 11.086 1.602 12.833 7.666a13.24 13.24 0 01.51 4.12zM62.338 37.86c.047.721-.235 2.465-.381 3.246-1.016 1.872-2.405 5.859.166 6.834 3.215 1.218 3.697-2.346 4.043-3.468.347-1.123 2.14-3.49 3.13-5.118.99-1.627 1.53-6.159-2.58-6.973-4.111-.814-4.435 4.579-4.378 5.48zm-1.802-.471c-.397.604-1.014 2.26-1.273 3.012-.042 2.127-.805 6.277-3.526 5.866-3.401-.513-2.057-3.85-1.803-4.998.254-1.147-.137-4.086-.193-5.987-.057-1.9 1.715-6.111 5.696-4.806 3.981 1.304 1.595 6.157 1.1 6.913z" fill="#fff"/></svg>