<svg width="75" height="75" fill="none" xmlns="http://www.w3.org/2000/svg"><path d="M63 57H13V41.44c0-13.75 11.25-24.896 25-24.896S63 27.69 63 41.44V57z" stroke="#fff" stroke-width="3" stroke-miterlimit="10" stroke-linecap="round" stroke-linejoin="round"/><path d="M13.003 41.07c3.149-1.655 8.15-2.742 12.445-2.742 6.875 0 9.336 2.786 9.336 6.224 0 3.437-2.46 6.224-9.336 6.224-4.296 0-9.3-1.088-12.448-2.744m50 0c-3.149 1.656-8.152 2.744-12.448 2.744-6.875 0-9.336-2.787-9.336-6.224 0-3.438 2.461-6.224 9.336-6.224 4.295 0 9.296 1.087 12.445 2.742M53.66 22.001c-7.265 5.17-12.094 13.541-12.426 23.056m-6.468 0c-.332-9.515-5.161-17.887-12.427-23.056m12.445 22.551c0-1.719 1.497-3.112 3.216-3.112s3.216 1.393 3.216 3.112" stroke="#fff" stroke-width="3" stroke-miterlimit="10" stroke-linecap="round" stroke-linejoin="round"/></svg>