<svg width="75" height="75" fill="none" xmlns="http://www.w3.org/2000/svg"><path d="M28.992 32.209c-1.96-1.3-4.545-2.016-7.278-2.016-2.733 0-5.317.716-7.277 2.016-2.075 1.376-3.218 3.241-3.218 5.252 0 2.01 1.143 3.876 3.218 5.252 1.96 1.3 4.544 2.016 7.277 2.016 2.733 0 5.318-.716 7.278-2.016 2.075-1.376 3.218-3.241 3.218-5.252 0-2.01-1.143-3.877-3.218-5.252zm-7.278 10.704c-4.708 0-8.686-2.496-8.686-5.452 0-2.955 3.978-5.452 8.686-5.452 4.709 0 8.686 2.497 8.686 5.452 0 2.956-3.977 5.453-8.686 5.453zM61.493 32.21c-1.96-1.3-4.544-2.016-7.277-2.016-2.733 0-5.318.716-7.278 2.016-2.075 1.376-3.218 3.241-3.218 5.252 0 2.01 1.143 3.876 3.218 5.252 1.96 1.3 4.545 2.016 7.278 2.016 2.733 0 5.317-.716 7.277-2.016 2.075-1.376 3.218-3.241 3.218-5.252 0-2.01-1.143-3.877-3.218-5.252zm-7.277 10.704c-4.708 0-8.686-2.496-8.686-5.452 0-2.955 3.977-5.452 8.686-5.452 4.708 0 8.686 2.497 8.686 5.452 0 2.956-3.978 5.453-8.686 5.453z" fill="#fff"/><path d="M70.702 33.1H67.87c-2.178-4.235-7.403-7.1-13.653-7.1-6.25 0-11.476 2.865-13.654 7.1h-5.194C33.19 28.865 27.965 26 21.714 26c-6.25 0-11.475 2.865-13.653 7.1H5.298a4.29 4.29 0 00-3.04 1.263 4.317 4.317 0 000 6.096 4.291 4.291 0 003.04 1.263H7.97C10.092 45.957 15.377 49 21.714 49c6.338 0 11.623-3.043 13.744-7.278h5.014C42.592 45.957 47.878 49 54.216 49s11.622-3.043 13.744-7.278h2.742c1.14 0 2.233-.454 3.04-1.263a4.318 4.318 0 000-6.096 4.291 4.291 0 00-3.04-1.263zM7.29 39.907H5.3c-.66 0-1.293-.263-1.76-.731a2.5 2.5 0 010-3.53 2.485 2.485 0 011.76-.73h2.038a8.874 8.874 0 00-.365 2.584 9.125 9.125 0 00.317 2.407zm14.425 7.267c-7.252 0-12.932-4.267-12.932-9.713 0-5.446 5.68-9.712 12.932-9.712 7.252 0 12.933 4.266 12.933 9.712s-5.68 9.713-12.933 9.713zm18.076-7.267h-3.65a9.124 9.124 0 00.317-2.407 8.88 8.88 0 00-.365-2.584h3.746a8.873 8.873 0 00-.365 2.584 9.128 9.128 0 00.317 2.407zm14.426 7.267c-7.252 0-12.933-4.267-12.933-9.713 0-5.446 5.68-9.712 12.933-9.712 7.252 0 12.932 4.266 12.932 9.712s-5.68 9.713-12.932 9.713zm16.486-7.267h-2.06a9.128 9.128 0 00.316-2.407 8.872 8.872 0 00-.365-2.584h2.11c.66 0 1.292.263 1.759.73a2.5 2.5 0 010 3.53c-.467.468-1.1.73-1.76.73z" fill="#fff"/></svg>