<svg xmlns="http://www.w3.org/2000/svg" version="1.1" xmlns:xlink="http://www.w3.org/1999/xlink" xmlns:svgjs="http://svgjs.dev/svgjs" width="1000" height="1000"><g clip-path="url(#SvgjsClipPath1074)"><rect width="1000" height="1000" fill="#278db6"></rect><g transform="matrix(1.4141414141414141,0,0,1.4141414141414141,150,238.3838383838384)"><svg xmlns="http://www.w3.org/2000/svg" version="1.1" xmlns:xlink="http://www.w3.org/1999/xlink" xmlns:svgjs="http://svgjs.dev/svgjs" width="495" height="370"><svg width="495" height="370" viewBox="0 0 495 370" fill="none" xmlns="http://www.w3.org/2000/svg">
<path d="M308.152 17.5733C305.67 12.9751 305.114 8.17078 306.482 3.16035C306.609 2.70846 306.859 2.33982 307.233 2.05441C311.114 -0.91855 314.78 -0.664858 318.232 2.81549C324.379 8.99132 330.053 16.5664 335.254 25.5408C335.429 25.85 335.672 26.0878 335.982 26.2543C349.351 33.6035 358.631 44.4568 363.824 58.8142C363.968 59.2185 364.23 59.5198 364.612 59.718C435.697 96.3567 483.067 164.675 492.252 243.471C493.41 253.46 495.414 261.309 494.925 269.668C494.893 270.104 494.662 270.323 494.233 270.323H1.11031C0.633144 270.323 0.390586 270.081 0.382634 269.597L0.275277 258.728C0.267324 258.332 0.462153 258.133 0.859788 258.133H98.9045C99.4055 258.133 99.656 257.884 99.656 257.384V251.843C99.656 251.351 99.4095 251.105 98.9165 251.105C80.9513 251.145 64.7278 246.004 50.246 235.682C49.9279 235.46 49.5859 235.4 49.2201 235.503C33.5215 240.117 17.4809 242.607 1.09838 242.971C0.928351 242.975 0.763653 242.912 0.639031 242.797C0.514409 242.681 0.439604 242.522 0.43036 242.353L0.00091424 234.909C-0.0038899 234.814 0.0102737 234.719 0.0425974 234.63C0.0749211 234.541 0.124746 234.459 0.189162 234.389C0.253578 234.32 0.331292 234.263 0.417764 234.224C0.504236 234.184 0.597726 234.162 0.692782 234.159C14.1964 233.731 27.4973 231.872 40.5954 228.582C40.6766 228.563 40.751 228.522 40.8109 228.464C40.8708 228.406 40.914 228.333 40.936 228.253C40.958 228.173 40.9578 228.088 40.9357 228.008C40.9136 227.928 40.8702 227.855 40.8101 227.797C33.605 220.793 28.392 211.387 28.7857 201.338C29.5968 180.468 56.3417 155.209 75.4162 175.592C94.9202 196.438 84.8879 220.555 60.5646 230.806C60.4761 230.842 60.3996 230.903 60.3438 230.981C60.288 231.058 60.2551 231.15 60.2489 231.245C60.2427 231.341 60.2634 231.436 60.3087 231.52C60.3539 231.604 60.4219 231.674 60.505 231.722C72.5771 238.817 85.6474 242.282 99.7157 242.115C100.225 242.115 100.511 241.865 100.575 241.366C112.253 153.461 205.55 100.864 286.298 137.205C334.539 158.92 364.278 204.656 365.172 257.313C365.18 257.86 365.459 258.133 366.008 258.133H430.687C431.1 258.133 431.299 257.927 431.283 257.515C428.563 185.819 387.396 125.706 325.604 91.7665C325.541 91.7321 325.472 91.711 325.4 91.7045C325.329 91.6979 325.257 91.706 325.188 91.7283C325.12 91.7506 325.057 91.7866 325.004 91.834C324.95 91.8815 324.907 91.9395 324.876 92.0043C322.53 96.9434 319.126 100.979 314.665 104.11C298.394 115.526 291.523 100.103 297.702 86.546C297.901 86.102 297.765 85.8206 297.296 85.7016C288.326 83.4779 272.591 80.0887 269.335 70.4325C267.354 64.558 271.231 59.2304 276.146 55.9839C276.583 55.6906 276.579 55.4052 276.134 55.1277C271.625 52.2618 266.985 49.3958 263.668 45.1861C258.205 38.2889 260.901 30.3094 269.812 28.9775C274.408 28.2878 279.085 28.7476 283.84 30.357C284.027 30.423 284.231 30.4261 284.419 30.3658C284.608 30.3055 284.772 30.1853 284.886 30.0234C284.999 29.8615 285.057 29.6669 285.049 29.4694C285.041 29.2719 284.968 29.0824 284.842 28.93C280.751 23.8759 281.729 16.4435 287.538 13.3279C293.813 9.96249 302.235 14.5765 307.615 18.0727C307.686 18.1155 307.769 18.1339 307.852 18.1253C307.934 18.1167 308.012 18.0815 308.072 18.025C308.133 17.9686 308.174 17.8939 308.188 17.8124C308.202 17.7309 308.19 17.6469 308.152 17.5733ZM310.538 80.9925C306.187 85.6937 303.591 91.2314 302.748 97.6054C302.589 98.8104 303.102 99.5715 304.287 99.8886C311.695 101.851 318.566 87.4973 320.689 81.8249C320.824 81.4523 321.075 81.3532 321.441 81.5276C390.724 114.801 435.78 180.67 439.013 257.527C439.029 257.915 439.232 258.11 439.622 258.11L484.976 258.181C485.098 258.181 485.22 258.156 485.332 258.107C485.445 258.058 485.547 257.986 485.63 257.896C485.714 257.806 485.779 257.699 485.82 257.582C485.861 257.465 485.879 257.341 485.87 257.218C480.3 174.248 432.917 102.862 358.671 65.1763C358.313 64.994 358.055 64.7165 357.896 64.3439C351.872 50.2877 346.158 40.5007 332.26 33.0327C330.733 32.2121 329.457 30.8089 328.682 29.5246C324.737 23.0633 320.244 16.721 315.202 10.4976C315.113 10.3931 314.993 10.3195 314.86 10.2876C314.726 10.2557 314.586 10.2672 314.46 10.3203C314.333 10.3734 314.227 10.4653 314.157 10.5828C314.086 10.7003 314.055 10.8371 314.068 10.9733C314.808 17.0025 321.238 26.4208 324.316 31.9743C324.578 32.45 324.498 32.8662 324.077 33.2229L319.95 36.6478C319.496 37.0204 319.055 37.0085 318.625 36.6121C311.408 29.9765 302.414 22.2705 292.799 19.6306C292.487 19.543 292.157 19.5363 291.841 19.6111C291.525 19.6859 291.233 19.8397 290.993 20.0582C290.752 20.2767 290.571 20.5528 290.465 20.8606C290.36 21.1685 290.334 21.4981 290.389 21.8187C291.952 30.5354 309.285 39.7991 316.788 43.3191C317.321 43.5649 317.444 43.9454 317.158 44.4607L314.152 49.7526C313.913 50.1728 313.579 50.2719 313.15 50.0499C300.66 43.7472 284.103 36.0413 269.871 36.6478C269.605 36.6596 269.347 36.7401 269.122 36.8812C268.896 37.0223 268.711 37.2194 268.585 37.453C268.459 37.6867 268.396 37.949 268.402 38.2143C268.408 38.4796 268.482 38.7388 268.619 38.9667C274.738 49.2175 297.213 56.0791 308.068 60.0509C308.609 60.2412 308.752 60.594 308.498 61.1093L305.885 66.3774C305.71 66.7359 305.402 67.0128 305.026 67.1502C304.65 67.2876 304.236 67.2749 303.869 67.1147C297.69 64.439 279.403 56.6261 276.265 67.1266C276.154 67.4992 276.194 67.852 276.385 68.185C280.596 75.7957 302.116 78.9114 310.227 80.1244C310.879 80.2195 310.983 80.5089 310.538 80.9925ZM304.525 258.014L309.034 257.8C322.419 258.173 335.791 258.276 349.152 258.11C350.595 258.098 352.659 258.597 354.627 258.003C355.017 257.884 355.204 257.622 355.188 257.218C353.478 216.857 337.354 184.86 306.816 161.227C258.336 123.708 191.951 128.738 147.754 169.943C146.72 170.903 146.378 171.842 146.728 172.762C155.532 195.511 151.011 224.61 131.769 240.2C126.632 244.363 119.677 247.435 110.905 249.417C110.468 249.512 110.229 249.785 110.189 250.237L109.676 257.182C109.637 257.753 109.903 258.038 110.476 258.038L304.525 258.014ZM68.9507 181.847C55.6737 168.172 38.9969 187.948 37.9591 200.553C37.1837 209.96 43.1124 218.783 50.4369 224.265C50.7052 224.463 51.0187 224.591 51.3495 224.639C51.6803 224.686 52.0183 224.652 52.3336 224.539C60.4572 221.625 71.0144 215.596 74.9152 207.795C79.1023 199.447 75.0942 188.174 68.9507 181.847ZM112.05 239.951C137.912 232.411 147.456 203.443 139.308 179.362C139.149 178.886 138.911 178.846 138.592 179.243C125.351 195.693 116.44 214.558 111.859 235.836C111.565 237.208 111.386 238.389 111.323 239.38C111.291 239.911 111.533 240.101 112.05 239.951Z" fill="white"></path>
<path d="M310.227 80.124C302.116 78.911 280.596 75.7953 276.385 68.1846C276.194 67.8516 276.154 67.4988 276.265 67.1262C279.403 56.6257 297.69 64.4386 303.869 67.1143C304.236 67.2745 304.65 67.2872 305.026 67.1498C305.402 67.0124 305.71 66.7355 305.885 66.377L308.498 61.1089C308.752 60.5936 308.609 60.2408 308.068 60.0505C297.213 56.0787 274.739 49.2171 268.619 38.9663C268.483 38.7384 268.408 38.4792 268.402 38.2139C268.396 37.9486 268.459 37.6863 268.585 37.4526C268.712 37.219 268.896 37.0219 269.122 36.8808C269.347 36.7397 269.606 36.6592 269.872 36.6474C284.103 36.0409 300.66 43.7468 313.15 50.0495C313.579 50.2715 313.913 50.1724 314.152 49.7522L317.158 44.4603C317.444 43.945 317.321 43.5645 316.788 43.3187C309.285 39.7987 291.952 30.535 290.389 21.8183C290.334 21.4977 290.36 21.1681 290.465 20.8602C290.571 20.5523 290.752 20.2763 290.993 20.0578C291.233 19.8393 291.525 19.6855 291.841 19.6107C292.157 19.5359 292.487 19.5426 292.799 19.6302C302.414 22.2701 311.408 29.9761 318.625 36.6117C319.055 37.0081 319.496 37.02 319.95 36.6474L324.077 33.2225C324.499 32.8658 324.578 32.4496 324.316 31.9739C321.238 26.4204 314.808 17.0021 314.069 10.9729C314.055 10.8367 314.086 10.6999 314.157 10.5824C314.227 10.4649 314.333 10.373 314.46 10.3199C314.586 10.2668 314.727 10.2553 314.86 10.2872C314.993 10.3191 315.113 10.3927 315.202 10.4972C320.244 16.7206 324.737 23.0629 328.682 29.5242C329.457 30.8085 330.733 32.2117 332.26 33.0323C346.158 40.5003 351.872 50.2873 357.896 64.3435C358.055 64.7161 358.313 64.9936 358.671 65.1759C432.918 102.861 480.3 174.248 485.87 257.217C485.879 257.341 485.862 257.465 485.82 257.582C485.779 257.698 485.714 257.805 485.631 257.895C485.547 257.986 485.445 258.058 485.333 258.107C485.22 258.156 485.098 258.181 484.976 258.181L439.622 258.109C439.232 258.109 439.029 257.915 439.013 257.527C435.78 180.67 390.725 114.801 321.441 81.5272C321.075 81.3528 320.824 81.4519 320.689 81.8245C318.566 87.4969 311.695 101.85 304.287 99.8882C303.102 99.5711 302.589 98.81 302.748 97.605C303.591 91.231 306.187 85.6933 310.538 80.9921C310.983 80.5085 310.88 80.2191 310.227 80.124Z" fill="#E9DFD3"></path>
<path d="M309.035 257.8C308.355 247.633 306.434 239.368 298.418 232.482C298.06 232.181 297.654 232.098 297.201 232.233L296.402 232.482C296.312 232.51 296.231 232.56 296.165 232.626C296.1 232.692 296.051 232.774 296.025 232.862C295.999 232.951 295.996 233.044 296.016 233.134C296.036 233.223 296.078 233.306 296.139 233.374C302.048 240.272 304.844 248.485 304.526 258.014L110.476 258.038C109.903 258.038 109.637 257.753 109.677 257.182L110.19 250.237C110.229 249.785 110.468 249.512 110.905 249.416C119.677 247.434 126.632 244.362 131.769 240.2C151.011 224.61 155.532 195.511 146.728 172.762C146.378 171.842 146.72 170.903 147.754 169.943C191.951 128.738 258.336 123.708 306.816 161.227C337.354 184.86 353.478 216.857 355.188 257.218C355.204 257.622 355.017 257.883 354.627 258.002C352.659 258.597 350.595 258.098 349.152 258.109C335.792 258.276 322.419 258.173 309.035 257.8ZM262.702 203.752L259.434 200.351C258.885 199.78 258.917 199.245 259.529 198.745C262.424 196.415 263.132 193.497 261.653 189.993C261.55 189.747 261.372 189.54 261.145 189.401C260.917 189.262 260.651 189.198 260.384 189.22C260.118 189.241 259.865 189.345 259.663 189.518C259.46 189.692 259.317 189.924 259.255 190.183C258.643 192.68 257.493 194.896 255.807 196.831C255.545 197.132 255.239 197.187 254.889 196.997C252.781 195.824 250.511 195.106 248.077 194.845C247.873 194.818 247.666 194.866 247.494 194.978C247.322 195.091 247.196 195.262 247.14 195.459C247.083 195.657 247.1 195.868 247.187 196.054C247.274 196.24 247.424 196.389 247.612 196.474C261.08 202.955 270.409 222.065 251.704 229.926C251.306 230.092 251.131 230.386 251.179 230.806L251.25 231.519C251.306 232.074 251.608 232.288 252.157 232.161C261.462 230.061 266.21 224.348 266.4 215.025C266.448 212.992 265.589 210.601 265.255 208.413C265.2 208.041 265.327 207.743 265.637 207.521C268.89 205.183 269.772 202.123 268.285 198.341C268.201 198.124 268.053 197.936 267.862 197.802C267.671 197.668 267.443 197.594 267.21 197.589C266.976 197.584 266.746 197.648 266.549 197.774C266.351 197.899 266.196 198.08 266.102 198.293L263.812 203.562C263.541 204.18 263.172 204.243 262.702 203.752Z" fill="#E9DFD3"></path>
<path d="M139.309 179.362C147.456 203.443 137.913 232.411 112.051 239.951C111.534 240.101 111.291 239.911 111.323 239.38C111.387 238.389 111.566 237.208 111.86 235.836C116.441 214.558 125.352 195.693 138.593 179.243C138.911 178.847 139.15 178.886 139.309 179.362Z" fill="#615C51"></path>
<path d="M263.81 203.562L266.1 198.294C266.194 198.08 266.35 197.899 266.547 197.774C266.744 197.648 266.974 197.584 267.208 197.589C267.441 197.594 267.668 197.668 267.86 197.802C268.051 197.936 268.199 198.124 268.283 198.341C269.77 202.123 268.887 205.183 265.635 207.522C265.325 207.744 265.198 208.041 265.253 208.414C265.587 210.602 266.446 212.992 266.399 215.025C266.208 224.349 261.46 230.061 252.157 232.162C251.608 232.288 251.306 232.074 251.25 231.519L251.179 230.806C251.131 230.386 251.306 230.092 251.704 229.926C270.406 222.065 261.079 202.955 247.612 196.474C247.425 196.39 247.274 196.241 247.187 196.054C247.101 195.868 247.084 195.657 247.14 195.46C247.197 195.262 247.322 195.091 247.494 194.979C247.666 194.866 247.873 194.818 248.078 194.845C250.511 195.107 252.781 195.824 254.888 196.997C255.238 197.188 255.544 197.132 255.807 196.831C257.493 194.897 258.642 192.681 259.254 190.183C259.316 189.924 259.459 189.692 259.662 189.519C259.864 189.346 260.117 189.241 260.383 189.22C260.649 189.199 260.915 189.262 261.143 189.401C261.371 189.54 261.549 189.747 261.651 189.993C263.13 193.497 262.423 196.415 259.528 198.746C258.916 199.245 258.884 199.78 259.433 200.351L262.701 203.752C263.17 204.244 263.54 204.18 263.81 203.562Z" fill="#201812"></path>
<path d="M309.033 257.8L304.524 258.014C304.842 248.485 302.047 240.271 296.139 233.374C296.078 233.306 296.036 233.223 296.016 233.134C295.996 233.044 295.999 232.951 296.025 232.862C296.051 232.773 296.099 232.692 296.165 232.626C296.231 232.559 296.312 232.51 296.402 232.482L297.201 232.232C297.654 232.098 298.06 232.181 298.417 232.482C306.433 239.368 308.353 247.632 309.033 257.8Z" fill="#201812"></path>
<path d="M161.842 334.872C161.452 331.669 160.856 331.629 160.053 334.753L151.285 368.49C151.229 368.706 151.117 368.902 150.961 369.061C150.805 369.22 150.609 369.335 150.394 369.396C150.18 369.456 149.953 369.459 149.736 369.404C149.52 369.35 149.322 369.24 149.161 369.085C148.621 368.554 148.155 367.765 147.766 366.718C143.869 356.158 140.74 345.452 138.378 334.598C138.342 334.451 138.259 334.319 138.14 334.223C138.022 334.128 137.876 334.074 137.723 334.07C137.571 334.066 137.422 334.112 137.299 334.201C137.175 334.29 137.085 334.417 137.042 334.563L127.641 367.313C127.53 367.703 127.3 368.048 126.981 368.302C126.663 368.556 126.272 368.705 125.864 368.728C123.494 368.863 121.196 368.518 118.969 367.693C118.611 367.559 118.432 367.301 118.432 366.92C118.416 363.028 118.707 359.167 119.303 355.338C121.633 340.362 124.842 325.577 128.93 310.981C130.687 304.686 133.113 298.879 136.207 293.56C136.302 293.399 136.441 293.27 136.609 293.187C136.776 293.105 136.964 293.072 137.149 293.093C137.335 293.115 137.51 293.189 137.654 293.308C137.798 293.427 137.904 293.584 137.96 293.762C142.207 307.663 145.786 320.697 149.293 335.312C149.515 336.232 149.794 336.251 150.128 335.371C152.311 329.711 165.624 296.105 170.001 295.129C170.487 295.018 170.757 295.209 170.813 295.7C173.509 318.422 175.628 341.175 177.171 363.959C177.282 365.577 177.155 367.174 176.789 368.752C176.678 369.251 176.364 369.485 175.847 369.453L166.566 368.883C166.144 368.859 165.906 368.637 165.85 368.217L161.842 334.872Z" fill="white"></path>
<path d="M468.024 330.46C473.273 321.803 476.792 309.78 479.572 300.873C481.695 294.083 487.54 291.978 494.078 295.022C494.531 295.236 494.69 295.581 494.555 296.057C489.246 314.287 481.504 332.577 474.502 348.797C469.146 361.189 463.384 372.022 447.65 369.679C447.316 369.624 447.161 369.426 447.184 369.085L447.841 359.595C447.872 359.191 448.075 358.901 448.449 358.727C454.819 355.694 463.181 356.039 459.364 345.503C454.608 332.375 449.085 319.559 442.795 307.057C440.95 303.378 439.514 299.506 438.488 295.439C438.458 295.32 438.455 295.196 438.48 295.076C438.505 294.956 438.557 294.844 438.633 294.746C438.709 294.649 438.806 294.57 438.917 294.515C439.029 294.459 439.151 294.43 439.276 294.428L448.377 294.392C448.727 294.392 449.002 294.539 449.2 294.832C451.618 298.336 453.018 300.679 453.4 301.86C456.716 312.016 461.297 321.553 467.142 330.472C467.444 330.932 467.738 330.928 468.024 330.46Z" fill="white"></path>
<path d="M249.938 306.842L229.062 308.483C228.744 308.507 228.585 308.681 228.585 309.006L229.17 366.908C229.173 367.14 229.13 367.37 229.042 367.586C228.955 367.801 228.826 367.998 228.662 368.163C228.498 368.329 228.302 368.461 228.086 368.552C227.87 368.643 227.639 368.69 227.404 368.692L218.446 368.739C217.968 368.747 217.718 368.513 217.694 368.038C216.251 343.969 217.861 319.626 218.493 295.664C218.496 295.515 218.529 295.369 218.589 295.233C218.648 295.097 218.735 294.975 218.842 294.872C218.949 294.769 219.076 294.689 219.215 294.635C219.354 294.581 219.502 294.555 219.65 294.558L261.104 295.295C261.446 295.295 261.613 295.466 261.605 295.807C260.666 319.796 260.404 343.794 260.817 367.8C260.825 368.26 260.599 368.493 260.138 368.501L251.775 368.656C251.369 368.663 250.975 368.515 250.674 368.241C250.373 367.967 250.186 367.588 250.153 367.181C248.519 347.37 249.783 327.011 250.272 307.151C250.274 307.108 250.267 307.065 250.25 307.025C250.234 306.985 250.209 306.949 250.177 306.919C250.145 306.89 250.108 306.868 250.066 306.854C250.025 306.841 249.981 306.837 249.938 306.842Z" fill="white"></path>
<path d="M95.9816 346.157L79.2451 346.847C78.7774 346.865 78.3261 347.028 77.9526 347.313C77.5791 347.598 77.3015 347.992 77.1576 348.441L71.038 367.717C70.9238 368.076 70.6856 368.384 70.365 368.586C70.0445 368.788 69.6619 368.872 69.2844 368.823L60.9341 367.693C60.0752 367.582 59.777 367.111 60.0394 366.278C67.662 341.888 75.9289 317.974 88.7645 295.676C89.2576 294.82 89.7626 294.816 90.2795 295.664C90.7408 296.426 91.21 297.436 91.6871 298.697C100.045 320.633 107.62 342.946 114.412 365.636C114.794 366.905 114.32 367.543 112.992 367.551L103.914 367.586C103.366 367.594 103.012 367.337 102.853 366.813L96.745 346.692C96.6257 346.32 96.3713 346.141 95.9816 346.157ZM81.7145 337.262C81.6844 337.332 81.6724 337.408 81.6796 337.484C81.6869 337.559 81.7131 337.632 81.7559 337.695C81.7987 337.757 81.8567 337.809 81.9245 337.843C81.9923 337.878 82.0678 337.895 82.1439 337.892L93.226 337.476C93.2924 337.474 93.3577 337.458 93.417 337.428C93.4763 337.398 93.5283 337.355 93.5693 337.303C93.6103 337.251 93.6392 337.19 93.6541 337.126C93.669 337.061 93.6694 336.994 93.6554 336.929L90.1125 319.389C90.0921 319.295 90.0424 319.211 89.9707 319.147C89.899 319.084 89.8089 319.044 89.7135 319.035C89.618 319.026 89.522 319.047 89.4394 319.096C89.3568 319.144 89.2917 319.218 89.2536 319.305L81.7145 337.262Z" fill="white"></path>
<path d="M18.0254 338.606C22.2721 352.222 38.9728 350.415 50.0906 351.366C50.5428 351.402 50.9671 351.599 51.2866 351.922C51.6061 352.245 51.7997 352.672 51.8323 353.126L52.715 365.386C52.7627 366.029 52.4645 366.397 51.8203 366.492C49.7845 366.778 46.2535 367.138 41.2274 367.574C24.6102 369.013 7.27735 362.544 2.42224 345.539C-8.23039 308.246 18.8962 291.074 52.5719 296.223C52.832 296.264 53.0686 296.397 53.2376 296.598C53.4066 296.799 53.4964 297.055 53.4904 297.317L53.1564 307.592C53.1325 308.202 52.8144 308.488 52.2021 308.448C41.1677 307.723 31.3382 305.404 22.1886 311.992C15.4607 316.832 15.7947 331.459 18.0254 338.606Z" fill="white"></path>
<path d="M298.454 307.604C297.293 322.143 295.376 336.576 292.704 350.902C292.418 352.464 291.42 354.814 289.71 357.954C285.296 366.088 277.948 369.893 268.488 368.847C268.058 368.799 267.844 368.557 267.844 368.121L267.856 358.572C267.856 357.993 268.146 357.72 268.727 357.752C287.014 358.691 284.616 332.267 286.214 319.591C287.193 311.837 287.686 304.084 287.694 296.33C287.697 296.086 287.795 295.853 287.967 295.682C288.139 295.511 288.371 295.415 288.612 295.414L318.542 295.319C319.115 295.319 319.405 295.605 319.413 296.176L320.785 367.217C320.793 367.693 320.554 367.927 320.069 367.919L310.096 367.788C309.667 367.788 309.444 367.574 309.428 367.146C309.078 354.35 309.015 341.583 309.237 328.842C309.369 321.826 308.605 314.751 308.343 307.687C308.327 307.156 308.053 306.89 307.52 306.89H299.229C298.752 306.89 298.493 307.128 298.454 307.604Z" fill="white"></path>
<path d="M420.452 331.732C426.38 333.991 429.076 338.177 430.09 344.48C433.585 366.004 413.855 371.165 396.951 369.631C396.562 369.599 396.351 369.389 396.319 369.001C394.625 349.129 394.637 320.684 396.928 297.079C396.966 296.658 397.153 296.265 397.455 295.971C397.757 295.677 398.154 295.5 398.574 295.473C405.982 294.962 415.143 295.438 420.762 299.969C430.353 307.722 427.024 322.753 420.332 331.327C420.307 331.36 420.29 331.398 420.283 331.438C420.276 331.479 420.278 331.52 420.289 331.56C420.301 331.599 420.322 331.635 420.35 331.665C420.378 331.695 420.413 331.718 420.452 331.732ZM406.149 305.724L405.361 326.154C405.36 326.19 405.365 326.226 405.378 326.26C405.39 326.294 405.409 326.325 405.433 326.351C405.458 326.378 405.487 326.399 405.52 326.414C405.552 326.43 405.588 326.438 405.624 326.44L406.029 326.464C407.481 326.52 408.93 326.305 410.292 325.829C411.655 325.354 412.904 324.627 413.968 323.692C415.033 322.756 415.892 321.63 416.497 320.377C417.102 319.125 417.44 317.77 417.493 316.391C417.546 315.013 417.313 313.637 416.806 312.342C416.3 311.047 415.53 309.859 414.54 308.845C413.551 307.831 412.362 307.012 411.041 306.433C409.72 305.855 408.292 305.529 406.841 305.474L406.435 305.463C406.399 305.461 406.363 305.466 406.329 305.479C406.295 305.491 406.264 305.51 406.237 305.534C406.211 305.558 406.189 305.588 406.174 305.62C406.159 305.653 406.15 305.688 406.149 305.724ZM405.66 339.818L404.681 359.012C404.662 359.445 404.815 359.868 405.108 360.189C405.401 360.51 405.809 360.702 406.244 360.724L408.594 360.843C411.579 360.993 414.5 359.986 416.715 358.043C418.93 356.101 420.257 353.382 420.404 350.485L420.428 349.867C420.573 346.971 419.527 344.134 417.521 341.98C415.515 339.826 412.711 338.531 409.727 338.379L407.389 338.26C407.173 338.249 406.957 338.28 406.753 338.353C406.549 338.425 406.361 338.537 406.2 338.681C406.04 338.826 405.909 339.001 405.816 339.196C405.723 339.391 405.67 339.603 405.66 339.818Z" fill="white"></path>
<path d="M343.951 327.106C357.145 328.593 368.322 333.242 366.783 349.106C365.077 366.599 346.218 369.393 332.201 367.193C331.882 367.143 331.592 366.98 331.383 366.733C331.173 366.487 331.057 366.174 331.056 365.85L331.616 297.079C331.624 296.445 331.946 296.132 332.583 296.14L342.937 296.294C343.182 296.299 343.423 296.352 343.647 296.452C343.871 296.551 344.072 296.694 344.239 296.873C344.406 297.052 344.535 297.262 344.619 297.492C344.703 297.721 344.739 297.965 344.726 298.209L343.331 326.357C343.307 326.801 343.514 327.051 343.951 327.106ZM342.353 338.713L341.541 357.24C341.537 357.346 341.553 357.452 341.589 357.552C341.626 357.652 341.681 357.744 341.753 357.822C341.825 357.901 341.912 357.964 342.009 358.009C342.106 358.054 342.21 358.08 342.317 358.084L346.587 358.275C347.916 358.333 349.242 358.163 350.49 357.774C351.737 357.385 352.881 356.784 353.857 356.007C354.833 355.229 355.622 354.29 356.177 353.243C356.733 352.195 357.046 351.061 357.097 349.903L357.204 347.382C357.305 345.044 356.337 342.756 354.511 341.021C352.686 339.286 350.153 338.246 347.47 338.13L343.2 337.94C343.093 337.935 342.987 337.951 342.886 337.987C342.786 338.023 342.694 338.079 342.615 338.151C342.537 338.223 342.473 338.309 342.428 338.406C342.383 338.502 342.357 338.606 342.353 338.713Z" fill="white"></path>
<path d="M379.582 296.211C379.896 296.209 380.208 296.27 380.5 296.388C380.791 296.507 381.057 296.682 381.28 296.903C381.504 297.123 381.682 297.386 381.804 297.676C381.926 297.965 381.989 298.275 381.991 298.589L382.444 363.043C382.449 363.738 382.401 364.427 382.303 365.069C382.205 365.712 382.058 366.296 381.872 366.789C381.686 367.281 381.464 367.673 381.218 367.94C380.973 368.207 380.708 368.345 380.44 368.347L373.665 368.394C373.125 368.397 372.602 367.843 372.213 366.853C371.824 365.862 371.6 364.518 371.59 363.115L371.137 298.661C371.135 298.347 371.196 298.036 371.315 297.745C371.434 297.454 371.609 297.19 371.831 296.967C372.052 296.744 372.315 296.567 372.606 296.445C372.896 296.323 373.207 296.26 373.522 296.259L379.582 296.211Z" fill="white"></path>
<path d="M286.12 257.962C286.12 256.483 285.53 255.064 284.48 254.018C283.43 252.972 282.007 252.385 280.522 252.385C279.037 252.385 277.613 252.972 276.563 254.018C275.514 255.064 274.924 256.483 274.924 257.962L286.12 257.962Z" fill="#CAC0B4"></path>
</svg></svg></g></g><defs><clipPath id="SvgjsClipPath1074"><rect width="1000" height="1000" x="0" y="0" rx="500" ry="500"></rect></clipPath></defs></svg>