<svg width="1920" height="439" fill="none" xmlns="http://www.w3.org/2000/svg"><path d="M1202.49 162.31c-121.01 21.2-274.081 4.5-335.49-6.5v14c21.331 6 86.877 19.3 178.41 24.5 114.41 6.5 176.47.5 319.97-27.5 143.5-28 287.01-25.5 391.72-7.5 83.78 14.4 143.51 25.667 162.9 29.5v-20.5c-9.05 0-38.78-1.8-85.33-9-58.17-9-81.44-22.5-153.19-31-71.76-8.5-153.2-13-242.41-5.5-89.2 7.5-85.32 13-236.58 39.5zm-903.849 133.5c-133.419 6.4-254.685-14.666-298.641-26v44c9.696 3.167 51.196 9.5 139.624 9.5 110.536 0 159.017-7 273.431-30.5 114.415-23.5 281.188-34.5 438.265 0 125.662 27.6 186.81 30.833 201.68 29v-34c-5.17-.5-20.17-2.2-38.78-5-23.275-3.5-48.485-10.5-91.148-20.5s-176.47-25.5-304.459-12.5-153.199 38-319.972 46zm874.759 112c-141.18 14.4-263.091-.333-306.4-9.5v13c4.525 1.5 20.556 5.8 48.481 11 34.906 6.5 232.709 36 405.299-3.5 172.59-39.5 347.12-39.5 436.32-18.5 71.37 16.8 138.34 27.667 162.9 31v-20c-16.81-1.167-59.73-5-96.96-11-46.54-7.5-141.56-41.5-316.1-37.5-174.53 4-157.07 27-333.54 45zM252.099 51.811C129.54 53.011 32.967 33.311 0 23.311v45c3.232 1.834 30.252 6.3 112.475 9.5 102.779 4 166.774-2 248.221-18 81.448-16 269.553-57.5 447.961-19.5 142.728 30.4 222.363 37.334 244.343 37v-34.5c-18.1-2.833-68.261-11.4-124.11-23-69.813-14.5-182.288-27-308.338-15-126.049 12-215.254 45.5-368.453 47z" fill="#fff"/></svg>