<svg width="103" height="103" fill="none" xmlns="http://www.w3.org/2000/svg"><g clip-path="url(#clip0_528_3196)"><path d="M94.535 23.244c-24.901-38.15-84.16-26.92-93.372 17.698-6.96 31.472 18.264 62.339 50.456 61.937 40.444.16 65.369-45.85 42.916-79.635zm-3.362 2.203c3.749 5.721 6.173 12.046 7.203 18.607-13.35-9.509-31.71-11.375-48.05-11.023a14.149 14.149 0 00-5.847-8.118C50.037 15.878 57.747 8.94 65.433 6.102c10.575 3.227 19.606 9.982 25.74 19.345zM36.741 46.7c-13.37-.567-13.275-19.567-.005-20.092.676 0 1.363.07 2.051.212 11.772 2.764 9.924 19.619-2.046 19.88zm-11.21-34.93c10.002-6.565 21.923-9.056 33.572-7.143-6.911 3.888-13.345 10.386-18.285 18.567-4.315-1.335-9.052-.389-12.445 2.162-2.912-4.006-5.126-8.125-6.063-11.283a48.323 48.323 0 013.22-2.303zm-6.508 5.113c1.296 3.433 3.57 7.436 6.464 11.334-1.516 1.99-2.536 4.587-2.757 7.18-6.253 1.15-13.067 3.35-17.54 5.93 2.066-9.488 6.88-17.932 13.833-24.445zM4.303 47.025c1.483-2.054 9.1-5.761 18.65-7.582a14.139 14.139 0 002.748 5.917c-5.814 9.253-10.426 25.497-10.207 36.873C7.379 72.72 3.073 60.107 4.304 47.025zM51.526 98.85c-11.456.106-23.423-4.574-31.587-12.062-1.706-8.65 1.672-26.545 8.751-38.6 2.504 1.787 5.878 2.739 9.002 2.5 5.23 18.539 14.892 36.77 31.242 44.827a47.143 47.143 0 01-17.407 3.335zM97.931 61.1c-2.977 14.29-12.134 25.74-24.096 32.14-19.771-7.294-28.863-31.535-32.205-43.403 5.14-1.83 9.082-7.057 9.17-12.803 21.074-.83 42.263 4.99 48.133 13.308A47.81 47.81 0 0197.931 61.1z" fill="#278DB6"/></g><defs><clipPath id="clip0_528_3196"><path fill="#fff" d="M0 0h103v103H0z"/></clipPath></defs></svg>