<svg width="144" height="144" fill="none" xmlns="http://www.w3.org/2000/svg"><circle cx="72" cy="72" r="72" fill="#CF9CA3"/><circle cx="72" cy="72" r="62" fill="#CF9CA3" stroke="#fff" stroke-width="2"/><path d="M31.605 85.409c-.34 0-.607-.09-.8-.272-.181-.193-.272-.466-.272-.817v-6.433c0-.363.091-.63.272-.8.193-.181.46-.272.8-.272s.602.09.783.272c.182.17.273.437.273.8v2.28h3.675v-2.28c0-.363.091-.63.273-.8.181-.181.442-.272.782-.272s.602.09.783.272c.193.17.29.437.29.8v6.433c0 .352-.097.624-.29.817-.181.181-.442.272-.783.272-.34 0-.6-.09-.782-.272-.182-.193-.273-.466-.273-.817v-2.485h-3.675v2.485c0 .352-.091.624-.273.817-.17.181-.43.272-.783.272zm12.039.034c-.602 0-1.14-.114-1.617-.34a2.93 2.93 0 01-1.106-.953 2.394 2.394 0 01-.392-1.345c0-.612.16-1.095.477-1.446.318-.363.834-.624 1.548-.783.715-.159 1.674-.238 2.877-.238h.85v1.225h-.833c-.704 0-1.265.034-1.685.102-.42.068-.72.187-.902.357-.17.16-.255.386-.255.681 0 .374.13.68.391.92.26.237.624.356 1.09.356.373 0 .702-.085.986-.255.295-.181.528-.425.698-.732.17-.306.255-.658.255-1.055V79.98c0-.567-.125-.975-.374-1.225-.25-.25-.67-.374-1.26-.374-.329 0-.686.04-1.072.119a5.72 5.72 0 00-1.19.408c-.217.102-.41.13-.58.085a.652.652 0 01-.374-.272.893.893 0 01-.136-.477c0-.17.045-.334.136-.493a.81.81 0 01.46-.374 7.725 7.725 0 011.497-.46c.488-.09.93-.136 1.328-.136.816 0 1.486.125 2.008.374.533.25.93.63 1.19 1.14.262.5.392 1.146.392 1.94v4.085c0 .352-.085.624-.255.817-.17.181-.414.272-.732.272-.317 0-.567-.09-.748-.272-.17-.193-.256-.466-.256-.817v-.817h.136a2.306 2.306 0 01-1.344 1.702 2.906 2.906 0 01-1.208.238zm12.474-.034c-.34 0-.607-.09-.8-.272-.181-.193-.272-.466-.272-.817v-6.178c0-.385.102-.68.306-.885.205-.204.5-.306.885-.306h5.497c.386 0 .68.102.885.306.204.205.306.5.306.885v6.178c0 .352-.096.624-.289.817-.182.181-.443.272-.783.272s-.601-.09-.783-.272c-.181-.193-.272-.466-.272-.817v-5.701h-3.625v5.7c0 .352-.09.625-.272.818-.17.181-.431.272-.783.272zm13.35.034c-.942 0-1.753-.176-2.434-.528a3.804 3.804 0 01-1.582-1.497c-.363-.647-.545-1.413-.545-2.297 0-.863.176-1.617.528-2.264a3.958 3.958 0 011.48-1.514c.636-.375 1.356-.562 2.162-.562.59 0 1.117.096 1.582.29.477.192.88.47 1.209.833.34.363.595.806.765 1.328.182.51.273 1.089.273 1.735a.567.567 0 01-.222.477c-.136.102-.334.153-.595.153h-5.463v-1.225h4.782l-.272.255c0-.522-.08-.959-.239-1.31a1.661 1.661 0 00-.663-.8c-.284-.193-.641-.29-1.072-.29-.477 0-.885.114-1.226.34-.329.216-.584.528-.765.937-.17.397-.256.873-.256 1.43v.118c0 .93.216 1.628.647 2.094.442.453 1.09.68 1.94.68.295 0 .624-.034.987-.102.374-.08.726-.21 1.055-.391.238-.136.448-.193.63-.17a.597.597 0 01.425.187.718.718 0 01.204.425.796.796 0 01-.102.494c-.079.17-.22.317-.425.442-.397.25-.857.437-1.379.562-.51.113-.987.17-1.429.17zm6.41 3.029c-.34 0-.601-.09-.783-.272-.181-.182-.272-.448-.272-.8v-9.513c0-.352.09-.618.272-.8.182-.181.437-.272.766-.272.34 0 .601.09.783.272.181.182.272.448.272.8v1.328l-.187-.511a2.493 2.493 0 011.038-1.395c.533-.352 1.151-.528 1.855-.528.726 0 1.361.176 1.906.527.556.352.987.851 1.293 1.498.306.635.46 1.401.46 2.297 0 .885-.154 1.657-.46 2.315-.306.647-.731 1.146-1.276 1.497-.545.352-1.186.528-1.923.528-.692 0-1.3-.17-1.821-.51-.522-.352-.874-.806-1.055-1.362h.204V87.4c0 .352-.096.618-.29.8-.18.181-.442.272-.782.272zm3.148-4.646a2 2 0 001.106-.306c.318-.204.562-.505.732-.902.182-.408.272-.913.272-1.514 0-.908-.192-1.583-.578-2.026-.386-.453-.896-.68-1.532-.68a2 2 0 00-1.106.306c-.317.193-.567.494-.749.902-.17.397-.255.896-.255 1.498 0 .896.193 1.576.579 2.042.385.453.896.68 1.531.68zm7.288 1.447c-.34 0-.601-.091-.783-.272-.181-.182-.272-.443-.272-.783v-6.212c0-.34.09-.601.272-.783.182-.181.443-.272.783-.272h3.438c.715 0 1.293.085 1.736.255.453.17.782.42.987.75.204.317.306.708.306 1.173 0 .522-.182.965-.545 1.328-.351.352-.822.567-1.412.647v-.239c.737.046 1.293.256 1.668.63.385.374.578.856.578 1.446 0 .715-.272 1.282-.817 1.702-.544.42-1.333.63-2.365.63h-3.574zm.92-1.31H89.7c.465 0 .817-.097 1.055-.29.25-.193.374-.476.374-.85 0-.375-.124-.659-.374-.852-.238-.193-.59-.289-1.055-.289h-2.468v2.28zm0-3.591h2.314c.408 0 .726-.091.953-.273.227-.192.34-.46.34-.8s-.113-.595-.34-.765c-.227-.182-.545-.273-.953-.273h-2.315v2.11zm11.509 5.071c-.862 0-1.61-.176-2.246-.528a3.69 3.69 0 01-1.48-1.497c-.352-.658-.528-1.43-.528-2.315 0-.669.096-1.264.29-1.786.203-.534.493-.987.867-1.362a3.573 3.573 0 011.344-.868 4.776 4.776 0 011.753-.306c.863 0 1.611.176 2.247.527a3.694 3.694 0 011.48 1.498c.352.647.528 1.413.528 2.297 0 .67-.102 1.271-.307 1.804a3.794 3.794 0 01-.851 1.379 3.862 3.862 0 01-1.344.868 5.025 5.025 0 01-1.753.289zm0-1.617a2 2 0 001.106-.306c.318-.204.562-.505.732-.902.182-.408.272-.913.272-1.514 0-.908-.192-1.583-.578-2.026-.386-.453-.896-.68-1.532-.68a2 2 0 00-1.106.306c-.317.193-.567.494-.749.902-.17.397-.255.896-.255 1.498 0 .896.193 1.576.579 2.042.385.453.896.68 1.531.68zm10.344 1.617c-.941 0-1.752-.176-2.433-.528a3.807 3.807 0 01-1.583-1.497c-.363-.647-.544-1.413-.544-2.297 0-.863.175-1.617.527-2.264a3.958 3.958 0 011.481-1.514c.635-.375 1.355-.562 2.161-.562.59 0 1.117.096 1.583.29.476.192.879.47 1.208.833.34.363.595.806.766 1.328.181.51.272 1.089.272 1.735a.568.568 0 01-.221.477c-.136.102-.335.153-.596.153h-5.463v-1.225h4.782l-.272.255c0-.522-.079-.959-.238-1.31a1.664 1.664 0 00-.664-.8c-.283-.193-.641-.29-1.072-.29-.476 0-.885.114-1.225.34-.329.216-.584.528-.766.937-.17.397-.255.873-.255 1.43v.118c0 .93.215 1.628.646 2.094.443.453 1.09.68 1.94.68.295 0 .624-.034.987-.102a3.84 3.84 0 001.056-.391c.238-.136.448-.193.629-.17a.597.597 0 01.426.187.722.722 0 01.204.425.793.793 0 01-.102.494c-.08.17-.221.317-.426.442a4.56 4.56 0 01-1.378.562c-.511.113-.987.17-1.43.17zm-73.732 16.209c-.724 0-1.426-.071-2.106-.212a7.465 7.465 0 01-1.83-.575c-.255-.127-.44-.283-.553-.468a1.189 1.189 0 01-.17-.595c.014-.213.078-.397.191-.553a.853.853 0 01.51-.298c.214-.043.462.007.745.149a6.74 6.74 0 001.51.489c.568.1 1.114.149 1.639.149.907 0 1.553-.106 1.935-.32.383-.226.575-.567.575-1.02 0-.411-.15-.724-.447-.936-.298-.213-.723-.32-1.276-.32h-1.894c-.326 0-.58-.084-.765-.255-.185-.184-.277-.425-.277-.723s.092-.525.277-.68c.184-.17.44-.256.766-.256h1.637c.497 0 .887-.1 1.17-.298.284-.212.426-.51.426-.893 0-.411-.17-.73-.51-.957-.327-.227-.922-.34-1.788-.34-.496 0-.978.049-1.446.148a6.213 6.213 0 00-1.383.426c-.34.142-.63.17-.872.085a.918.918 0 01-.49-.49.925.925 0 01-.02-.702c.085-.24.276-.432.574-.574a8.54 8.54 0 011.936-.617c.68-.127 1.397-.191 2.148-.191 1.39 0 2.447.262 3.17.787.737.51 1.106 1.227 1.106 2.148 0 .653-.22 1.206-.66 1.66-.44.44-1.028.709-1.765.808v-.298c.88.057 1.567.312 2.063.766.497.454.745 1.064.745 1.83 0 .95-.419 1.708-1.255 2.275-.837.568-2.042.851-3.616.851zm10.647 0c-.752 0-1.425-.141-2.021-.425a3.668 3.668 0 01-1.383-1.191 2.994 2.994 0 01-.489-1.68c0-.767.199-1.37.596-1.809.397-.454 1.042-.78 1.935-.978.894-.199 2.092-.298 3.595-.298H49.3v1.531h-1.042c-.88 0-1.581.043-2.106.128-.525.085-.9.234-1.128.447-.212.198-.319.482-.319.85 0 .468.163.851.49 1.15.326.297.78.446 1.36.446.469 0 .88-.106 1.235-.32.368-.226.66-.53.872-.914a2.67 2.67 0 00.319-1.319v-2.446c0-.71-.156-1.22-.468-1.532-.312-.312-.837-.468-1.574-.468-.411 0-.858.05-1.34.15a7.14 7.14 0 00-1.49.51c-.269.128-.51.163-.723.106a.814.814 0 01-.468-.34 1.116 1.116 0 01-.17-.596c0-.212.057-.418.17-.617.114-.212.305-.368.575-.468a9.659 9.659 0 011.872-.574 9.151 9.151 0 011.659-.17c1.021 0 1.858.156 2.51.468a3.095 3.095 0 011.49 1.425c.325.624.488 1.432.488 2.425v5.105c0 .44-.106.78-.319 1.021-.212.227-.517.341-.914.341-.398 0-.71-.114-.936-.341-.213-.241-.32-.581-.32-1.021v-1.02h.17a2.946 2.946 0 01-.595 1.297 2.895 2.895 0 01-1.085.83c-.44.198-.943.297-1.51.297zm9.818-.042c-.425 0-.759-.114-1-.341-.227-.241-.34-.581-.34-1.021v-8.04c0-.454.113-.787.34-1 .241-.227.575-.34 1-.34.425 0 .752.113.978.34.227.213.34.546.34 1v2.85h4.596v-2.85c0-.454.113-.787.34-1 .227-.227.553-.34.979-.34.425 0 .751.113.978.34.241.213.362.546.362 1v8.04c0 .44-.12.78-.362 1.021-.227.227-.553.341-.979.341-.425 0-.751-.114-.978-.341-.227-.241-.34-.581-.34-1.021v-3.105h-4.595v3.105c0 .44-.114.78-.34 1.021-.213.227-.54.341-.98.341zm19.281 0c-.397 0-.702-.107-.915-.319-.213-.227-.319-.539-.319-.936v-2.51h-1.106c-.411 0-.78.113-1.106.34-.312.227-.567.51-.766.85l-1.042 1.83c-.185.326-.411.539-.681.638a1.155 1.155 0 01-.787.064 1.47 1.47 0 01-.66-.383 1.447 1.447 0 01-.361-.702c-.043-.269.028-.553.213-.85l.66-1.107c.212-.368.517-.688.914-.957.397-.27.808-.404 1.234-.404h.425v.234c-1.22 0-2.156-.27-2.808-.808-.652-.54-.978-1.312-.978-2.32 0-.666.148-1.24.446-1.722.312-.482.766-.851 1.362-1.106.595-.27 1.333-.404 2.212-.404h3.957c.425 0 .751.113.978.34.241.227.362.553.362.978v7.999c0 .397-.114.709-.34.936-.228.212-.525.319-.894.319zm-3.51-5.51h2.276v-3.318h-2.276c-.695 0-1.212.149-1.553.447-.34.283-.51.68-.51 1.19 0 .526.17.937.51 1.235.34.297.858.446 1.553.446zm11.286 5.51c-.425 0-.759-.114-1-.341-.227-.241-.34-.581-.34-1.021v-7.126h-2.595c-.766 0-1.15-.347-1.15-1.042 0-.326.1-.581.299-.766.212-.184.496-.276.85-.276h7.85c.766 0 1.149.347 1.149 1.042 0 .34-.1.603-.298.787-.199.17-.482.255-.851.255h-2.595v7.126c0 .44-.114.78-.34 1.021-.213.227-.54.341-.98.341zm7.757 0c-.27 0-.496-.05-.68-.149a.98.98 0 01-.426-.468c-.085-.213-.128-.482-.128-.808v-8.041c0-.412.106-.724.32-.936.212-.227.51-.34.893-.34s.673.113.872.34c.213.213.319.524.319.936v6.573h-.553l5.254-6.999c.156-.198.348-.39.574-.574.227-.184.54-.277.936-.277.27 0 .49.05.66.15a.882.882 0 01.404.467c.1.199.149.461.149.787v8.062c0 .398-.106.71-.32.936-.198.227-.489.341-.871.341-.397 0-.702-.114-.915-.341-.199-.226-.298-.538-.298-.936v-6.594h.575l-5.276 7.02a2.99 2.99 0 01-.553.574c-.213.185-.525.277-.936.277zm16.752.042c-1.177 0-2.191-.219-3.042-.659a4.757 4.757 0 01-1.978-1.872c-.454-.808-.681-1.766-.681-2.872 0-1.078.22-2.02.66-2.829a4.94 4.94 0 011.85-1.893c.794-.468 1.695-.702 2.702-.702.737 0 1.397.12 1.978.361a4.056 4.056 0 011.51 1.043c.426.454.745 1.007.958 1.659.227.638.34 1.361.34 2.17 0 .255-.092.454-.276.595-.171.128-.419.192-.745.192h-6.828v-1.532h5.977l-.34.32c0-.653-.1-1.199-.298-1.639a2.074 2.074 0 00-.83-1c-.354-.24-.801-.361-1.34-.361-.595 0-1.106.142-1.531.425-.412.27-.731.66-.958 1.17-.212.497-.319 1.092-.319 1.787v.15c0 1.162.27 2.034.809 2.616.553.567 1.361.85 2.425.85.368 0 .78-.042 1.233-.127.468-.1.908-.263 1.319-.49.298-.17.56-.24.787-.212.227.014.405.092.532.234a.894.894 0 01.255.532.996.996 0 01-.127.617c-.099.212-.277.397-.532.553a5.706 5.706 0 01-1.723.702 8.313 8.313 0 01-1.787.212zM28.531 61.91c-.723 0-1.326-.241-1.808-.723-.482-.483-.723-1.085-.723-1.808 0-.724.241-1.314.723-1.773.482-.482 1.085-.723 1.808-.723h7.16c.724 0 1.326.241 1.809.723.482.459.723 1.05.723 1.773 0 .723-.241 1.325-.723 1.808-.483.482-1.085.723-1.808.723h-7.16zm22.288 7.594a18.01 18.01 0 01-3.653-.398 13.997 13.997 0 01-3.543-1.23c-.651-.337-1.11-.77-1.375-1.301a3.103 3.103 0 01-.253-1.664 3.296 3.296 0 01.651-1.482 2.395 2.395 0 011.338-.832c.555-.145 1.157-.048 1.808.29a11.48 11.48 0 002.46.867c.867.193 1.675.29 2.422.29.82 0 1.519-.121 2.098-.362.578-.241 1.012-.59 1.302-1.049.313-.458.47-1 .47-1.627 0-.965-.326-1.724-.977-2.279-.65-.554-1.519-.831-2.603-.831a6.6 6.6 0 00-1.592.217c-.554.144-1.133.422-1.736.831-.265.145-.626.314-1.084.507a4.05 4.05 0 01-1.41.253c-.869 0-1.507-.205-1.917-.615-.41-.41-.615-.988-.615-1.736v-10.92c0-.917.241-1.616.723-2.098.507-.482 1.206-.723 2.098-.723h11.355c.892 0 1.579.229 2.061.687.482.458.723 1.133.723 2.025 0 .868-.24 1.53-.723 1.989-.482.458-1.17.687-2.061.687h-7.92v5.677h-1.519c.579-.675 1.338-1.181 2.279-1.519.94-.361 1.964-.542 3.073-.542 1.616 0 3.038.35 4.268 1.049a7.086 7.086 0 012.856 2.857c.7 1.23 1.05 2.664 1.05 4.303 0 1.736-.41 3.267-1.23 4.593-.796 1.301-1.953 2.314-3.472 3.037-1.495.7-3.279 1.049-5.352 1.049zm21.864 0c-3.134 0-5.545-1.145-7.232-3.436-1.664-2.314-2.496-5.58-2.496-9.8 0-2.844.374-5.231 1.121-7.16.748-1.952 1.845-3.423 3.291-4.412 1.447-.988 3.219-1.482 5.316-1.482 3.158 0 5.57 1.109 7.233 3.327 1.663 2.218 2.495 5.448 2.495 9.691 0 2.821-.374 5.22-1.121 7.197-.748 1.977-1.845 3.483-3.291 4.52-1.447 1.037-3.218 1.555-5.316 1.555zm0-5.28c1.157 0 2.013-.627 2.568-1.88.578-1.278.868-3.315.868-6.112 0-2.772-.29-4.749-.868-5.93-.555-1.206-1.41-1.809-2.568-1.809-1.157 0-2.025.603-2.604 1.809-.554 1.181-.831 3.158-.831 5.93 0 2.797.277 4.834.831 6.112.579 1.253 1.447 1.88 2.604 1.88zm23.962 4.231c-.314.555-.711.916-1.194 1.085-.482.193-.952.23-1.41.109a2.593 2.593 0 01-1.193-.687 2.172 2.172 0 01-.615-1.266c-.072-.506.048-1.037.362-1.591l12.657-21.806c.337-.579.735-.953 1.193-1.121a2.085 2.085 0 011.374-.109c.482.12.88.362 1.193.723.338.338.543.76.615 1.266.097.482-.024 1-.361 1.555L96.645 68.455zM91.4 58.8c-2.17 0-3.857-.711-5.063-2.134-1.18-1.446-1.771-3.35-1.771-5.713 0-1.592.277-2.966.831-4.123.555-1.157 1.338-2.05 2.35-2.676 1.013-.627 2.23-.94 3.653-.94 2.146 0 3.81.711 4.99 2.133 1.206 1.399 1.809 3.267 1.809 5.606 0 1.567-.277 2.94-.832 4.122-.53 1.181-1.302 2.097-2.314 2.748-1.013.651-2.23.977-3.653.977zm0-3.978c.362 0 .663-.12.904-.362.265-.265.458-.675.579-1.23.144-.578.217-1.337.217-2.277 0-1.423-.157-2.411-.47-2.966-.29-.554-.7-.831-1.23-.831-.385 0-.711.12-.976.361-.241.217-.434.603-.579 1.157-.12.555-.18 1.314-.18 2.279 0 1.446.144 2.459.433 3.037.29.555.724.832 1.302.832zm19.094 14.682c-2.146 0-3.821-.711-5.027-2.134-1.181-1.422-1.771-3.315-1.771-5.677 0-1.615.265-3.002.795-4.159.555-1.157 1.338-2.05 2.351-2.676 1.036-.627 2.254-.94 3.652-.94 2.146 0 3.821.711 5.027 2.133 1.205 1.423 1.808 3.303 1.808 5.642 0 1.567-.277 2.941-.832 4.122-.53 1.158-1.302 2.062-2.314 2.713-1.013.65-2.242.976-3.689.976zm0-3.942c.386 0 .699-.12.94-.361.266-.266.458-.675.579-1.23.145-.578.217-1.338.217-2.278 0-1.422-.157-2.411-.47-2.965-.29-.555-.711-.832-1.266-.832-.362 0-.675.12-.94.361-.241.217-.434.603-.579 1.158-.12.53-.181 1.29-.181 2.278 0 1.446.145 2.459.434 3.038.29.554.712.831 1.266.831z" fill="#fff"/></svg>