<svg width="123" height="135" fill="none" xmlns="http://www.w3.org/2000/svg"><path d="M22.337 93.388c7.623-4.707 11.308-12.184 11.308-12.184s-11.12 2.85-17.741-.958c-6.623-3.808-11.062-7.589-14.54-4.278-3.072 2.927-2.801 14.628 20.973 17.42zm78.327 0C93.04 88.68 89.356 81.204 89.356 81.204s11.118 2.85 17.74-.958c6.623-3.808 11.062-7.589 14.54-4.278 3.072 2.927 2.801 14.628-20.972 17.42z" fill="#F04424"/><path d="M61.5 134.083c11.768 0 8.209-33.552 8.209-33.552 14.045 26.934 27.793 34.494 32.719 31.065 3.163-2.202 1.817-6.94-1.323-11.071-3.14-4.131-17.635-23.702-17.635-23.702 25.947 22.193 37.681 13.618 38.147 9.659.466-3.96-7.571-7.287-17.061-11.115-10.27-4.143-15.2-14.162-15.2-14.162C125.222 39.42 93.188 0 61.502 0S-2.22 39.42 33.645 81.204c0 0-4.93 10.02-15.2 14.163-9.49 3.828-17.526 7.155-17.06 11.114.465 3.96 12.2 12.535 38.146-9.658 0 0-14.495 19.57-17.635 23.702-3.14 4.13-4.485 8.869-1.321 11.071 4.924 3.429 18.672-4.131 32.717-31.066 0 .001-3.559 33.553 8.209 33.553z" fill="#FF6930"/><path d="M22.337 93.387c7.623-4.707 11.308-12.184 11.308-12.184s-5.666 1.453-11.318.898c-2.134 2.852-5.595 6.581-10.436 9.09 2.832.941 6.275 1.706 10.446 2.196zm78.328 0c-7.624-4.707-11.309-12.184-11.309-12.184s5.667 1.453 11.318.898c2.134 2.852 5.595 6.581 10.437 9.09-2.832.941-6.276 1.706-10.446 2.196z" fill="#D83D24"/><path d="M1.997 107.975c2.738 4.031 14.567 8.493 37.534-11.151a6.75 6.75 0 00-8.46-.835c-11.593 7.649-22.929 10.767-29.074 11.986zm51.295-7.444a7.594 7.594 0 00-9.495 2.824c-4.42 6.869-13.033 18.596-24.625 26.584.292.641.75 1.204 1.401 1.658 4.926 3.429 18.673-4.132 32.719-31.066zm67.712 7.444c-2.738 4.031-14.567 8.493-37.534-11.151a6.751 6.751 0 018.46-.835c11.593 7.649 22.929 10.767 29.074 11.986zm-51.295-7.444a7.593 7.593 0 019.495 2.824c4.42 6.869 13.033 18.596 24.625 26.584a4.05 4.05 0 01-1.402 1.658c-4.925 3.429-18.673-4.132-32.718-31.066zM61.5 124.264c-6.468 0-8.305-7.682-8.648-16.813-.331 9.823.318 26.633 8.648 26.633s8.98-16.81 8.648-26.632c-.342 9.13-2.18 16.812-8.648 16.812z" fill="#FF5426"/><path d="M42.132 41.639c-3.8 0-6.779 3.681-6.779 8.379 0 4.7 2.978 8.381 6.78 8.381 3.8 0 6.778-3.682 6.778-8.381 0-4.698-2.977-8.38-6.779-8.38zm32.041 8.379c0-4.697 2.978-8.38 6.779-8.38 3.8 0 6.779 3.682 6.779 8.38 0 4.7-2.979 8.381-6.78 8.381-3.8 0-6.778-3.682-6.778-8.381z" fill="#433F43"/><circle cx="83.54" cy="45.829" r="4.19" fill="#fff"/><circle cx="44.782" cy="45.829" r="4.19" fill="#fff"/></svg>