<svg width="103" height="103" fill="none" xmlns="http://www.w3.org/2000/svg"><path d="M100.128 42.152c-.577-2.42-2.653-4.432-5.415-5.26-2.216-.67-4.494-.53-6.492-.405l-17.214 1.03c-2.528.156-5.134.171-6.554-1.217-.983-.968-1.358-2.607-1.732-4.495l-3.793-19.398c-.405-2.123-.92-4.745-2.48-6.898-1.593-2.216-4.776-4.073-7.944-2.919-3.574 1.296-4.573 5.431-5.057 7.413l-2.934 12.033c-.28 1.17-.546 2.356-.796 3.558-.483 2.294-.998 4.666-1.732 6.82-.312.905-.343.998-2.762.515l-22.16-4.058c-2.014-.359-5.744-1.045-8.35 1.28-2.59 2.31-2.403 6.305-.92 8.895 1.42 2.45 3.792 4.058 5.695 5.337l15.154 10.191c1.108.75 2.216 1.56 2.434 2.435.235.952-.483 2.231-1.232 3.464L13.67 80.293c-3.527 5.743-1.78 8.708-.421 9.972 2.59 2.42 6.492 1.155 7.771.734a78.789 78.789 0 0026.92-15.123c4.074 7.757 9.567 14.92 15.997 20.835 1.373 1.264 2.996 2.668 5.056 3.464 1.03.39 2.076.593 3.075.593 1.451 0 2.84-.406 3.964-1.201 1.872-1.327 2.965-3.715 2.934-6.383-.016-2.138-.703-4.136-1.311-5.884l-6.789-19.663c-.687-1.998-1.217-3.761-.718-5.182.671-1.935 3.215-3.027 5.54-3.901l15.81-5.962c1.934-.733 4.12-1.56 5.93-3.136 2.263-1.998 3.292-4.792 2.699-7.304zm-5.29 4.323c-1.264 1.108-3.012 1.763-4.713 2.403L74.316 54.84c-2.279.858-6.539 2.465-7.881 6.304-.983 2.825.047 5.79.718 7.772L73.94 88.58c.531 1.545 1.077 3.121 1.093 4.635.015 1.061-.312 2.45-1.28 3.137-.796.561-2.122.624-3.355.156-1.405-.546-2.653-1.623-3.808-2.684-6.71-6.165-12.344-13.765-16.277-21.974a1.945 1.945 0 00-1.405-1.077c-.124-.03-.25-.03-.374-.03a1.99 1.99 0 00-1.327.514 74.785 74.785 0 01-27.404 15.996c-1.982.64-3.277.687-3.87.125-.937-.874-.047-3.168 1.092-5.04l12.157-19.805c.874-1.435 2.357-3.823 1.701-6.46-.593-2.435-2.762-3.902-4.057-4.776l-15.154-10.19c-1.654-1.109-3.527-2.373-4.494-4.043-.703-1.233-.859-3.105.125-3.98 1.03-.92 3.027-.702 5.025-.343l21.364 3.886.765.14c2.17.438 5.806 1.156 7.257-3.12.811-2.373 1.342-4.854 1.857-7.257.25-1.155.5-2.31.765-3.45l2.934-12.032c.483-2.013 1.17-4.135 2.575-4.65 1.139-.406 2.622.452 3.402 1.514 1.045 1.451 1.436 3.433 1.81 5.353l3.792 19.382c.39 1.967.906 4.65 2.825 6.54 2.575 2.543 6.29 2.543 9.551 2.356l17.213-1.03c1.764-.11 3.574-.219 5.135.25 1.404.42 2.466 1.357 2.715 2.387.297 1.28-.515 2.653-1.451 3.465z" fill="#278DB6"/><path d="M29.184 40.295c-1.67 0-3.028 1.358-3.028 3.012a3.03 3.03 0 003.028 3.028 3.03 3.03 0 003.027-3.028 3.027 3.027 0 00-3.027-3.012zm20.319-7.897c-2.185 0-3.964 1.78-3.964 3.949a3.97 3.97 0 003.964 3.964 3.97 3.97 0 003.964-3.964c0-2.17-1.78-3.949-3.964-3.949zm13.156 20.897a2.335 2.335 0 00-2.341-2.325 2.336 2.336 0 100 4.666 2.338 2.338 0 002.34-2.341zm-14.78-4.12a2.334 2.334 0 100 4.666 2.338 2.338 0 002.342-2.34 2.355 2.355 0 00-2.341-2.326zm31.432-5.852a3.134 3.134 0 00-3.137 3.12 3.137 3.137 0 006.273 0c.016-1.716-1.389-3.12-3.136-3.12zM55.62 63.689a2.864 2.864 0 000 5.727 2.864 2.864 0 002.871-2.871c0-1.561-1.295-2.856-2.871-2.856zm8.115 12.906a2.321 2.321 0 00-2.326 2.325 2.321 2.321 0 002.326 2.325 2.321 2.321 0 002.325-2.325c.016-1.28-1.03-2.325-2.325-2.325zM35.863 61.098a3.29 3.29 0 00-3.293 3.277 3.293 3.293 0 006.586 0 3.28 3.28 0 00-3.293-3.277z" fill="#278DB6"/></svg>