<svg width="392" height="392" fill="none" xmlns="http://www.w3.org/2000/svg"><path fill-rule="evenodd" clip-rule="evenodd" d="M20 0C8.954 0 0 8.954 0 20v352c0 11.046 8.954 20 20 20h352c11.046 0 20-8.954 20-20V20c0-11.046-8.954-20-20-20H20zm215.948 208.694l35.405 35.194a12.334 12.334 0 013.647 8.747 12.336 12.336 0 01-3.643 8.749 12.475 12.475 0 01-8.804 3.616 12.465 12.465 0 01-8.801-3.616l-34.984-34.775a62.21 62.21 0 01-35.542 11.089c-34.368 0-62.226-27.687-62.226-61.849 0-34.16 27.859-61.849 62.226-61.849s62.229 27.689 62.229 61.849a61.256 61.256 0 01-9.507 32.845zm-94.784-32.842c0 23.09 18.833 41.807 42.062 41.807 23.231 0 42.062-18.717 42.062-41.807 0-23.09-18.831-41.809-42.062-41.809-23.229 0-42.062 18.719-42.062 41.809z" fill="#fff"/></svg>