<svg width="123" height="204" fill="none" xmlns="http://www.w3.org/2000/svg"><path d="M45.691 108.939s-22.662 20.523-36.72 17.008c-14.056-3.515 0-14.056 0-14.056s-17.57-7.028-3.513-17.571v.562c-.106-.105-.247-.176-.351-.28-13.425-10.368 3.864-17.29 3.864-17.29s-14.056-10.542 0-14.057c10.718-2.67 34.333 11.877 38.304 15.603l-1.584 30.081z" fill="#FF5364"/><path d="M21.092 108.938a3.512 3.512 0 01-3.475-3.026 3.515 3.515 0 012.51-3.866l16.578-4.74-17.37-9.917a3.515 3.515 0 013.486-6.101l24.6 14.058a3.515 3.515 0 01-.777 6.426l-24.6 7.029c-.309.089-.63.136-.952.137z" fill="#DF4D60"/><path d="M123 47.37c0 8.856-4.287 16.096-7.45 15.884a5.683 5.683 0 01-2.811-1.264c-15.146-10.261-34.93-3.796-51.271-10.753-1.37-.598-9.594-6.467-8.749-9.067-2.39 7.238-1.196 16.27 4.989 21.084 6.572 5.096 15.848 3.374 23.545 5.658a38.674 38.674 0 0127.101 30.367 38.674 38.674 0 01-15.084 37.806c-6.395 4.743-18.483 5.552-29.974 7.274-14.478 2.215-28.043 5.869-28.147 20.804-.072 11.562 5.621 19.678 17.534 21.084 13.705 1.582 28.323-2.319 37.566-12.931 2.742-3.198 8.152-10.051 8.152-14.83 1.51 28.498-20.522 45.612-38.654 45.473-21.857-.176-45.507-14.197-45.578-38.34a33.824 33.824 0 018.469-20.874c4.041-5.236 9.101-10.33 13.46-15.848 1.404-1.827 2.775-3.69 4.004-5.622a38.57 38.57 0 003.901-7.801 28.685 28.685 0 001.688-9.488c0-2.589-.282-5.169-.845-7.697a43.099 43.099 0 00-1.616-5.903 67.165 67.165 0 00-3.407-8.259c-.986-2.072-2.074-4.11-3.164-6.114-1.441-2.67-2.917-5.27-4.358-7.8-.245-.458-.492-.879-.737-1.301-.88-1.582-1.757-3.058-2.53-4.497a50.215 50.215 0 01-7.942-29.273C21.092 14.585 39.506.809 56.232 0c1.196-.07 2.355 7.027 3.515 7.027 21.084 0 26.04 12.545 29.06 17.571a50.716 50.716 0 006.08 10.227c7.028 7.027 24.599 9.03 28.113 12.545z" fill="#FB7B76"/><path d="M44.144 62.657L33.6 69.685a2.988 2.988 0 01-1.3.526c-.245-.457-.492-.877-.737-1.3-.88-1.581-1.757-3.057-2.53-4.497.198-.214.422-.403.667-.563l10.542-7.028a3.515 3.515 0 013.902 5.834zm10.154 14.266L40.243 83.95a2.079 2.079 0 01-.422.176c-.985-2.072-2.073-4.111-3.163-6.114a1.35 1.35 0 01.457-.316l14.056-7.028a3.512 3.512 0 113.127 6.254zM64.56 91.12l-17.57 7.028a3.29 3.29 0 01-1.3.247c-.284 0-.568-.036-.844-.106a43.086 43.086 0 00-1.616-5.904 3.38 3.38 0 011.16-.773l17.57-7.028a3.524 3.524 0 014.57 1.968 3.516 3.516 0 01-1.97 4.568zm2.144 25.548a3.508 3.508 0 01-3.444 2.81 4.07 4.07 0 01-.667-.069l-17.571-3.515a2.861 2.861 0 01-1.019-.421 28.687 28.687 0 001.51-6.501c.294-.042.592-.03.88.035l17.571 3.515a3.512 3.512 0 012.74 4.146zM52.12 135.467a3.452 3.452 0 01-2.917 1.582 3.298 3.298 0 01-1.933-.598l-10.541-7.028a4.863 4.863 0 01-.633-.526c1.405-1.827 2.776-3.691 4.005-5.622l.527.316 10.543 7.028a3.474 3.474 0 011.49 2.226 3.473 3.473 0 01-.541 2.622z" fill="#FF5364"/><path d="M108.943 105.985a38.956 38.956 0 01-15.674 31.099c-6.395 4.744-18.483 5.552-29.974 7.274 0 0 34.965-22.243 8.82-76.922 3.086.2 6.145.694 9.137 1.475 16.435 4.843 27.711 19.94 27.691 37.074z" fill="#FF5364"/><path d="M80.831 28.114a7.028 7.028 0 01-7.028 7.028 7.028 7.028 0 117.028-7.028z" fill="#2C2F38"/><path d="M73.802 24.599a3.513 3.513 0 01-6.711 1.441 7.107 7.107 0 014.638-4.638 3.513 3.513 0 012.073 3.197z" fill="#fff"/></svg>