<svg width="495" height="370" fill="none" xmlns="http://www.w3.org/2000/svg"><path d="M308.152 17.573c-2.482-4.598-3.038-9.402-1.67-14.413.127-.452.377-.82.751-1.106 3.881-2.973 7.547-2.719 10.999.761 6.147 6.176 11.821 13.751 17.022 22.726a1.8 1.8 0 00.728.713c13.369 7.35 22.649 18.203 27.842 32.56.144.404.406.706.788.904 71.085 36.639 118.455 104.957 127.64 183.753 1.158 9.989 3.162 17.838 2.673 26.197-.032.436-.263.655-.692.655H1.11c-.477 0-.72-.242-.727-.726l-.108-10.869c-.008-.396.187-.595.585-.595h98.044c.502 0 .752-.249.752-.749v-5.541c0-.492-.247-.738-.74-.738-17.965.04-34.188-5.101-48.67-15.423a1.162 1.162 0 00-1.026-.179 184.445 184.445 0 01-48.122 7.468.655.655 0 01-.668-.618L0 234.909a.712.712 0 01.693-.75 187.739 187.739 0 0039.902-5.577.461.461 0 00.34-.574.466.466 0 00-.125-.211c-7.205-7.004-12.418-16.41-12.024-26.459.81-20.87 27.556-46.129 46.63-25.746 19.504 20.846 9.472 44.963-14.851 55.214a.507.507 0 00-.316.439.51.51 0 00.256.477c12.072 7.095 25.142 10.56 39.21 10.393.51 0 .796-.25.86-.749 11.678-87.905 104.975-140.502 185.723-104.161 48.241 21.715 77.98 67.451 78.874 120.108.008.547.287.82.836.82h64.679c.413 0 .612-.206.596-.618-2.72-71.696-43.887-131.809-105.679-165.748a.522.522 0 00-.6.067.531.531 0 00-.128.17c-2.346 4.94-5.75 8.975-10.211 12.106-16.271 11.416-23.142-4.007-16.963-17.564.199-.444.063-.725-.406-.844-8.97-2.224-24.705-5.613-27.961-15.27-1.981-5.874 1.896-11.202 6.811-14.448.437-.293.433-.579-.012-.856-4.509-2.866-9.149-5.732-12.466-9.942-5.463-6.897-2.767-14.877 6.144-16.209 4.596-.69 9.273-.23 14.028 1.38a.909.909 0 001.209-.888.904.904 0 00-.207-.539c-4.091-5.054-3.113-12.486 2.696-15.602 6.275-3.366 14.697 1.248 20.077 4.745a.382.382 0 00.537-.5zm2.386 63.42c-4.351 4.7-6.947 10.238-7.79 16.612-.159 1.205.354 1.966 1.539 2.284 7.408 1.962 14.279-12.392 16.402-18.064.135-.373.386-.472.752-.297C390.724 114.8 435.78 180.67 439.013 257.527c.016.388.219.583.609.583l45.354.071a.89.89 0 00.844-.599.903.903 0 00.05-.364c-5.57-82.97-52.953-154.356-127.199-192.042a1.618 1.618 0 01-.775-.832c-6.024-14.056-11.738-23.843-25.636-31.311-1.527-.82-2.803-2.224-3.578-3.508-3.945-6.462-8.438-12.804-13.48-19.027a.648.648 0 00-.742-.178.64.64 0 00-.392.653c.74 6.03 7.17 15.448 10.248 21.001.262.476.182.892-.239 1.249l-4.127 3.425c-.454.372-.895.36-1.325-.036-7.217-6.636-16.211-14.342-25.826-16.981a1.914 1.914 0 00-1.806.427 1.93 1.93 0 00-.604 1.76c1.563 8.717 18.896 17.981 26.399 21.501.533.246.656.626.37 1.142l-3.006 5.292c-.239.42-.573.519-1.002.297-12.49-6.303-29.047-14.009-43.279-13.402a1.538 1.538 0 00-1.469 1.566c.006.266.08.525.217.753 6.119 10.25 28.594 17.112 39.449 21.084.541.19.684.543.43 1.058l-2.613 5.268a1.556 1.556 0 01-2.016.737c-6.179-2.675-24.466-10.488-27.604.013-.111.372-.071.725.12 1.058 4.211 7.61 25.731 10.726 33.842 11.94.652.094.756.384.311.868zm-6.013 177.021l4.509-.214c13.385.373 26.757.476 40.118.31 1.443-.012 3.507.487 5.475-.107.39-.119.577-.381.561-.785-1.71-40.361-17.834-72.358-48.372-95.991-48.48-37.519-114.865-32.489-159.062 8.716-1.034.96-1.376 1.899-1.026 2.819 8.804 22.749 4.283 51.848-14.959 67.438-5.137 4.163-12.092 7.235-20.864 9.217-.437.095-.676.368-.716.82l-.513 6.945c-.039.571.227.856.8.856l194.049-.024zM68.951 181.847c-13.277-13.675-29.954 6.101-30.992 18.706-.775 9.407 5.153 18.23 12.478 23.712a2.026 2.026 0 001.897.274c8.123-2.914 18.68-8.943 22.581-16.744 4.187-8.348.18-19.621-5.964-25.948zm43.099 58.104c25.862-7.54 35.406-36.508 27.258-60.589-.159-.476-.397-.516-.716-.119-13.241 16.45-22.152 35.315-26.733 56.593-.294 1.372-.473 2.553-.536 3.544-.032.531.21.721.727.571z" fill="#fff"/><path d="M310.227 80.124c-8.111-1.213-29.631-4.329-33.842-11.94a1.299 1.299 0 01-.12-1.058c3.138-10.5 21.425-2.687 27.604-.012a1.556 1.556 0 002.016-.737l2.613-5.268c.254-.515.111-.868-.43-1.059-10.855-3.971-33.329-10.833-39.449-21.084a1.536 1.536 0 01-.034-1.513 1.54 1.54 0 011.287-.806c14.231-.606 30.788 7.1 43.278 13.403.429.222.763.122 1.002-.298l3.006-5.292c.286-.515.163-.895-.37-1.141-7.503-3.52-24.836-12.784-26.399-21.5a1.93 1.93 0 011.452-2.208c.316-.075.646-.068.958.02 9.615 2.64 18.609 10.345 25.826 16.98.43.397.871.409 1.325.036l4.127-3.425c.422-.356.501-.772.239-1.248-3.078-5.554-9.508-14.972-10.247-21.001a.64.64 0 01.791-.686.648.648 0 01.342.21c5.042 6.224 9.535 12.566 13.48 19.027.775 1.284 2.051 2.688 3.578 3.508 13.898 7.468 19.612 17.255 25.636 31.312.159.372.417.65.775.832C432.918 102.86 480.3 174.248 485.87 257.217a.911.911 0 01-.537.89.899.899 0 01-.357.074l-45.354-.072c-.39 0-.593-.194-.609-.582-3.233-76.857-48.288-142.726-117.572-176-.366-.174-.617-.075-.752.297-2.123 5.673-8.994 20.026-16.402 18.064-1.185-.317-1.698-1.078-1.539-2.283.843-6.374 3.439-11.912 7.79-16.613.445-.484.342-.773-.311-.868zM309.035 257.8c-.68-10.167-2.601-18.432-10.617-25.318-.358-.301-.764-.384-1.217-.249l-.799.249a.579.579 0 00-.377.38.545.545 0 00.114.512c5.909 6.898 8.705 15.111 8.387 24.64l-194.05.024c-.573 0-.839-.285-.799-.856l.513-6.945c.039-.452.278-.725.715-.821 8.772-1.982 15.727-5.054 20.864-9.216 19.242-15.59 23.763-44.689 14.959-67.438-.35-.92-.008-1.859 1.026-2.819 44.197-41.205 110.582-46.235 159.062-8.716 30.538 23.633 46.662 55.63 48.372 95.991.016.404-.171.665-.561.784-1.968.595-4.032.096-5.475.107a993.97 993.97 0 01-40.117-.309zm-46.333-54.048l-3.268-3.401c-.549-.571-.517-1.106.095-1.606 2.895-2.33 3.603-5.248 2.124-8.752a1.27 1.27 0 00-1.269-.773 1.261 1.261 0 00-1.129.963 15.65 15.65 0 01-3.448 6.648c-.262.301-.568.356-.918.166a17.758 17.758 0 00-6.812-2.152.862.862 0 00-.937.614.86.86 0 00.472 1.015c13.468 6.481 22.797 25.591 4.092 33.452-.398.166-.573.46-.525.88l.071.713c.056.555.358.769.907.642 9.305-2.1 14.053-7.813 14.243-17.136.048-2.033-.811-4.424-1.145-6.612-.055-.372.072-.67.382-.892 3.253-2.338 4.135-5.398 2.648-9.18a1.181 1.181 0 00-2.183-.048l-2.29 5.269c-.271.618-.64.681-1.11.19z" fill="#E9DFD3"/><path d="M139.309 179.362c8.147 24.081-1.396 53.049-27.258 60.589-.517.15-.76-.04-.728-.571.064-.991.243-2.172.537-3.544 4.581-21.278 13.492-40.143 26.733-56.593.318-.396.557-.357.716.119z" fill="#615C51"/><path d="M263.81 203.562l2.29-5.268a1.177 1.177 0 011.108-.705 1.184 1.184 0 011.075.752c1.487 3.782.604 6.842-2.648 9.181-.31.222-.437.519-.382.892.334 2.188 1.193 4.578 1.146 6.611-.191 9.324-4.939 15.036-14.242 17.137-.549.126-.851-.088-.907-.643l-.071-.713c-.048-.42.127-.714.525-.88 18.702-7.861 9.375-26.971-4.092-33.452a.856.856 0 01.466-1.629c2.433.262 4.703.979 6.81 2.152.35.191.656.135.919-.166a15.637 15.637 0 003.447-6.648 1.262 1.262 0 011.889-.782c.228.139.406.346.508.592 1.479 3.504.772 6.422-2.123 8.753-.612.499-.644 1.034-.095 1.605l3.268 3.401c.469.492.839.428 1.109-.19zm45.223 54.238l-4.509.214c.318-9.529-2.477-17.743-8.385-24.64a.535.535 0 01-.114-.512.568.568 0 01.377-.38l.799-.25c.453-.134.859-.051 1.216.25 8.016 6.886 9.936 15.15 10.616 25.318z" fill="#201812"/><path d="M161.842 334.872c-.39-3.203-.986-3.243-1.789-.119l-8.768 33.737a1.27 1.27 0 01-.891.906 1.276 1.276 0 01-1.233-.311c-.54-.531-1.006-1.32-1.395-2.367a240.21 240.21 0 01-9.388-32.12.693.693 0 00-1.336-.035l-9.401 32.75c-.111.39-.341.735-.66.989a1.968 1.968 0 01-1.117.426c-2.37.135-4.668-.21-6.895-1.035-.358-.134-.537-.392-.537-.773a73.232 73.232 0 01.871-11.582 382.157 382.157 0 019.627-44.357c1.757-6.295 4.183-12.102 7.277-17.421a.958.958 0 01.942-.467.97.97 0 01.811.669c4.247 13.901 7.826 26.935 11.333 41.55.222.92.501.939.835.059 2.183-5.66 15.496-39.266 19.873-40.242.486-.111.756.08.812.571a1357.989 1357.989 0 016.358 68.259 16.19 16.19 0 01-.382 4.793c-.111.499-.425.733-.942.701l-9.281-.57c-.422-.024-.66-.246-.716-.666l-4.008-33.345zm306.182-4.412c5.249-8.657 8.768-20.68 11.548-29.587 2.123-6.79 7.968-8.895 14.506-5.851.453.214.612.559.477 1.035-5.309 18.23-13.051 36.52-20.053 52.74-5.356 12.392-11.118 23.225-26.852 20.882-.334-.055-.489-.253-.466-.594l.657-9.49c.031-.404.234-.694.608-.868 6.37-3.033 14.732-2.688 10.915-13.224a352.987 352.987 0 00-16.569-38.446 56.854 56.854 0 01-4.307-11.618.81.81 0 01.429-.924.83.83 0 01.359-.087l9.101-.036c.35 0 .625.147.823.44 2.418 3.504 3.818 5.847 4.2 7.028a119.818 119.818 0 0013.742 28.612c.302.46.596.456.882-.012zm-218.086-23.618l-20.876 1.641c-.318.024-.477.198-.477.523l.585 57.902a1.75 1.75 0 01-.508 1.255 1.782 1.782 0 01-1.258.529l-8.958.047c-.478.008-.728-.226-.752-.701-1.443-24.069.167-48.412.799-72.374a1.123 1.123 0 01.349-.792 1.123 1.123 0 01.808-.314l41.454.737c.342 0 .509.171.501.512a1278.165 1278.165 0 00-.788 71.993c.008.46-.218.693-.679.701l-8.363.155c-.406.007-.8-.141-1.101-.415a1.61 1.61 0 01-.521-1.06c-1.634-19.811-.37-40.17.119-60.03a.296.296 0 00-.334-.309zM95.982 346.157l-16.737.69a2.276 2.276 0 00-1.292.466 2.303 2.303 0 00-.795 1.128l-6.12 19.276a1.602 1.602 0 01-.673.869c-.32.202-.703.286-1.08.237l-8.35-1.13c-.86-.111-1.158-.582-.896-1.415 7.623-24.39 15.89-48.304 28.725-70.602.494-.856.999-.86 1.516-.012.46.762.93 1.772 1.407 3.033a965.876 965.876 0 0122.725 66.939c.382 1.269-.092 1.907-1.42 1.915l-9.078.035c-.548.008-.902-.249-1.061-.773l-6.108-20.121c-.12-.372-.374-.551-.763-.535zm-14.267-8.895a.453.453 0 00.429.63l11.082-.416a.453.453 0 00.43-.547l-3.544-17.54a.452.452 0 00-.858-.084l-7.54 17.957zm-63.69 1.344c4.247 13.616 20.948 11.809 32.066 12.76a1.895 1.895 0 011.741 1.76l.883 12.26c.048.643-.25 1.011-.895 1.106-2.035.286-5.566.646-10.593 1.082-16.617 1.439-33.95-5.03-38.805-22.035-10.652-37.293 16.474-54.465 50.15-49.316a1.08 1.08 0 01.919 1.094l-.335 10.275c-.023.61-.342.896-.954.856-11.034-.725-20.864-3.044-30.013 3.544-6.728 4.84-6.394 19.467-4.164 26.614zm280.429-31.002a417.044 417.044 0 01-5.75 43.298c-.286 1.562-1.284 3.912-2.994 7.052-4.414 8.134-11.762 11.939-21.222 10.893-.43-.048-.644-.29-.644-.726l.012-9.549c0-.579.29-.852.871-.82 18.287.939 15.889-25.485 17.487-38.161a187.055 187.055 0 001.48-23.261.92.92 0 01.918-.916l29.93-.095c.573 0 .863.286.871.857l1.372 71.041c.008.476-.231.71-.716.702l-9.973-.131c-.429 0-.652-.214-.668-.642a855.558 855.558 0 01-.191-38.304c.132-7.016-.632-14.091-.894-21.155-.016-.531-.29-.797-.823-.797h-8.291c-.477 0-.736.238-.775.714zm121.998 24.128c5.928 2.259 8.624 6.445 9.638 12.748 3.495 21.524-16.235 26.685-33.139 25.151-.389-.032-.6-.242-.632-.63-1.694-19.872-1.682-48.317.609-71.922a1.768 1.768 0 011.646-1.606c7.408-.511 16.569-.035 22.188 4.496 9.591 7.753 6.262 22.784-.43 31.358a.258.258 0 00-.049.111.28.28 0 00.006.122.271.271 0 00.163.172zm-14.303-26.008l-.788 20.43a.274.274 0 00.159.26.266.266 0 00.104.026l.405.024a11.58 11.58 0 004.263-.635 11.1 11.1 0 003.676-2.137 10.49 10.49 0 002.529-3.315c.605-1.252.943-2.607.996-3.986a10.04 10.04 0 00-.687-4.049 10.459 10.459 0 00-2.266-3.497 11.117 11.117 0 00-3.499-2.412 11.583 11.583 0 00-4.2-.959l-.406-.011a.278.278 0 00-.261.157.27.27 0 00-.025.104zm-.489 34.094l-.979 19.194c-.019.433.134.856.427 1.177a1.65 1.65 0 001.136.535l2.35.119c2.985.15 5.906-.857 8.121-2.8 2.215-1.942 3.542-4.661 3.689-7.558l.024-.618c.145-2.896-.901-5.733-2.907-7.887-2.006-2.154-4.81-3.449-7.794-3.601l-2.338-.119a1.659 1.659 0 00-1.189.421 1.622 1.622 0 00-.54 1.137zm-61.709-12.712c13.194 1.487 24.371 6.136 22.832 22-1.706 17.493-20.565 20.287-34.582 18.087a1.367 1.367 0 01-1.145-1.343l.56-68.771c.008-.634.33-.947.967-.939l10.354.154a1.83 1.83 0 011.682 1.198c.084.229.12.473.107.717l-1.395 28.148c-.024.444.183.694.62.749zm-1.598 11.607l-.812 18.527a.813.813 0 00.776.844l4.27.191a11.462 11.462 0 003.903-.501 10.352 10.352 0 003.367-1.767 8.853 8.853 0 002.32-2.764 7.849 7.849 0 00.92-3.34l.107-2.521c.101-2.338-.867-4.626-2.693-6.361-1.825-1.735-4.358-2.775-7.041-2.891l-4.27-.19a.819.819 0 00-.585.211.813.813 0 00-.262.562zm37.229-42.502a2.398 2.398 0 012.409 2.378l.453 64.454c.005.695-.043 1.384-.141 2.026a8.602 8.602 0 01-.431 1.72c-.186.492-.408.884-.654 1.151-.245.267-.51.405-.778.407l-6.775.047c-.54.003-1.063-.551-1.452-1.541-.389-.991-.613-2.335-.623-3.738l-.453-64.454a2.38 2.38 0 01.694-1.694 2.392 2.392 0 011.691-.708l6.06-.048z" fill="#fff"/><path d="M286.12 257.962c0-1.479-.59-2.898-1.64-3.944a5.607 5.607 0 00-3.958-1.633 5.609 5.609 0 00-3.959 1.633 5.57 5.57 0 00-1.639 3.944h11.196z" fill="#CAC0B4"/></svg>