<svg width="75" height="75" fill="none" xmlns="http://www.w3.org/2000/svg"><path d="M61.844 39.054L59.365 26.91A10.04 10.04 0 0049.591 19H25.24a10.04 10.04 0 00-9.774 7.91l-3.218 15.058a.5.5 0 000 .06 12.048 12.048 0 0012.16 14.474h33.008a4.583 4.583 0 004.562-5.031 4.653 4.653 0 00-3.524-3.985 8.302 8.302 0 003.39-8.41c-.002-.008 0-.014 0-.022zM17.096 27.257a8.364 8.364 0 018.144-6.59h24.35a8.364 8.364 0 018.144 6.583l1.472 7.21a8.289 8.289 0 00-5.54-2.126H24.081a11.978 11.978 0 00-8.75 3.758c-.058.061-.107.128-.167.19l1.932-9.025zm36.57 20.078H24.081a2.919 2.919 0 01-2.902-3.21 3.035 3.035 0 013.07-2.624h29.417a.833.833 0 100-1.667H24.248a4.715 4.715 0 00-4.729 4.129A4.587 4.587 0 0024.082 49h33.174a3.027 3.027 0 013.064 2.628 2.895 2.895 0 01-.744 2.25 2.926 2.926 0 01-2.159.956H24.408a10.577 10.577 0 01-10.73-9.891A10.427 10.427 0 0124.08 34h29.585a6.667 6.667 0 010 13.334z" fill="#fff" stroke="#fff"/></svg>