<svg width="75" height="75" fill="none" xmlns="http://www.w3.org/2000/svg"><path d="M46.756 13.244a.832.832 0 00-.59-.244h-25A4.17 4.17 0 0017 17.167v41.666A4.17 4.17 0 0021.167 63h31.666A4.17 4.17 0 0057 58.833v-35a.833.833 0 00-.244-.589l-10-10zM47 15.845L54.155 23H49.5a2.503 2.503 0 01-2.5-2.5v-4.655zm8.333 42.988a2.502 2.502 0 01-2.5 2.5H21.167a2.502 2.502 0 01-2.5-2.5V17.167a2.502 2.502 0 012.5-2.5h24.166V20.5a4.172 4.172 0 004.167 4.167h5.833v34.166z" fill="#fff"/><path d="M34.5 32.167a.833.833 0 00.833.833h15.834a.833.833 0 000-1.667H35.333a.833.833 0 00-.833.834zm-11.667 4.166H39.5a.834.834 0 000-1.666H22.833a.834.834 0 000 1.666zM51.167 38h-15a.833.833 0 000 1.667h15a.833.833 0 000-1.667zm-28.334 5h20a.833.833 0 000-1.667h-20a.833.833 0 000 1.667zm2.5-11.667a.833.833 0 000 1.667H32a.833.833 0 000-1.667h-6.667zm25.834 3.334h-8.334a.834.834 0 000 1.666h8.334a.834.834 0 000-1.666zm-28.334 5h10a.833.833 0 000-1.667h-10a.833.833 0 000 1.667zm28.334 1.666h-5a.833.833 0 000 1.667h5a.833.833 0 000-1.667zm-28.334 5H29.5a.834.834 0 000-1.666h-6.667a.834.834 0 000 1.666zm10-1.666a.834.834 0 000 1.666h8.334a.834.834 0 000-1.666h-8.334zm-10-19.167H24.5v1.667a.833.833 0 00.833.833h3.334a.833.833 0 00.833-.833V25.5h1.667a.833.833 0 00.833-.833v-3.334a.833.833 0 00-.833-.833H29.5v-1.667a.833.833 0 00-.833-.833h-3.334a.833.833 0 00-.833.833V20.5h-1.667a.833.833 0 00-.833.833v3.334a.833.833 0 00.833.833zm.834-3.333h1.666a.833.833 0 00.834-.834v-1.666h1.666v1.666a.833.833 0 00.834.834h1.666v1.666h-1.666a.833.833 0 00-.834.834v1.666h-1.666v-1.666a.833.833 0 00-.834-.834h-1.666v-1.666zM37.833 48h-15a.833.833 0 000 1.667h15a.833.833 0 000-1.667zm13.334-3.333H44.5a.834.834 0 000 1.666h6.667a.834.834 0 000-1.666zM44.5 56.333h-3.333a.833.833 0 000 1.667H44.5a.833.833 0 000-1.667zm6.667 0h-3.334a.833.833 0 000 1.667h3.334a.833.833 0 000-1.667zm.745-5.372a.834.834 0 00-1.118-.373L45.97 53h-1.788l-.603-1.206a.832.832 0 00-1.335-.217l-1.667 1.667a.833.833 0 101.179 1.179l.85-.85.315.633a.832.832 0 00.746.46h2.5c.13 0 .257-.03.372-.087l5-2.5a.833.833 0 00.373-1.118z" fill="#fff"/></svg>