<svg width="75" height="75" fill="none" xmlns="http://www.w3.org/2000/svg"><path d="M61.113 23.66h-1.056v-2.763A.898.898 0 0059.16 20H14.848a.895.895 0 00-.896.897v2.754h-1.056a.895.895 0 00-.896.897v7.724a.898.898 0 00.896.897h1.065c.251 12.745 10.77 22.873 23.493 22.622 12.37-.244 22.34-10.23 22.585-22.622h1.065a.895.895 0 00.896-.897v-7.715a.898.898 0 00-.887-.897zm-47.322 7.724v-5.93h10.165a2.962 2.962 0 012.96 2.965 2.962 2.962 0 01-2.96 2.965H13.79zm15.762 21.34v.01a21.348 21.348 0 01-8.128-5.477 21.395 21.395 0 01-4.83-8.535c5.076-2.27 11.028.01 13.295 5.095a10.098 10.098 0 01-.337 8.908zm14.903 0l-.01.01c-2.668-4.874-.887-10.992 3.979-13.665a10.035 10.035 0 018.99-.338 21.393 21.393 0 01-4.835 8.525 21.348 21.348 0 01-8.124 5.469zm13.398-15.771c-6.028-2.517-12.956.327-15.484 6.362a11.885 11.885 0 00.366 9.975 21.112 21.112 0 01-11.454 0c2.969-5.841.648-12.987-5.183-15.96a11.832 11.832 0 00-9.944-.375 21.395 21.395 0 01-.403-3.777h8.204a4.755 4.755 0 004.751-4.759 4.755 4.755 0 00-4.751-4.759h-8.213v-1.866h42.522v1.857h-8.212a4.755 4.755 0 00-4.751 4.759 4.755 4.755 0 004.751 4.759h8.204a21.25 21.25 0 01-.403 3.784zm-7.801-5.56a2.962 2.962 0 01-2.96-2.965 2.962 2.962 0 012.96-2.965h10.165l.027 5.93H50.053z" fill="#fff" stroke="#fff"/></svg>