<svg width="75" height="75" fill="none" xmlns="http://www.w3.org/2000/svg"><path d="M60.263 14.768c-3.007-3.023-8.13-2.02-9.782 1.871-2.298-1.33-5.3-1.017-7.265.942l-1.408 1.402-2.295-2.286a2.63 2.63 0 00-3.706 0l-3.356 3.344a2.602 2.602 0 000 3.692l1.36 1.355c-8.242 4.072-12.027 8.528-19.488 15.961a7.87 7.87 0 000 11.166l8.503 8.47a7.941 7.941 0 0011.207 0c7.444-7.416 11.932-11.2 16.02-19.415l1.173 1.168a2.63 2.63 0 003.705 0l3.357-3.344a2.607 2.607 0 000-3.692l-2.295-2.286 1.408-1.403a5.976 5.976 0 00.943-7.241c3.906-1.653 4.9-6.708 1.919-9.704zm-28.31 43.846a4.995 4.995 0 01-7.048 0l-8.503-8.471a4.95 4.95 0 010-7.022c7.47-7.443 11.257-11.942 19.611-15.839l11.839 11.794c-3.92 8.337-8.449 12.116-15.898 19.538zm21.125-18.473L34.757 21.887l2.903-2.893 18.322 18.254-2.904 2.893zm3.361-18.156c-1.611.23-2.268 2.194-1.118 3.34a3.048 3.048 0 010 4.317l-1.407 1.402-10.027-9.989 1.408-1.403a3.076 3.076 0 014.333 0c1.151 1.147 3.12.49 3.352-1.117.356-2.46 3.41-3.499 5.194-1.705 1.713 1.722.787 4.797-1.735 5.155z" fill="#fff"/><path d="M31.01 40.935a1.474 1.474 0 00-2.078 0 1.46 1.46 0 000 2.072l3.136 3.125a1.464 1.464 0 001.04.429c1.298 0 1.968-1.575 1.04-2.5l-3.137-3.126zm2.766-4.826a1.461 1.461 0 000 2.071l3.136 3.125a1.467 1.467 0 001.04.429c1.298 0 1.969-1.575 1.04-2.5l-3.136-3.125a1.474 1.474 0 00-2.08 0zm-7.61 9.653a1.474 1.474 0 00-2.08 0 1.46 1.46 0 000 2.072l3.137 3.124a1.468 1.468 0 001.04.43c1.297 0 1.968-1.576 1.04-2.501l-3.137-3.125z" fill="#fff"/></svg>