<svg width="515" height="471" fill="none" xmlns="http://www.w3.org/2000/svg"><path d="M92.883 160.715c1.743 6.1-10.893 11.982-17.429 14.161 5.81 13.798 26.362 48.258 62.092 75.709 35.73 27.451 84.242 35.766 104.031 36.492v43.029c-20.334-1.089-70.48-9.804-108.388-35.948-37.91-26.144-64.816-67.175-73.53-84.423-1.634-.545-6.972-2.832-15.251-7.626-8.279-4.793-13.617-13.979-15.25-17.974-8.17-4.357-23.857-13.725-21.243-16.34 2.615-2.614 15.614 5.81 21.787 10.349l4.357-4.902c-8.714-8.533-23.965-26.035-15.25-27.778 8.714-1.743 17.792 16.703 21.242 26.144l5.991-3.268c-8.17-14.887-22.005-44.336-11.983-43.028 10.022 1.307 18.7 25.599 21.787 37.582l6.536-2.724c-3.086-8.714-7.407-26.471 0-27.778 7.408-1.307 11.075 21.242 11.983 32.68 5.446-3.994 16.775-10.457 18.518-4.357z" fill="#E9DFD3"/><path fill-rule="evenodd" clip-rule="evenodd" d="M73.39 156.52c-1.679-11.464-5.19-25.155-11.007-24.128-4.575.807-4.677 7.887-3.358 15.237.816 4.552 2.177 9.208 3.358 12.541l-6.536 2.724a128.818 128.818 0 00-2.154-7.364 138.003 138.003 0 00-2.046-5.863c-4.241-11.314-10.586-23.442-17.587-24.355-6.211-.811-3.26 10.192 1.828 22.22 2.945 6.962 6.605 14.267 9.619 19.825.18.334.36.662.536.983l-5.992 3.268a82.464 82.464 0 00-1.252-3.206 94.667 94.667 0 00-1.705-3.867c-2.102-4.492-4.814-9.365-7.82-13.076-3.276-4.044-6.9-6.708-10.465-5.995-7.42 1.484 2.537 14.397 11.038 23.467a146.234 146.234 0 004.213 4.311l-4.358 4.902-.257-.189a125.129 125.129 0 00-4.553-3.164c-3.092-2.051-6.61-4.191-9.672-5.655-3.394-1.623-6.228-2.416-7.304-1.341-1.11 1.11 1.076 3.435 4.584 6.077 3.902 2.94 9.442 6.272 13.903 8.76a166.4 166.4 0 002.755 1.503c.416 1.017 1.071 2.37 1.954 3.901 2.587 4.485 7.125 10.5 13.297 14.073 8.279 4.793 13.616 7.081 15.25 7.626 8.715 17.247 35.621 58.279 73.53 84.423 33.792 23.305 77.308 32.76 100.763 35.311 2.858.31 5.418.519 7.626.637v-43.029c-19.79-.726-68.301-9.041-104.032-36.492-30.732-23.612-50.235-52.407-58.787-68.781-1.39-2.663-2.492-4.998-3.304-6.928 1.98-.66 4.52-1.66 7.05-2.903 5.823-2.86 11.594-7.006 10.379-11.258-1.132-3.961-6.305-2.626-11.284-.108-2.69 1.36-5.325 3.064-7.235 4.465a132.82 132.82 0 00-.975-8.552zm7.12-3.822c-.606-3.629-1.386-7.38-2.362-10.824-1.049-3.7-2.487-7.655-4.542-10.752-1.878-2.829-6.04-7.388-12.549-6.239-4.905.866-7.64 4.229-8.992 7.459-1.504-2.614-3.177-5.108-5.018-7.256-2.71-3.159-6.703-6.645-12-7.336-3.1-.404-6.97.311-9.65 3.674-2.192 2.753-2.478 6.002-2.467 8.007.015 2.759.647 5.895 1.544 9.028-2.139-.707-4.552-.994-7.16-.472-2.518.503-5.419 1.871-7.236 4.878-1.702 2.818-1.64 5.762-1.307 7.742.568 3.368 2.398 6.762 4.2 9.548-1.083-.275-2.38-.5-3.757-.476-1.666.03-4.425.46-6.69 2.724a8.575 8.575 0 00-2.456 5.011c-.226 1.797.151 3.318.542 4.352.728 1.924 1.977 3.398 2.807 4.285 1.8 1.922 4.316 3.846 6.719 5.519 4.134 2.878 9.168 5.852 13.173 8.066 2.767 5.434 8.555 14.022 17.279 19.073 5.919 3.426 10.556 5.716 13.612 7.05 10.254 19.164 37.146 58.804 74.66 84.676 39.492 27.236 91.194 36.154 112.31 37.285l8.033.431v-58.424l-7.346-.27c-18.908-.694-65.652-8.788-99.665-34.919-29.447-22.624-48.166-50.169-56.376-65.696 1.93-.946 3.886-2.03 5.688-3.231 2.224-1.484 4.69-3.455 6.494-5.954 1.86-2.578 3.515-6.497 2.218-11.037-.582-2.037-1.72-4.013-3.572-5.531-1.813-1.486-3.837-2.145-5.595-2.384-3.242-.442-6.404.426-8.635 1.234-.633.23-1.27.485-1.904.759zm-66.09 12.786a.402.402 0 01-.041-.054.42.42 0 01.042.054z" fill="#fff"/><path d="M422.117 160.715c-1.743 6.1 10.893 11.982 17.429 14.161-5.81 13.798-26.362 48.258-62.092 75.709-35.73 27.451-84.242 35.766-104.031 36.492v43.029c20.334-1.089 70.48-9.804 108.388-35.948 37.909-26.144 64.816-67.175 73.53-84.423 1.634-.545 6.972-2.832 15.251-7.626 8.279-4.793 13.617-13.979 15.251-17.974 8.17-4.357 23.856-13.725 21.242-16.34-2.615-2.614-15.614 5.81-21.787 10.349l-4.357-4.902c8.714-8.533 23.965-26.035 15.25-27.778-8.714-1.743-17.792 16.703-21.242 26.144l-5.991-3.268c8.17-14.887 22.004-44.336 11.983-43.028-10.022 1.307-18.701 25.599-21.787 37.582l-6.536-2.724c3.086-8.714 7.407-26.471 0-27.778-7.407-1.307-11.075 21.242-11.983 32.68-5.446-3.994-16.775-10.457-18.518-4.357z" fill="#E9DFD3"/><path fill-rule="evenodd" clip-rule="evenodd" d="M441.61 156.52c1.679-11.464 5.189-25.155 11.007-24.128 4.575.807 4.677 7.887 3.358 15.237-.816 4.552-2.177 9.208-3.358 12.541l6.536 2.724.098-.375a128.41 128.41 0 012.056-6.989 137.729 137.729 0 012.046-5.863c4.241-11.314 10.586-23.442 17.587-24.355 6.211-.811 3.259 10.192-1.828 22.22-2.945 6.962-6.605 14.267-9.618 19.825-.182.334-.36.662-.537.983l5.992 3.268c.359-.982.778-2.061 1.252-3.206a98.104 98.104 0 011.705-3.867c2.102-4.492 4.814-9.365 7.821-13.076 3.275-4.044 6.9-6.708 10.464-5.995 7.421 1.484-2.537 14.397-11.038 23.467a142.555 142.555 0 01-4.213 4.311l4.357 4.902.258-.189a124.79 124.79 0 014.553-3.164c3.092-2.051 6.61-4.191 9.672-5.655 3.394-1.623 6.228-2.416 7.304-1.341 1.109 1.11-1.076 3.435-4.584 6.077-3.902 2.94-9.442 6.272-13.903 8.76a166.4 166.4 0 01-2.755 1.503c-.416 1.017-1.071 2.37-1.954 3.901-2.587 4.485-7.124 10.5-13.297 14.073-8.279 4.793-13.616 7.081-15.25 7.626-8.715 17.247-35.621 58.279-73.53 84.423-33.792 23.305-77.308 32.76-100.763 35.311-2.858.31-5.418.519-7.626.637v-43.029c19.79-.726 68.301-9.041 104.032-36.492 30.732-23.612 50.235-52.407 58.787-68.781 1.391-2.663 2.492-4.998 3.304-6.928a58.61 58.61 0 01-7.051-2.903c-5.822-2.86-11.593-7.006-10.378-11.258 1.132-3.961 6.305-2.626 11.285-.108 2.69 1.36 5.323 3.064 7.234 4.465.195-2.454.516-5.42.975-8.552zm-7.12-3.822c.606-3.629 1.386-7.38 2.362-10.824 1.049-3.7 2.487-7.655 4.542-10.752 1.878-2.829 6.04-7.388 12.549-6.239 4.905.866 7.641 4.229 8.993 7.459 1.503-2.614 3.176-5.108 5.018-7.256 2.709-3.159 6.702-6.645 12-7.336 3.099-.404 6.969.311 9.648 3.674 2.193 2.753 2.479 6.002 2.468 8.007-.015 2.759-.647 5.895-1.544 9.028 2.139-.707 4.551-.994 7.16-.472 2.518.503 5.419 1.871 7.236 4.878 1.702 2.818 1.641 5.762 1.307 7.742-.568 3.368-2.399 6.762-4.201 9.548 1.084-.275 2.381-.5 3.758-.476 1.666.03 4.425.46 6.69 2.724a8.574 8.574 0 012.456 5.011c.226 1.797-.151 3.318-.542 4.352-.728 1.924-1.977 3.398-2.807 4.285-1.801 1.922-4.316 3.846-6.719 5.519-4.134 2.878-9.168 5.852-13.173 8.066-2.767 5.434-8.555 14.022-17.279 19.073-5.919 3.426-10.556 5.716-13.612 7.05-10.254 19.164-37.146 58.804-74.66 84.676-39.492 27.236-91.194 36.154-112.31 37.285l-8.033.431v-58.424l7.346-.27c18.908-.694 65.652-8.788 99.665-34.919 29.447-22.624 48.166-50.169 56.376-65.696-1.931-.946-3.886-2.03-5.688-3.231-2.224-1.484-4.69-3.455-6.494-5.954-1.861-2.578-3.515-6.497-2.218-11.037.582-2.037 1.719-4.013 3.572-5.531 1.813-1.486 3.837-2.145 5.595-2.384 3.242-.442 6.404.426 8.634 1.234.634.23 1.271.485 1.905.759zm66.089 12.786z" fill="#fff"/><path d="M345.319 395.12c0 41.682-39.017 75.471-87.147 75.471s-87.147-33.789-87.147-75.471c0-41.681 5.992-167.45 87.147-167.45s87.147 125.769 87.147 167.45z" fill="#E9DFD3"/><path fill-rule="evenodd" clip-rule="evenodd" d="M171.389 377.196c2.097-51.689 15.205-149.526 86.783-149.526s84.686 97.837 86.782 149.526h.365c0 1.932-.056 3.861-.168 5.784.125 4.556.168 8.644.168 12.14 0 41.682-39.017 75.471-87.147 75.471s-87.147-33.789-87.147-75.471c0-3.496.042-7.584.168-12.14a99.482 99.482 0 01-.168-5.784h.364zm13.082 0h147.402c-.907-21.849-3.816-51.723-12.298-78.429-5.588-17.591-13.312-32.866-23.591-43.546-9.946-10.336-22.062-16.23-37.812-16.23-15.75 0-27.866 5.894-37.812 16.23-10.28 10.68-18.003 25.955-23.591 43.546-8.482 26.706-11.391 56.58-12.298 78.429z" fill="#fff"/><path d="M395.427 137.256c0 75.804-61.451 137.256-137.255 137.256-75.805 0-137.256-61.452-137.256-137.256S182.367 0 258.172 0c75.804 0 137.255 61.452 137.255 137.256z" fill="#E9DFD3"/><path fill-rule="evenodd" clip-rule="evenodd" d="M258.172 265.797c70.991 0 128.541-57.55 128.541-128.541 0-70.992-57.55-128.541-128.541-128.541-70.992 0-128.542 57.55-128.542 128.541s57.55 128.541 128.542 128.541zm0 8.715c75.804 0 137.255-61.452 137.255-137.256S333.976 0 258.172 0c-75.805 0-137.256 61.452-137.256 137.256s61.451 137.256 137.256 137.256z" fill="#fff"/><path d="M190.8 154.433l-3.283-2.149a.632.632 0 00-.754.008c-2.074 1.403-.612 3.477-.425 5.268-1.318-1.482-1.716-3.109-1.194-4.88.07-.244.209-.435.418-.575 2.276-1.567 3.85.485 5.238 2.328z" fill="#5F5C50"/><path d="M328.144 156.411l.007-2.918c0-.259-.084-.487-.254-.686-.671-.791-1.584-1.082-2.738-.873 3.149-2.127 5.305 2.261 2.985 4.477z" fill="#AAA"/><path d="M186.338 157.56c-.186-1.791-1.649-3.865.426-5.268a.63.63 0 01.753-.008l3.283 2.149 2.47 2.037c.279.747.838 1.048 1.679.903 1.383.597 2.162.132 2.336-1.395 3.91-4.164 9.476-5.619 14.588-2.604 7.034 4.144 9.912 10.765 8.633 19.863-.975 6.925-4.365 11.116-10.17 12.573-12.38 3.12-18.498-9.775-17.446-19.848.119-1.114-.06-2.152-.538-3.112a.724.724 0 00-.552-.418c-2.751-.512-4.571-2.136-5.462-4.872zm13.461.216c-1.83.567-2.765 1.863-2.805 3.888-.015.93.413 1.49 1.283 1.679 1.754 3.059 6.955 4.022 8.268 0 .766-1.657.704-3.274-.187-4.85-1.975-1.975-4.161-2.214-6.559-.717zm14.245 22.483l-.254-2.903a1.015 1.015 0 00-1.096-.925l-.933.082c-.344.03-.678.121-.985.269a2.658 2.658 0 00-.802.592 2.394 2.394 0 00-.499.826 2.227 2.227 0 00-.117.932l.015.149c.028.314.122.618.279.896.157.278.372.524.634.725.262.2.565.35.893.442a2.84 2.84 0 001.015.094l.925-.082a1.016 1.016 0 00.925-1.097zm111.115-28.326c1.154-.209 2.067.082 2.738.873.169.199.254.428.254.687l-.008 2.917c-1.064 2.627-2.788 4.644-5.171 6.052-1.417.843-2.059 2.157-1.947 3.671.214 2.94.027 5.714-.56 8.32-2.32 10.305-15.58 16.133-23.229 7.492-6.506-7.35-5.701-21.214 2.082-27.43 4.649-3.708 11.88-4.313 16.192.97 3.246 3.977 7.41-1.574 9.649-3.552zm-26.52 6.932c-1.184 1.314-1.495 2.868-.933 4.664 2.023 4.649 9.484 3.701 8.582-1.679.502-1.044.335-1.977-.5-2.798-1.314-2.739-5.395-1.724-7.149-.187zm12.088 22.973c.265.091.549.119.835.084a2.15 2.15 0 00.832-.292 2.58 2.58 0 00.704-.623 2.949 2.949 0 00.629-1.825 2.6 2.6 0 00-.171-.924 2.152 2.152 0 00-.477-.743 1.855 1.855 0 00-.71-.447 1.847 1.847 0 00-.834-.084 2.142 2.142 0 00-.833.291 2.596 2.596 0 00-.704.623 2.941 2.941 0 00-.628 1.825c.002.325.06.639.171.925.111.286.273.538.476.742.204.204.445.356.71.448z" fill="#211814"/><path d="M197.285 155.977c-.175 1.527-.953 1.992-2.336 1.395.925-.07 1.704-.535 2.336-1.395zm-4.015.494c.692.079 1.251.38 1.679.903-.841.144-1.4-.157-1.679-.903z" fill="#5F5C50"/><path d="M206.359 158.493l.186 4.851c-1.313 4.022-6.514 3.059-8.267 0-.702-2.199-.194-4.055 1.522-5.567 2.398-1.497 4.584-1.258 6.559.716zm99.429.558l.5 2.798c.903 5.38-6.559 6.328-8.581 1.679-.179-1.149.067-2.144.738-2.984a1.01 1.01 0 00.217-.657l-.023-1.022c1.754-1.538 5.836-2.552 7.149.186z" fill="#fff"/><path d="M199.799 157.777c-1.716 1.513-2.224 3.368-1.522 5.567-.871-.189-1.299-.749-1.284-1.679.04-2.025.975-3.321 2.806-3.888z" fill="#5F5C50"/><path d="M206.358 158.492c.891 1.577.953 3.194.187 4.85l-.187-4.85zm92.281.373l.023 1.023c.005.243-.068.462-.217.656-.671.841-.918 1.836-.738 2.985-.563-1.796-.252-3.35.932-4.664z" fill="#AAA"/><path d="M305.788 159.053c.836.821 1.002 1.753.5 2.798l-.5-2.798z" fill="#5F5C50"/><path d="M338.777 210.166c-7.887-.567-14.312-4.119-16.901-11.715-1.067-3.126-2.403-7.611-1.142-10.82 1.08-2.736 1.851-4.877 2.313-6.424 1.179-3.925 4.888-6.209 9.156-8.38 14.991-7.641 32.407 9.387 26.647 24.348-3.336 8.671-10.447 13.685-20.073 12.991zm-141.873-14.967c2 3.895-5.126 14.64-8.678 16.849-11.372 7.066-22.438 1.776-29.02-8.507-5.671-8.872 1.567-22.729 10.641-26.191 12.723-4.858 23.401 2.261 27.758 14.051.09.238.092.48.008.723l-.769 2.291a.98.98 0 00.06.784z" fill="#DFC4BD"/><path d="M214.044 180.259a1.015 1.015 0 01-.925 1.097l-.925.082a2.817 2.817 0 01-1.015-.093 2.65 2.65 0 01-.893-.443 2.392 2.392 0 01-.634-.724 2.223 2.223 0 01-.279-.896l-.015-.149a2.218 2.218 0 01.118-.933c.105-.301.274-.582.498-.825.223-.244.496-.445.802-.593.307-.147.642-.239.985-.269l.933-.082a1.017 1.017 0 011.096.926l.254 2.902z" fill="#E9DFD3"/><path d="M309.53 178.757c-.453 1.317.083 2.696 1.197 3.079 1.115.384 2.386-.373 2.839-1.69.454-1.317-.082-2.695-1.197-3.079-1.114-.384-2.385.373-2.839 1.69z" fill="#fff"/><path d="M287.148 213a20.692 20.692 0 00-5.052 6.119l-3.544 3.104a.359.359 0 01-.41.067.347.347 0 00-.329.03c-2.238 1.413-4.241 2.47-6.007 3.171a19.523 19.523 0 00-3.029.732c-5.35 1.761-13.178 1.328-18.797.947-8.618-1.291-18.415-6.424-22.415-14.58a3.686 3.686 0 01-.187-2.052c2.254-2.097 3 .709 4.082 1.858a26.488 26.488 0 006.208 4.887c.692.931 1.625 1.356 2.799 1.276.238.796.746.95 1.522.463 11.103 4.208 26.945 4.089 36.772-3.216 2.273-1.687 4.733-4.442 7.38-8.268.612-.895 1.306-1.298 2.171-1.88a.818.818 0 01.642-.12c3.082.627-.702 6.015-1.806 7.462z" fill="#211814"/><path d="M227.379 210.539a3.684 3.684 0 00.186 2.052l-.992-1.045c-.134-.139-.137-.283-.008-.432.224-.244.495-.436.814-.575zm59.769 2.465a16.688 16.688 0 01-5.052 6.119 20.692 20.692 0 015.052-6.119zm-49.479 4.281a5.264 5.264 0 012.798 1.276c-1.174.08-2.107-.346-2.798-1.276zm2.798 1.276l1.522.462c-.776.488-1.283.333-1.522-.462zm31.339 6.933c-1.738 1.925-3.85.836-4.902 1.791a1.287 1.287 0 01-.672.321 41.183 41.183 0 01-16.252-.433c5.619.381 13.447.813 18.797-.948a19.52 19.52 0 013.029-.731z" fill="#5F5C50"/><circle cx="257.629" cy="195.243" r="7.835" fill="#C3BAA9"/><path d="M394.201 119.329c-36.595-5.798-84.342-9.306-136.573-9.306-52.232 0-99.979 3.508-136.574 9.306C130.08 51.958 187.786 0 257.628 0c69.841 0 127.547 51.958 136.573 119.329z" fill="#D3E47A"/><path d="M183.553 57.625c9.586-32.726 29.775-48.24 37.582-52.723-17.429 3.813-51.199 20.781-70.807 45.438-19.608 24.657-27.052 56.598-28.322 69.487l52.832-6.164c-1.089-5.044-.871-23.312 8.715-56.038z" fill="#B7C764"/></svg>