<svg width="471" height="258" fill="none" xmlns="http://www.w3.org/2000/svg"><path opacity=".5" fill-rule="evenodd" clip-rule="evenodd" d="M290.258 100.094c-16.368-32.826 7.079-71.508 48.156-87.689C385.891-6.297 446.187-6.722 465.105 31.22c20.145 40.404-13.81 86.265-64.368 106.181-44.602 17.569-92.707-1.662-110.479-37.306zm-208.111 5.499c8.136-19.526 34.202-25.774 57.163-16.123 26.539 11.154 49.977 34.633 40.574 57.202-10.014 24.033-43.292 29.026-71.553 17.147-24.931-10.478-35.017-37.025-26.184-58.226zM2.16 209.471c5.912-14.129 25.773-18.266 43.516-10.841 20.507 8.582 38.84 26.115 32.007 42.446-7.277 17.39-32.683 20.492-54.52 11.353-19.266-8.062-27.424-27.617-21.004-42.958z" fill="#C5E1EC"/></svg>