<svg width="75" height="75" fill="none" xmlns="http://www.w3.org/2000/svg"><path d="M53.555 17.625h-2.222v-2.281c0-2.413-2.054-4.368-4.444-4.344-.342.004-.64.05-.993.14l-23.69 6.51C19.868 17.774 18 19.686 18 22.041v37.541C18 62.02 19.993 64 22.445 64h31.11C56.008 64 58 62.02 58 59.583V22.042c0-2.436-1.993-4.417-4.445-4.417zm-7.088-4.352c1.296-.329 2.644.715 2.644 2.07v2.282h-18.48l15.836-4.352zm9.31 46.31a2.218 2.218 0 01-2.221 2.209H22.445a2.218 2.218 0 01-2.223-2.209V22.042c0-1.218.997-2.208 2.223-2.208h31.11c1.226 0 2.223.99 2.223 2.208v37.541z" fill="#fff"/><path d="M49.98 39.02v-7.904l-2.46.506a4.746 4.746 0 00-2.702 1.625 4.647 4.647 0 00-1.058 2.944v1.03h-2.099v-1.58h1.003v-2.033c0-1.446-1.104-2.64-2.523-2.807V29h-1.41v1.963l-.783.952-.783-.952V29h-1.41v1.8c-1.418.167-2.522 1.362-2.522 2.808v2.034h1.003v1.579h-2.1v-1.03a4.65 4.65 0 00-1.058-2.944 4.745 4.745 0 00-2.7-1.625l-2.461-.506v7.904c0 3.327 2.74 6.034 6.106 6.034h.383a3.888 3.888 0 00-.944 2.54v.526H29.62l-2.088-3.612-1.224.69 3.502 6.058 1.224-.691-.608-1.052h2.446v-1.919a2.55 2.55 0 011.964-2.468l.746.491-1.325 3.355.38.321a5.127 5.127 0 003.311 1.21c1.214 0 2.39-.429 3.311-1.21l.38-.321-1.324-3.355.745-.49c1.126.27 1.965 1.273 1.965 2.467v1.919h4.746c1.218 0 2.209-.98 2.209-2.183 0-1.203-.991-2.183-2.21-2.183-1.217 0-2.208.98-2.208 2.183 0 .279.053.545.15.79h-1.277v-.526c0-.967-.356-1.854-.945-2.54h.383c3.367 0 6.107-2.707 6.107-6.034zm-3.008 8.31c0-.435.358-.79.799-.79.44 0 .799.355.799.79 0 .436-.359.79-.8.79a.795.795 0 01-.798-.79zm-9.024 1.78c-.71 0-1.405-.203-2-.585l1.36-3.445-2.154-1.419h-3.131c-2.59 0-4.696-2.082-4.696-4.64v-6.192l.763.157c1.527.315 2.636 1.663 2.636 3.205v2.423h4.92v-4.366h-1.003v-.64c0-.79.65-1.434 1.451-1.434h.25l1.604 1.95 1.605-1.95h.25c.8 0 1.45.643 1.45 1.434v.64h-1.002v4.366h4.92v-2.423c0-1.542 1.108-2.89 2.636-3.205l.763-.157v6.191c0 2.56-2.107 4.641-4.697 4.641h-3.13l-2.154 1.419 1.36 3.445a3.711 3.711 0 01-2 .586z" fill="#fff"/></svg>