<svg width="75" height="75" fill="none" xmlns="http://www.w3.org/2000/svg"><path d="M15.196 50.173c4.33-.97 9.56-1.047 12.164 10.585M10.221 23.294c.536-3.136 1.767-5.492 1.767-5.492l2.345-.525c.713 3.184 3.918 12.773 9.298 11.57 5.378-1.204 4.191-11.245 3.479-14.429l2.345-.525s8.323 6.315 6.162 14.228c-2.77 10.144 3.622 11.453 4.734 16.423 1.112 4.969-6.492 14.76-6.492 14.76l-6.5 1.454s-11.053-5.616-12.165-10.585c-1.112-4.97 4.113-8.879-2.716-16.874-1.893-2.217-2.504-4.816-2.502-7.245" stroke="#fff" stroke-width="2" stroke-miterlimit="10" stroke-linecap="round" stroke-linejoin="round"/><path d="M14.556 17.226c1.363.936 3.482 1.527 6.657.816 3.175-.71 4.84-2.146 5.675-3.574m6.682 35.5c-.63 2.123-.659 5.102.288 9.335m6.492-14.759c-2.046.458-4.191 1.182-5.609 3.048" stroke="#fff" stroke-width="2" stroke-miterlimit="10" stroke-linecap="round" stroke-linejoin="round"/><path d="M44.499 34.242H66.83m-12.72.28v2.013m3.11-2.013v2.013m-12.721-5.102h22.708v7.07c0 .713-.527 1.306-1.239 1.394a10.51 10.51 0 00-6.825 3.752 2.748 2.748 0 01-2.188 1.03h-2.203a2.748 2.748 0 01-2.188-1.03 10.508 10.508 0 00-6.826-3.752 1.401 1.401 0 01-1.239-1.394v-7.07z" stroke="#fff" stroke-width="2" stroke-miterlimit="22.926" stroke-linecap="round" stroke-linejoin="round"/></svg>