<svg width="75" height="75" fill="none" xmlns="http://www.w3.org/2000/svg"><path d="M45.692 31.927v-4.864c0-.863-.7-1.563-1.565-1.563h-1.565v-4.688c0-.862-.7-1.562-1.565-1.562H38.65v-3.125h1.564a1.564 1.564 0 100-3.125h-12.52a1.565 1.565 0 00-1.106.458l-1.565 1.562a1.56 1.56 0 000 2.21c.611.61 1.602.61 2.213 0l1.107-1.105h7.177v3.125h-2.348c-.864 0-1.565.7-1.565 1.563V25.5h-1.565c-.864 0-1.565.7-1.565 1.563v4.864C25.345 32.64 23 35.441 23 38.781v19.532A4.696 4.696 0 0027.695 63h18.78a4.696 4.696 0 004.694-4.688v-19.53c0-3.34-2.345-6.142-5.477-6.855zm-10.955-9.552h4.695V25.5h-4.695v-3.125zm-3.13 6.25h10.955v3.125H31.607v-3.125zM48.04 58.313c0 .861-.702 1.562-1.565 1.562h-18.78a1.566 1.566 0 01-1.564-1.563v-19.53a3.914 3.914 0 013.912-3.907h14.085a3.914 3.914 0 013.912 3.906v19.532z" fill="#fff"/><path d="M38.08 40.603a1.566 1.566 0 00-1.991 0c-.459.378-4.482 3.8-4.482 7.553 0 3.016 2.458 5.469 5.478 5.469 3.02 0 5.477-2.453 5.477-5.469 0-3.753-4.023-7.175-4.481-7.553zm-.995 9.897a2.348 2.348 0 01-2.348-2.344c0-1.403 1.302-3.096 2.348-4.195 1.046 1.1 2.347 2.793 2.347 4.195a2.348 2.348 0 01-2.347 2.344z" fill="#fff"/></svg>