<svg viewBox="0 0 120 45" preserveAspectRatio="none" xmlns="http://www.w3.org/2000/svg"><path fill-rule="evenodd" clip-rule="evenodd" d="M70.836 0c19.28.001 41.465.92 47.647 5.943 6.331 5.144-8.2 9.95-24.14 13.155-16.136 3.244-36.908 5.52-53.499 2.455-18.198-3.363-25.573-9.986-17.737-15.617C30.007.978 51.532-.001 70.837 0zM16.268 29c6.17.001 13.268.64 15.247 4.134 2.025 3.578-2.624 6.922-7.725 9.152-5.164 2.256-11.81 3.84-17.12 1.707C.847 41.654-1.513 37.047.994 33.13 3.202 29.68 10.09 29 16.268 29z" fill="#C5E1EC"/></svg>