<svg width="388" height="152" fill="none" xmlns="http://www.w3.org/2000/svg"><path opacity=".2" fill-rule="evenodd" clip-rule="evenodd" d="M245.425 4c55.914.006 120.248 3.763 138.175 24.29 18.359 21.02-23.779 40.665-70.006 53.763-46.793 13.26-107.032 22.562-155.145 10.033-52.777-13.743-74.163-40.812-51.438-63.827C127.019 7.995 189.443 3.994 245.425 4z" fill="#C5E1EC"/><path fill-rule="evenodd" clip-rule="evenodd" d="M245.225 0c51.286.006 110.295 3.443 126.739 22.222 16.84 19.233-21.811 37.205-64.212 49.188-42.921 12.131-98.174 20.642-142.306 9.18-48.409-12.574-68.025-37.34-47.181-58.396C136.618 3.655 193.875-.006 245.225 0z" fill="#C5E1EC"/><path opacity=".2" fill-rule="evenodd" clip-rule="evenodd" d="M67.104 86c25.45.004 54.733 2.642 62.893 17.054 8.357 14.76-10.823 28.553-31.864 37.749-21.3 9.31-48.718 15.842-70.618 7.045-24.023-9.65-33.757-28.656-23.413-44.815C13.209 88.805 41.622 85.996 67.104 86z" fill="#C5E1EC"/><path fill-rule="evenodd" clip-rule="evenodd" d="M66.987 83c22.75.004 48.928 2.362 56.223 15.245 7.47 13.195-9.676 25.525-28.485 33.746-19.04 8.322-43.551 14.161-63.129 6.297-21.474-8.626-30.176-25.616-20.93-40.062C18.809 85.508 44.209 82.996 66.987 83z" fill="#C5E1EC"/></svg>