<svg viewBox="0 0 320 420" preserveAspectRatio="none" xmlns="http://www.w3.org/2000/svg"><path d="M106.85 12.765C55.669 7.604.1 2 .1 99.772c0 4.645-.027 9.185-.052 13.623-.05 8.58-.096 16.776.051 24.605v162c7.508 118.95 37.148 117.359 99.305 113.779 11.893-.685 25.051-1.443 39.572-1.443 24.08 0 45.499 2.392 64.406 4.503 68.799 7.682 107.2 11.651 116.717-116.839V138c.182-7.855.124-16.064.063-24.641-.031-4.43-.063-8.958-.063-13.587 0-116.9-63.746-104.412-126.11-92.194-19.013 3.724-37.899 7.424-54.81 7.424-10.148 0-21.134-1.108-32.329-2.237z" fill="#C5E1EC"/></svg>