<svg viewBox="0 0 303 265" preserveAspectRatio="none" xmlns="http://www.w3.org/2000/svg"><path fill-rule="evenodd" clip-rule="evenodd" d="M250.366 215.04c1.045-12.965 10.532-21.833 20.541-20.851 11.57 1.134 23.273 10.043 22.065 25.028-1.286 15.958-13.723 25.547-26.043 24.339-10.868-1.065-17.697-14.439-16.563-28.516zm-36.958 34.046c.541-6.718 7.894-11.074 15.883-10.29 9.233.905 18.748 5.859 18.122 13.624-.666 8.269-10.351 12.92-20.184 11.956-8.674-.85-14.409-7.995-13.821-15.29zm88.206-189.523c6.135 50.359-44.635 165.199-107.767 174.556C18.605 278.562 8.706 155.787 1.615 97.58c-7.55-61.983 12.1-82.186 89.806-93.703 68.549-10.16 203.532 1.006 210.193 55.686z" fill="#C5E1EC"/></svg>