<svg viewBox="0 0 303 265" preserveAspectRatio="none" xmlns="http://www.w3.org/2000/svg"><path fill-rule="evenodd" clip-rule="evenodd" d="M206.83 246.178c-5.383-11.109 2.329-24.199 15.841-29.675 15.617-6.329 35.45-6.473 41.673 6.367 6.627 13.673-4.542 29.193-21.173 35.932-14.671 5.946-30.495-.562-36.341-12.624zm-67.452-28.193c3.05-6.664 12.82-8.796 21.426-5.503 9.948 3.807 18.733 11.82 15.209 19.522-3.754 8.202-16.227 9.906-26.82 5.852-9.345-3.576-13.126-12.636-9.815-19.871zM90.163 248.43c2.187-4.78 9.535-6.179 16.098-3.668 7.587 2.904 14.369 8.835 11.841 14.359-2.692 5.883-12.09 6.932-20.17 3.841-7.126-2.728-10.144-9.343-7.769-14.532zM1.324 30.39c-6.662 45.334 37.398 158.836 105.95 167.259 190.289 40.008 184.698-54.609 192.398-107.007 8.199-55.797 4.782-65.308-79.595-75.675C145.641 5.82 8.557-18.834 1.324 30.39z" fill="#C5E1EC"/></svg>