<svg width="412" height="226" fill="none" xmlns="http://www.w3.org/2000/svg"><path d="M155.518 15.279c2.065-3.827 2.529-7.826 1.39-11.996a1.714 1.714 0 00-.625-.92c-3.23-2.475-6.282-2.264-9.155.633-5.116 5.14-9.839 11.445-14.168 18.914a1.5 1.5 0 01-.606.594c-11.127 6.117-18.851 15.15-23.174 27.1a1.312 1.312 0 01-.655.753C49.359 80.852 9.932 137.715 2.287 203.299c-.963 8.314-2.631 14.846-2.224 21.805.026.363.218.544.576.544h410.437c.397 0 .599-.201.606-.604l.089-9.046c.006-.33-.156-.495-.487-.495h-81.605c-.417 0-.625-.208-.625-.624v-4.612c0-.409.205-.614.616-.614 14.952.033 28.456-4.246 40.509-12.837a.966.966 0 01.854-.149 153.53 153.53 0 0040.053 6.216.546.546 0 00.556-.515l.357-6.196a.611.611 0 00-.034-.232.605.605 0 00-.313-.338.585.585 0 00-.229-.053 156.336 156.336 0 01-33.212-4.642.392.392 0 01-.283-.274.392.392 0 010-.204.392.392 0 01.105-.176c5.997-5.83 10.336-13.659 10.008-22.022-.675-17.371-22.936-38.394-38.812-21.429-16.233 17.351-7.883 37.424 12.362 45.955a.429.429 0 01.213.595.434.434 0 01-.164.168c-10.048 5.905-20.926 8.789-32.636 8.65-.423 0-.662-.208-.715-.623-9.72-73.165-87.373-116.943-154.581-86.696-40.152 18.074-64.905 56.141-65.65 99.969-.006.455-.238.683-.695.683H53.529c-.344 0-.51-.172-.496-.515 2.264-59.674 36.528-109.708 87.959-137.956a.44.44 0 01.606.198c1.953 4.11 4.786 7.47 8.499 10.076 13.543 9.502 19.262-3.336 14.119-14.62-.166-.369-.053-.603.337-.702 7.467-1.851 20.563-4.672 23.274-12.709 1.648-4.89-1.579-9.324-5.67-12.026-.364-.244-.361-.482.01-.713 3.753-2.385 7.616-4.77 10.376-8.274 4.547-5.74 2.303-12.382-5.114-13.491-3.826-.574-7.718-.191-11.676 1.148a.757.757 0 01-1.006-.739.754.754 0 01.172-.449c3.406-4.206 2.592-10.392-2.244-12.986-5.222-2.8-12.232 1.04-16.71 3.95a.318.318 0 01-.447-.416zm-1.986 52.785c3.621 3.913 5.782 8.522 6.484 13.828.132 1.003-.295 1.636-1.281 1.9-6.166 1.633-11.885-10.314-13.652-15.035-.113-.31-.321-.392-.626-.247-57.666 27.694-95.167 82.518-97.858 146.488-.013.323-.182.485-.506.485l-37.75.059a.75.75 0 01-.745-.801c4.637-69.058 44.075-128.475 105.872-159.84.298-.153.513-.384.645-.694 5.014-11.699 9.77-19.845 21.337-26.06 1.271-.684 2.333-1.852 2.979-2.92 3.283-5.378 7.023-10.657 11.219-15.837a.54.54 0 01.87.07.537.537 0 01.074.326c-.616 5.018-5.968 12.857-8.529 17.48-.219.395-.153.742.198 1.039l3.436 2.85c.377.31.744.3 1.102-.03 6.007-5.523 13.493-11.936 21.496-14.134a1.593 1.593 0 011.503.356 1.61 1.61 0 01.502 1.465c-1.3 7.256-15.727 14.966-21.972 17.896-.444.204-.546.521-.308.95l2.502 4.405c.199.35.477.432.834.247 10.395-5.246 24.177-11.66 36.022-11.155a1.287 1.287 0 011.07.67 1.273 1.273 0 01-.028 1.26c-5.093 8.532-23.799 14.243-32.834 17.55-.45.157-.57.451-.358.88l2.175 4.385a1.295 1.295 0 001.678.614c5.143-2.228 20.364-8.73 22.975.01.093.31.059.603-.099.88-3.505 6.335-21.417 8.928-28.168 9.938-.543.079-.629.32-.259.722zm5.005 147.34l-3.754-.178c-11.14.31-22.27.396-33.39.257-1.202-.01-2.919.406-4.557-.089-.325-.099-.48-.317-.467-.653 1.423-33.594 14.843-60.226 40.261-79.896 40.351-31.228 95.605-27.041 132.391 7.255.86.799 1.145 1.581.854 2.346-7.328 18.935-3.565 43.155 12.451 56.131 4.276 3.464 10.064 6.021 17.365 7.671.364.079.563.306.596.683l.427 5.78c.033.475-.189.713-.665.713l-161.512-.02zm196.074-63.396c11.05-11.383 24.931 5.078 25.795 15.569.645 7.83-4.289 15.174-10.386 19.737a1.702 1.702 0 01-1.578.227c-6.762-2.425-15.549-7.443-18.796-13.936-3.485-6.948-.149-16.331 4.965-21.597zm-35.873 48.361c-21.526-6.275-29.469-30.386-22.687-50.43.132-.396.331-.429.595-.099 11.021 13.692 18.438 29.394 22.251 47.104.245 1.142.394 2.125.447 2.95.026.442-.176.6-.606.475z" fill="#fff"/><path d="M153.791 67.343c6.751-1.01 24.663-3.603 28.168-9.938.159-.277.192-.57.099-.88-2.611-8.74-17.832-2.238-22.975-.01a1.295 1.295 0 01-1.678-.614l-2.175-4.385c-.211-.429-.092-.723.358-.88 9.035-3.307 27.741-9.018 32.834-17.55a1.271 1.271 0 00-.418-1.736 1.286 1.286 0 00-.624-.194c-11.845-.505-25.626 5.91-36.022 11.155-.357.185-.635.102-.834-.248l-2.502-4.404c-.238-.429-.136-.746.308-.95 6.245-2.93 20.672-10.64 21.972-17.896a1.6 1.6 0 00-.502-1.465 1.596 1.596 0 00-1.503-.356c-8.003 2.198-15.489 8.611-21.496 14.134-.358.33-.725.34-1.102.03l-3.436-2.85c-.35-.297-.417-.644-.198-1.04 2.561-4.622 7.913-12.461 8.529-17.48a.53.53 0 00-.326-.543.537.537 0 00-.618.148c-4.196 5.18-7.936 10.458-11.219 15.836-.646 1.07-1.708 2.237-2.979 2.92-11.567 6.216-16.323 14.362-21.337 26.061-.132.31-.347.541-.645.693C51.673 86.267 12.236 145.684 7.599 214.742a.76.76 0 00.2.564.75.75 0 00.545.237l37.749-.059c.324 0 .493-.162.506-.485 2.691-63.97 40.192-118.794 97.859-146.488.304-.146.513-.063.625.247 1.767 4.721 7.486 16.668 13.652 15.035.987-.264 1.413-.898 1.281-1.9-.702-5.306-2.863-9.915-6.483-13.828-.371-.402-.285-.643.258-.722zm.992 147.883c.566-8.463 2.165-15.342 8.837-21.072.298-.251.635-.32 1.013-.208l.665.208a.465.465 0 01.321.542.441.441 0 01-.103.2c-4.918 5.741-7.244 12.577-6.98 20.508l161.512.02c.477 0 .699-.237.666-.713l-.427-5.78c-.033-.376-.232-.604-.596-.683-7.301-1.65-13.09-4.206-17.366-7.671-16.015-12.976-19.778-37.196-12.45-56.13.291-.766.006-1.548-.854-2.346-36.786-34.296-92.04-38.483-132.391-7.255-25.418 19.67-38.838 46.302-40.261 79.895-.014.337.142.554.466.653 1.639.495 3.356.08 4.558.089 11.12.139 22.25.053 33.39-.257zm38.564-44.986l2.72-2.83c.457-.476.431-.921-.079-1.337-2.41-1.94-2.999-4.368-1.767-7.284a1.046 1.046 0 011.055-.644 1.05 1.05 0 01.94.802 13.023 13.023 0 002.87 5.533c.218.251.473.297.764.138a14.797 14.797 0 015.669-1.791.718.718 0 01.781.511.71.71 0 01-.393.845c-11.21 5.394-18.974 21.3-3.406 27.843.331.138.477.382.437.732l-.06.594c-.046.462-.297.64-.754.534-7.745-1.748-11.696-6.503-11.855-14.262-.04-1.693.675-3.682.953-5.504a.723.723 0 00-.318-.742c-2.707-1.947-3.442-4.494-2.204-7.641a.985.985 0 011.817-.04l1.906 4.385c.225.515.533.567.924.158z" fill="#E9DFD3"/><path d="M296.05 149.939c-6.781 20.043 1.162 44.155 22.688 50.43.43.125.632-.033.605-.475-.053-.825-.201-1.808-.446-2.95-3.813-17.71-11.23-33.412-22.251-47.104-.265-.33-.463-.297-.596.099z" fill="#615C51"/><path d="M192.425 170.081l-1.906-4.385a.98.98 0 00-1.817.04c-1.237 3.147-.503 5.694 2.204 7.641a.723.723 0 01.318.742c-.278 1.822-.993 3.811-.953 5.504.159 7.76 4.11 12.514 11.853 14.262.457.106.709-.072.755-.534l.059-.594c.04-.35-.105-.594-.436-.732-15.567-6.543-7.804-22.449 3.405-27.843a.712.712 0 00-.387-1.356 14.791 14.791 0 00-5.669 1.791c-.291.159-.546.113-.765-.138a13.026 13.026 0 01-2.869-5.533 1.058 1.058 0 00-1.572-.651c-.19.115-.338.288-.423.493-1.231 2.916-.642 5.344 1.767 7.284.51.416.536.862.079 1.337l-2.72 2.83c-.39.41-.698.357-.923-.158zm-37.64 45.146l3.752.178c-.264-7.931 2.062-14.768 6.979-20.508a.441.441 0 00.095-.426.455.455 0 00-.116-.197.495.495 0 00-.197-.12l-.665-.207a1.029 1.029 0 00-1.013.207c-6.671 5.731-8.27 12.61-8.835 21.073z" fill="#201812"/><path d="M173.855 215.36c0-1.231.491-2.411 1.365-3.282a4.67 4.67 0 016.589 0 4.633 4.633 0 011.365 3.282h-9.319z" fill="#CAC0B4"/></svg>