<svg width="348" height="354" fill="none" xmlns="http://www.w3.org/2000/svg"><g clip-path="url(#clip0_1222_48)"><path opacity=".5" d="M253.737 23.963c29.02 10.16 50.898 49.259 64.309 96.555 13.412 47.296 18.356 102.751-.323 142.659-18.678 39.907-60.98 64.229-100.535 68.924-39.523 4.695-76.298-10.237-113.624-25.476-37.357-15.24-75.264-30.787-83.666-60.574-8.37-29.786 12.733-73.849 23.332-115.72C53.83 88.5 53.895 48.823 70.344 36.047c16.448-12.777 49.249 1.308 83.731-1.04 34.481-2.347 70.642-21.204 99.662-11.044z" fill="#C5E1EC"/><path d="M1.725 187.153c-6.19-30.117 16.117-68.973 49.807-104.775 33.69-35.802 78.729-68.53 122.564-73.005C217.93 4.9 260.528 28.7 284.875 60.225c24.33 31.497 30.411 70.72 36.509 110.572 6.115 39.881 12.248 80.39-8.992 102.9-21.256 22.482-69.902 27.012-111.27 39.426-41.336 12.394-75.41 32.72-94.822 25.17-19.412-7.549-24.176-42.927-43.903-71.305C42.67 238.61 7.915 217.271 1.725 187.153z" fill="#C5E1EC"/><mask id="a" style="mask-type:alpha" maskUnits="userSpaceOnUse" x="0" y="8" width="328" height="332"><path d="M1.725 187.154c-6.19-30.117 16.117-68.973 49.807-104.775 33.69-35.802 78.729-68.531 122.564-73.005C217.93 4.899 260.528 28.7 284.875 60.225c24.33 31.498 30.411 70.721 36.509 110.573 6.115 39.88 12.248 80.39-8.992 102.9-21.256 22.482-69.902 27.011-111.27 39.425-41.336 12.394-75.41 32.721-94.822 25.171-19.412-7.55-24.176-42.927-43.903-71.306C42.67 238.61 7.915 217.271 1.725 187.154z" fill="#C5E1EC"/></mask><g mask="url(#a)"><path fill="#fff" d="M111.312 265.689h126.476V367.91H111.312z"/><path fill="#B2CCD6" d="M111.312 265.689h39.849V367.91h-39.849z"/><ellipse cx="174.55" cy="265.69" rx="63.238" ry="13.86" fill="#6498AD"/><path d="M195.97 218.541h-12.654v38.041a12.868 12.868 0 00-1.568 1.783c-1.036 1.417-1.859 3.099-2.42 4.95a20.214 20.214 0 00-.85 5.839h22.33c0-2.004-.289-3.988-.85-5.839-.561-1.851-1.384-3.533-2.42-4.95a12.868 12.868 0 00-1.568-1.783v-38.041z" fill="#E9DFD3"/><path fill-rule="evenodd" clip-rule="evenodd" d="M186.294 257.87l-.939.881a9.959 9.959 0 00-1.204 1.372c-.819 1.12-1.5 2.493-1.974 4.056a16.609 16.609 0 00-.47 1.998h15.872a16.422 16.422 0 00-.471-1.998c-.473-1.563-1.154-2.936-1.973-4.056a9.959 9.959 0 00-1.204-1.372l-.939-.881v-36.352h-6.698v36.352zm14.299 8.307c.142.978.215 1.975.215 2.977h-22.33c0-1.002.072-1.999.215-2.977.142-.978.355-1.937.635-2.862.561-1.851 1.384-3.533 2.42-4.95a12.868 12.868 0 011.568-1.783v-38.041h12.654v38.041c.56.526 1.085 1.123 1.568 1.783 1.036 1.417 1.859 3.099 2.42 4.95.28.925.493 1.884.635 2.862z" fill="#fff"/><path d="M165.453 218.541H152.8v38.041a12.868 12.868 0 00-1.568 1.783c-1.037 1.417-1.859 3.099-2.42 4.95a20.18 20.18 0 00-.85 5.839h22.329c0-2.004-.289-3.988-.85-5.839-.561-1.851-1.383-3.533-2.42-4.95a12.868 12.868 0 00-1.568-1.783v-38.041z" fill="#E9DFD3"/><path fill-rule="evenodd" clip-rule="evenodd" d="M155.777 257.87l-.938.881a9.963 9.963 0 00-1.205 1.372c-.819 1.12-1.5 2.493-1.973 4.056a16.61 16.61 0 00-.471 1.998h15.872a16.42 16.42 0 00-.47-1.998c-.474-1.563-1.154-2.936-1.974-4.056a9.893 9.893 0 00-1.204-1.372l-.938-.881v-36.352h-6.699v36.352zm14.299 8.307c.143.978.215 1.975.215 2.977h-22.329c0-1.002.072-1.999.214-2.977.143-.978.355-1.937.636-2.862.561-1.851 1.383-3.533 2.42-4.95a12.868 12.868 0 011.568-1.783v-38.041h12.653v38.041c.56.526 1.085 1.123 1.568 1.783 1.037 1.417 1.859 3.099 2.42 4.95.281.925.493 1.884.635 2.862z" fill="#fff"/><path d="M119.665 116.403c.579 2.028-3.621 3.983-5.794 4.708 1.931 4.586 8.763 16.041 20.64 25.166s28.003 11.889 34.581 12.13v14.304c-6.759-.362-23.428-3.259-36.029-11.95-12.602-8.69-21.546-22.33-24.442-28.063-.544-.181-2.318-.941-5.07-2.535-2.752-1.593-4.526-4.647-5.07-5.974-2.715-1.449-7.93-4.563-7.06-5.432.868-.869 5.19 1.931 7.242 3.44l1.448-1.63c-2.897-2.836-7.966-8.654-5.07-9.233 2.897-.58 5.915 5.552 7.062 8.69l1.991-1.086c-2.716-4.949-7.314-14.738-3.983-14.303 3.331.434 6.216 8.509 7.242 12.492l2.173-.905c-1.026-2.897-2.463-8.799 0-9.233 2.462-.435 3.681 7.061 3.983 10.863 1.81-1.328 5.576-3.477 6.156-1.449z" fill="#E9DFD3"/><path fill-rule="evenodd" clip-rule="evenodd" d="M113.184 115.009c-.558-3.811-1.725-8.362-3.659-8.02-1.52.268-1.554 2.621-1.116 5.065.272 1.513.724 3.06 1.116 4.168l-2.172.906a43.65 43.65 0 00-.716-2.448 46.933 46.933 0 00-.68-1.949c-1.41-3.761-3.519-7.793-5.846-8.096-2.065-.269-1.084 3.388.607 7.386.979 2.314 2.196 4.743 3.198 6.59l.178.327-1.992 1.086a27.624 27.624 0 00-.715-1.763 35.86 35.86 0 00-.268-.588c-.698-1.493-1.6-3.113-2.6-4.347-1.088-1.344-2.293-2.229-3.478-1.992-2.467.493.844 4.785 3.67 7.8a48.115 48.115 0 001.4 1.434l-1.449 1.629a42.175 42.175 0 00-1.599-1.115c-1.028-.681-2.197-1.393-3.215-1.879-1.128-.54-2.07-.804-2.428-.446-.369.369.358 1.142 1.524 2.02 1.297.977 3.138 2.085 4.621 2.912.326.181.635.349.916.5.138.337.356.787.65 1.296.86 1.491 2.368 3.491 4.42 4.678 2.752 1.594 4.526 2.354 5.069 2.535 2.897 5.733 11.841 19.373 24.442 28.063 11.233 7.747 25.698 10.89 33.495 11.738.95.103 1.801.172 2.535.212v-14.303c-6.578-.242-22.704-3.006-34.581-12.131-10.216-7.849-16.699-17.421-19.542-22.864a31.53 31.53 0 01-1.098-2.302c.658-.22 1.502-.552 2.344-.965 1.935-.951 3.853-2.329 3.449-3.743-.376-1.316-2.095-.872-3.751-.036a17.95 17.95 0 00-2.404 1.485 43.958 43.958 0 00-.325-2.843zm2.367-1.271a33.968 33.968 0 00-.785-3.598c-.349-1.229-.827-2.544-1.51-3.574-.624-.94-2.008-2.455-4.171-2.074-1.631.288-2.54 1.406-2.989 2.48-.5-.869-1.056-1.698-1.668-2.412-.901-1.05-2.228-2.209-3.989-2.438-1.03-.135-2.317.103-3.208 1.221-.729.915-.824 1.995-.82 2.661.005.917.215 1.96.513 3.001a4.615 4.615 0 00-2.38-.157c-.837.168-1.801.622-2.405 1.622-.566.937-.546 1.915-.435 2.574.19 1.119.798 2.247 1.397 3.173a4.792 4.792 0 00-1.25-.158c-.553.01-1.47.153-2.223.906a2.848 2.848 0 00-.817 1.665c-.075.598.05 1.103.18 1.447.243.64.658 1.13.934 1.424.598.639 1.434 1.279 2.233 1.835 1.374.957 3.048 1.945 4.38 2.681.919 1.807 2.843 4.661 5.743 6.34 1.967 1.139 3.509 1.9 4.524 2.344 3.409 6.37 12.348 19.547 24.818 28.147 13.128 9.053 30.314 12.018 37.333 12.394l2.671.143v-19.421l-2.442-.089c-6.286-.231-21.824-2.922-33.13-11.608-9.789-7.52-16.011-16.677-18.74-21.838a16.74 16.74 0 001.891-1.074c.739-.493 1.559-1.148 2.158-1.979.619-.857 1.169-2.16.738-3.669a3.65 3.65 0 00-1.188-1.839 3.687 3.687 0 00-1.859-.792c-1.078-.147-2.129.141-2.871.41-.21.077-.422.161-.633.252zm-21.969 4.251a.128.128 0 01-.013-.018l.013.018z" fill="#fff"/><path d="M229.104 116.403c-.579 2.028 3.621 3.983 5.794 4.708-1.931 4.586-8.763 16.041-20.64 25.166s-28.003 11.889-34.581 12.13v14.304c6.759-.362 23.428-3.259 36.029-11.95 12.602-8.69 21.546-22.33 24.442-28.063.544-.181 2.318-.941 5.07-2.535 2.752-1.593 4.526-4.647 5.069-5.974 2.716-1.449 7.931-4.563 7.062-5.432-.87-.869-5.191 1.931-7.243 3.44l-1.448-1.63c2.897-2.836 7.966-8.654 5.069-9.233-2.896-.58-5.914 5.552-7.061 8.69l-1.991-1.086c2.716-4.949 7.314-14.738 3.983-14.303-3.331.434-6.216 8.509-7.242 12.492l-2.173-.905c1.026-2.897 2.463-8.799 0-9.233-2.462-.435-3.681 7.061-3.983 10.863-1.81-1.328-5.576-3.477-6.156-1.449z" fill="#E9DFD3"/><path fill-rule="evenodd" clip-rule="evenodd" d="M235.585 115.009c.558-3.811 1.725-8.362 3.659-8.02 1.52.268 1.554 2.621 1.116 5.065a28.055 28.055 0 01-1.116 4.168l2.172.906.032-.125a43.65 43.65 0 01.684-2.323c.203-.626.431-1.283.68-1.949 1.41-3.761 3.519-7.793 5.846-8.096 2.065-.269 1.084 3.388-.608 7.386-.978 2.314-2.195 4.743-3.197 6.59l-.178.327 1.992 1.086a27.624 27.624 0 01.715-1.763c.086-.193.175-.389.268-.588.698-1.493 1.6-3.113 2.599-4.347 1.089-1.344 2.294-2.229 3.479-1.992 2.467.493-.843 4.785-3.669 7.8a51.62 51.62 0 01-1.255 1.291l-.146.143 1.449 1.629.085-.063c.43-.314.951-.678 1.514-1.052 1.028-.681 2.197-1.393 3.215-1.879 1.128-.54 2.07-.804 2.428-.446.369.369-.358 1.142-1.524 2.02-1.297.977-3.138 2.085-4.621 2.912-.326.181-.635.349-.916.5-.138.337-.356.787-.65 1.296-.86 1.491-2.368 3.491-4.42 4.678-2.752 1.594-4.526 2.354-5.069 2.535-2.897 5.733-11.841 19.373-24.442 28.063-11.233 7.747-25.698 10.89-33.495 11.738-.95.103-1.801.172-2.535.212v-14.303c6.578-.242 22.704-3.006 34.581-12.131 10.216-7.849 16.699-17.421 19.542-22.864a31.53 31.53 0 001.098-2.302 19.673 19.673 0 01-2.344-.965c-1.935-.951-3.853-2.329-3.449-3.743.376-1.316 2.095-.872 3.751-.036a17.95 17.95 0 012.404 1.485c.065-.816.172-1.802.325-2.843zm-2.367-1.271c.201-1.206.461-2.453.785-3.598.349-1.229.827-2.544 1.51-3.574.624-.94 2.008-2.455 4.171-2.074 1.631.288 2.54 1.406 2.989 2.48.5-.869 1.056-1.698 1.668-2.412.901-1.05 2.228-2.209 3.989-2.438 1.03-.135 2.317.103 3.208 1.221.729.915.824 1.995.82 2.661-.005.917-.215 1.96-.513 3.001a4.614 4.614 0 012.38-.157c.837.168 1.801.622 2.405 1.622.566.937.546 1.915.435 2.574-.189 1.119-.798 2.247-1.397 3.173.36-.091.792-.166 1.249-.158.554.01 1.471.153 2.224.906a2.85 2.85 0 01.817 1.665 3.021 3.021 0 01-.181 1.447c-.242.64-.657 1.13-.933 1.424-.598.639-1.434 1.279-2.233 1.835-1.374.957-3.048 1.945-4.379 2.681-.92 1.807-2.844 4.661-5.744 6.34-1.967 1.139-3.509 1.9-4.524 2.344-3.409 6.37-12.348 19.547-24.818 28.147-13.128 9.053-30.314 12.018-37.333 12.394l-2.671.143v-19.421l2.442-.089c6.285-.231 21.824-2.922 33.13-11.608 9.788-7.52 16.011-16.677 18.74-21.838a16.74 16.74 0 01-1.891-1.074c-.739-.493-1.559-1.148-2.158-1.979-.619-.857-1.169-2.16-.738-3.669a3.65 3.65 0 011.188-1.839 3.687 3.687 0 011.859-.792c1.078-.147 2.129.141 2.871.41.21.077.422.161.633.252zm21.969 4.251c.01-.012.014-.018.013-.018l-.013.018z" fill="#fff"/><path d="M203.576 202.934c0 15.999-12.969 28.969-28.968 28.969s-28.969-12.97-28.969-28.969 1.992-64.274 28.969-64.274 28.968 48.275 28.968 64.274z" fill="#E9DFD3"/><path fill-rule="evenodd" clip-rule="evenodd" d="M145.76 196.054c.697-19.84 5.054-57.394 28.848-57.394 23.793 0 28.15 37.554 28.847 57.394h.121c0 .742-.018 1.482-.055 2.22.041 1.749.055 3.318.055 4.66 0 15.999-12.969 28.969-28.968 28.969s-28.969-12.97-28.969-28.969c0-1.342.014-2.911.056-4.66a44.328 44.328 0 01-.056-2.22h.121zm4.349 0h48.998c-.302-8.386-1.269-19.853-4.088-30.104-1.858-6.752-4.425-12.615-7.842-16.715-3.306-3.967-7.334-6.229-12.569-6.229-5.235 0-9.263 2.262-12.569 6.229-3.417 4.1-5.985 9.963-7.842 16.715-2.82 10.251-3.787 21.718-4.088 30.104z" fill="#fff"/><path d="M220.233 108.606c0 25.198-20.427 45.625-45.626 45.625-25.198 0-45.625-20.427-45.625-45.625s20.427-45.625 45.625-45.625c25.199 0 45.626 20.427 45.626 45.625z" fill="#E9DFD3"/><path fill-rule="evenodd" clip-rule="evenodd" d="M174.607 151.334c23.599 0 42.729-19.13 42.729-42.728 0-23.599-19.13-42.729-42.729-42.729-23.598 0-42.728 19.13-42.728 42.729 0 23.598 19.13 42.728 42.728 42.728zm0 2.897c25.199 0 45.626-20.427 45.626-45.625s-20.427-45.625-45.626-45.625c-25.198 0-45.625 20.427-45.625 45.625s20.427 45.625 45.625 45.625z" fill="#fff"/><path d="M152.213 114.315l-1.092-.714a.208.208 0 00-.25.002c-.69.467-.204 1.156-.142 1.752-.438-.493-.57-1.034-.397-1.623a.34.34 0 01.139-.191c.757-.52 1.28.162 1.742.774z" fill="#5F5C50"/><path d="M197.867 114.973l.002-.969a.347.347 0 00-.084-.229c-.223-.263-.527-.359-.91-.29 1.046-.707 1.763.752.992 1.488z" fill="#AAA"/><path d="M150.729 115.355c-.062-.595-.548-1.285.141-1.751a.212.212 0 01.251-.003l1.091.715.821.677c.093.248.279.348.558.3.46.199.719.044.777-.464 1.299-1.384 3.15-1.868 4.849-.865 2.338 1.377 3.295 3.578 2.87 6.602-.325 2.302-1.451 3.695-3.381 4.18-4.115 1.037-6.149-3.249-5.799-6.598a1.84 1.84 0 00-.179-1.034.24.24 0 00-.184-.139c-.914-.171-1.519-.71-1.815-1.62zm4.474.072c-.608.189-.919.619-.932 1.292-.005.31.137.496.426.558.583 1.017 2.312 1.337 2.749 0 .254-.55.234-1.088-.062-1.612-.657-.656-1.384-.736-2.181-.238zm4.736 7.473l-.085-.964a.336.336 0 00-.364-.308l-.31.027a.947.947 0 00-.328.09.886.886 0 00-.267.197.797.797 0 00-.165.274.745.745 0 00-.039.31l.005.05a.78.78 0 00.303.538.86.86 0 00.297.147.932.932 0 00.337.031l.308-.027a.337.337 0 00.308-.365zm36.935-9.416c.384-.07.688.027.911.29a.342.342 0 01.084.228l-.002.97a4.028 4.028 0 01-1.719 2.012c-.472.28-.685.716-.648 1.22a9.437 9.437 0 01-.186 2.766c-.771 3.425-5.179 5.362-7.721 2.49-2.163-2.443-1.895-7.052.692-9.118 1.545-1.233 3.949-1.434 5.382.322 1.079 1.322 2.463-.523 3.207-1.18zm-8.815 2.304c-.393.437-.497.953-.31 1.55.672 1.546 3.153 1.231 2.853-.558.167-.347.111-.657-.167-.93-.436-.91-1.793-.573-2.376-.062zm4.018 7.636a.62.62 0 00.278.028.724.724 0 00.277-.097.846.846 0 00.233-.207.968.968 0 00.209-.607.871.871 0 00-.056-.307.715.715 0 00-.159-.247.602.602 0 00-.513-.176.692.692 0 00-.277.097.85.85 0 00-.234.207.963.963 0 00-.209.606c.001.108.02.213.057.308a.713.713 0 00.158.246.615.615 0 00.236.149z" fill="#211814"/><path d="M154.368 114.829c-.058.508-.317.662-.776.464.307-.023.566-.178.776-.464zm-1.334.163c.23.027.416.127.558.3-.279.048-.465-.052-.558-.3z" fill="#5F5C50"/><path d="M157.384 115.666l.062 1.612c-.436 1.337-2.165 1.017-2.748 0-.233-.731-.065-1.348.506-1.851.797-.497 1.524-.418 2.18.239zm33.051.185l.166.93c.301 1.789-2.18 2.104-2.852.558-.06-.382.022-.712.246-.992a.343.343 0 00.072-.218l-.008-.34c.583-.511 1.94-.848 2.376.062z" fill="#fff"/><path d="M155.204 115.427c-.57.502-.739 1.119-.506 1.85-.289-.063-.432-.249-.427-.558.014-.673.324-1.104.933-1.292z" fill="#5F5C50"/><path d="M157.385 115.665c.296.524.316 1.062.062 1.612l-.062-1.612zm30.674.124l.008.34a.343.343 0 01-.072.218c-.224.28-.305.61-.246.992-.187-.597-.083-1.113.31-1.55z" fill="#AAA"/><path d="M190.435 115.852c.278.272.334.582.166.93l-.166-.93z" fill="#5F5C50"/><path d="M201.402 132.842c-2.622-.189-4.758-1.369-5.618-3.894-.355-1.04-.799-2.53-.38-3.597.359-.91.615-1.621.769-2.136.392-1.304 1.625-2.063 3.044-2.785 4.983-2.54 10.772 3.12 8.857 8.093-1.109 2.883-3.472 4.549-6.672 4.319zm-47.16-4.975c.664 1.294-1.704 4.866-2.885 5.6-3.78 2.349-7.459.591-9.646-2.827-1.885-2.949.521-7.556 3.537-8.706 4.229-1.615 7.778.751 9.227 4.67.03.08.03.16.002.241l-.255.761a.326.326 0 00.02.261z" fill="#DFC4BD"/><path d="M159.939 122.901a.335.335 0 01-.307.364l-.308.028a.933.933 0 01-.634-.179.783.783 0 01-.211-.241.73.73 0 01-.092-.297l-.005-.05a.714.714 0 01.039-.31.797.797 0 01.165-.274.874.874 0 01.267-.197.948.948 0 01.327-.09l.31-.027a.34.34 0 01.365.308l.084.965z" fill="#E9DFD3"/><path d="M191.68 122.402c-.151.438.028.896.398 1.024.37.127.793-.124.944-.562.15-.438-.028-.896-.398-1.024-.371-.127-.793.124-.944.562z" fill="#fff"/><path d="M184.239 133.784a6.886 6.886 0 00-1.679 2.034l-1.178 1.032a.12.12 0 01-.137.022.117.117 0 00-.109.01c-.744.47-1.409.821-1.996 1.054-.344.055-.68.136-1.007.243-1.779.586-4.381.442-6.249.315-2.864-.429-6.121-2.135-7.451-4.846a1.23 1.23 0 01-.062-.682c.749-.697.997.235 1.357.617a8.8 8.8 0 002.064 1.625c.23.309.54.451.93.424.079.265.248.316.506.154 3.691 1.399 8.957 1.359 12.223-1.069.756-.561 1.574-1.477 2.453-2.748.204-.298.435-.432.722-.626a.27.27 0 01.214-.039c1.024.208-.234 1.999-.601 2.48z" fill="#211814"/><path d="M164.371 132.966c-.045.228-.024.455.062.682l-.33-.347c-.044-.047-.045-.095-.002-.144a.784.784 0 01.27-.191zm19.869.818a5.547 5.547 0 01-1.68 2.034 6.874 6.874 0 011.68-2.034zm-16.448 1.424c.35.048.66.189.93.424-.39.027-.7-.115-.93-.424zm.93.424l.506.154c-.258.162-.426.11-.506-.154zm10.418 2.305c-.578.639-1.28.277-1.63.595a.422.422 0 01-.223.106 13.7 13.7 0 01-5.402-.143c1.867.126 4.469.27 6.248-.315a6.344 6.344 0 011.007-.243z" fill="#5F5C50"/><circle cx="174.427" cy="127.881" r="2.604" fill="#C3BAA9"/><path d="M219.825 102.647c-12.165-1.928-28.036-3.094-45.399-3.094-17.362 0-33.234 1.166-45.398 3.094 3-22.395 22.182-39.667 45.398-39.667 23.216 0 42.399 17.272 45.399 39.667z" fill="#D3E47A"/><path d="M149.803 82.135c3.187-10.879 9.898-16.035 12.493-17.526-5.794 1.268-17.019 6.908-23.537 15.104-6.518 8.197-8.992 18.814-9.415 23.098l17.563-2.049c-.362-1.676-.29-7.749 2.896-18.627z" fill="#B7C764"/></g></g><defs><clipPath id="clip0_1222_48"><path fill="#fff" d="M0 0h348v354H0z"/></clipPath></defs></svg>