<svg width="348" height="354" fill="none" xmlns="http://www.w3.org/2000/svg"><path opacity=".5" d="M236.399 70.658c29.933 6.92 69.475 7.533 88.356 26.998 18.88 19.499 17.1 57.85 11.205 92.416-5.894 34.567-15.903 65.384-33.77 86.792-17.899 21.374-43.656 33.407-67.695 40.259-24.007 6.886-46.265 8.625-70.948 13.295-24.683 4.67-51.822 12.306-66.773-.375-14.951-12.715-17.745-45.68-27.57-71.758-9.823-26.078-26.678-45.236-34.998-69.747-8.289-24.51-8.043-54.338-.644-85.052 7.429-30.68 22.012-62.282 45.283-73.429 23.27-11.181 55.199-1.909 81.294 9.307 26.095 11.215 46.358 24.408 76.26 31.294z" fill="#C5E1EC"/><path d="M96.96 87.784c16.287-23.372 29.761-56.752 54.269-67.062 24.54-10.3 60.114 2.472 90.779 17.623 30.665 15.152 56.453 32.694 70.808 54.144 14.314 21.466 17.258 46.86 15.878 69.273-1.338 22.398-6.958 41.799-10.605 64.119-3.647 22.32-5.299 47.595-22.13 56.561-16.863 8.956-48.851 1.649-76.64 2.33-27.789.682-51.347 9.361-77.167 9.226-25.81-.161-53.85-9.127-80.393-24.424-26.501-15.313-51.537-36.968-54.456-59.991-2.952-23.033 16.202-47.409 35.285-66.264 19.084-18.854 38.13-32.178 54.373-55.535z" fill="#41A5CD"/><mask id="a" style="mask-type:alpha" maskUnits="userSpaceOnUse" x="7" y="17" width="322" height="277"><path d="M96.96 87.784c16.287-23.372 29.761-56.752 54.269-67.062 24.54-10.3 60.114 2.472 90.779 17.623 30.665 15.152 56.453 32.694 70.808 54.144 14.314 21.466 17.258 46.86 15.878 69.273-1.338 22.398-6.958 41.799-10.605 64.119-3.647 22.32-5.299 47.595-22.13 56.561-16.863 8.956-48.851 1.649-76.64 2.33-27.789.682-51.347 9.361-77.167 9.226-25.81-.161-53.85-9.127-80.393-24.424-26.501-15.313-51.537-36.968-54.456-59.991-2.952-23.033 16.202-47.409 35.285-66.264 19.084-18.854 38.13-32.178 54.373-55.535z" fill="#278DB6"/></mask><g mask="url(#a)"><path d="M116.055 178.799c.714 2.499-4.463 4.909-7.141 5.802 2.38 5.653 10.801 19.771 25.44 31.018 14.639 11.247 34.514 14.654 42.622 14.952V248.2c-8.331-.446-28.876-4.017-44.407-14.728-15.532-10.712-26.556-27.523-30.126-34.589-.67-.223-2.857-1.161-6.249-3.125-3.392-1.963-5.579-5.727-6.248-7.364-3.347-1.785-9.774-5.623-8.703-6.694 1.071-1.071 6.397 2.38 8.926 4.24l1.785-2.009c-3.57-3.496-9.818-10.666-6.248-11.381 3.57-.714 7.29 6.844 8.703 10.712l2.455-1.339c-3.348-6.1-9.016-18.165-4.91-17.629 4.107.535 7.662 10.488 8.927 15.397l2.677-1.115c-1.264-3.571-3.034-10.846 0-11.381 3.035-.536 4.538 8.703 4.91 13.389 2.231-1.637 6.873-4.285 7.587-1.785z" fill="#E9DFD3"/><path fill-rule="evenodd" clip-rule="evenodd" d="M108.069 177.08c-.688-4.697-2.127-10.306-4.51-9.885-1.874.331-1.916 3.231-1.376 6.243.334 1.865.892 3.772 1.376 5.138l-2.678 1.116-.04-.154a56.48 56.48 0 00-1.68-5.265c-1.739-4.636-4.338-9.605-7.206-9.979-2.545-.332-1.336 4.176.749 9.104 1.206 2.852 2.706 5.845 3.94 8.123l.22.402-2.455 1.339a33.781 33.781 0 00-.882-2.173c-.105-.238-.215-.48-.33-.725-.86-1.84-1.972-3.837-3.203-5.357-1.343-1.657-2.828-2.748-4.288-2.456-3.04.608 1.04 5.898 4.523 9.614a57.388 57.388 0 001.726 1.767l-1.786 2.008-.105-.077a50.912 50.912 0 00-1.865-1.297c-1.267-.84-2.709-1.717-3.963-2.317-1.39-.665-2.552-.99-2.993-.549-.454.455.441 1.407 1.878 2.49 1.6 1.204 3.869 2.569 5.697 3.589.401.223.781.431 1.128.616.17.416.44.97.801 1.598 1.06 1.837 2.919 4.302 5.448 5.766 3.392 1.964 5.578 2.901 6.248 3.124 3.57 7.067 14.594 23.878 30.126 34.589 13.845 9.548 31.673 13.422 41.283 14.467 1.171.127 2.22.213 3.125.261v-17.629c-8.108-.298-27.984-3.704-42.623-14.951-12.591-9.674-20.582-21.472-24.086-28.181a39.026 39.026 0 01-1.354-2.838c.812-.27 1.853-.68 2.889-1.189 2.386-1.172 4.75-2.871 4.252-4.613-.463-1.623-2.583-1.076-4.623-.044a22.182 22.182 0 00-2.964 1.829 55.268 55.268 0 00-.399-3.504zm2.917-1.565c-.249-1.487-.568-3.024-.968-4.435-.43-1.516-1.019-3.136-1.861-4.405-.769-1.16-2.475-3.027-5.141-2.557-2.01.355-3.13 1.733-3.685 3.057-.616-1.071-1.301-2.093-2.056-2.973-1.11-1.295-2.746-2.723-4.916-3.006-1.27-.165-2.856.127-3.953 1.505-.899 1.128-1.016 2.459-1.011 3.281.006 1.13.265 2.415.632 3.699a5.676 5.676 0 00-2.933-.194c-1.032.207-2.22.767-2.965 1.999-.697 1.155-.672 2.361-.535 3.172.232 1.38.982 2.77 1.72 3.912a5.865 5.865 0 00-1.539-.195c-.683.012-1.813.188-2.74 1.116a3.513 3.513 0 00-1.007 2.053 3.727 3.727 0 00.222 1.783c.298.788.81 1.392 1.15 1.756.738.787 1.768 1.575 2.753 2.261 1.694 1.179 3.756 2.397 5.397 3.304 1.133 2.227 3.505 5.745 7.08 7.815 2.424 1.403 4.324 2.342 5.576 2.888 4.202 7.852 15.219 24.093 30.589 34.693 16.18 11.159 37.363 14.812 46.014 15.276l3.292.176v-23.937l-3.01-.11c-7.747-.284-26.898-3.601-40.834-14.307-12.064-9.269-19.733-20.555-23.098-26.916a20.479 20.479 0 002.331-1.324c.911-.608 1.922-1.415 2.661-2.439.762-1.056 1.44-2.662.908-4.522a4.484 4.484 0 00-1.463-2.266 4.555 4.555 0 00-2.292-.977c-1.329-.181-2.624.174-3.538.506-.26.094-.52.198-.78.311zm-27.078 5.238z" fill="#fff"/><path d="M250.945 178.799c-.714 2.499 4.463 4.909 7.141 5.802-2.38 5.653-10.801 19.771-25.44 31.018-14.639 11.247-34.514 14.654-42.622 14.952V248.2c8.331-.446 28.876-4.017 44.407-14.728 15.532-10.712 26.556-27.523 30.126-34.589.67-.223 2.857-1.161 6.249-3.125 3.392-1.963 5.579-5.727 6.248-7.364 3.347-1.785 9.774-5.623 8.703-6.694-1.071-1.071-6.397 2.38-8.926 4.24l-1.785-2.009c3.57-3.496 9.818-10.666 6.248-11.381-3.571-.714-7.29 6.844-8.703 10.712l-2.455-1.339c3.347-6.1 9.016-18.165 4.91-17.629-4.106.535-7.662 10.488-8.927 15.397l-2.677-1.115c1.264-3.571 3.034-10.846 0-11.381-3.035-.536-4.538 8.703-4.91 13.389-2.231-1.637-6.873-4.285-7.587-1.785z" fill="#E9DFD3"/><path fill-rule="evenodd" clip-rule="evenodd" d="M258.931 177.08c.688-4.697 2.127-10.306 4.51-9.885 1.874.331 1.916 3.231 1.376 6.243-.334 1.865-.892 3.772-1.376 5.138l2.678 1.116.04-.154c.22-.839.503-1.817.843-2.863.25-.772.53-1.582.838-2.402 1.737-4.636 4.337-9.605 7.205-9.979 2.545-.332 1.336 4.176-.749 9.104-1.206 2.852-2.706 5.845-3.94 8.123l-.22.402 2.455 1.339a34.095 34.095 0 01.882-2.173c.105-.238.215-.48.329-.725.861-1.84 1.973-3.837 3.204-5.357 1.342-1.657 2.828-2.748 4.288-2.456 3.04.608-1.04 5.898-4.523 9.614a58.742 58.742 0 01-1.726 1.767l1.786 2.008.105-.077c.53-.387 1.172-.837 1.866-1.297 1.266-.84 2.708-1.717 3.962-2.317 1.391-.665 2.552-.99 2.993-.549.454.455-.441 1.407-1.878 2.49-1.599 1.204-3.869 2.569-5.697 3.589-.401.223-.781.431-1.128.616-.171.416-.439.97-.801 1.598-1.06 1.837-2.919 4.302-5.448 5.766-3.392 1.964-5.578 2.901-6.248 3.124-3.57 7.067-14.594 23.878-30.126 34.589-13.845 9.548-31.673 13.422-41.283 14.467-1.171.127-2.22.213-3.125.261v-17.629c8.108-.298 27.984-3.704 42.623-14.951 12.591-9.674 20.582-21.472 24.086-28.181a39.026 39.026 0 001.354-2.838c-.812-.27-1.853-.68-2.889-1.189-2.386-1.172-4.75-2.871-4.252-4.613.463-1.623 2.583-1.076 4.623-.044a22.182 22.182 0 012.964 1.829c.08-1.005.212-2.22.399-3.504zm-2.917-1.565c.249-1.487.568-3.024.968-4.435.43-1.516 1.019-3.136 1.861-4.405.769-1.16 2.475-3.027 5.141-2.557 2.01.355 3.131 1.733 3.685 3.057.616-1.071 1.301-2.093 2.056-2.973 1.11-1.295 2.746-2.723 4.916-3.006 1.27-.165 2.856.127 3.953 1.505.899 1.128 1.016 2.459 1.011 3.281-.006 1.13-.265 2.415-.632 3.699a5.674 5.674 0 012.933-.194c1.032.207 2.22.767 2.965 1.999.697 1.155.672 2.361.535 3.172-.232 1.38-.982 2.77-1.721 3.912a5.87 5.87 0 011.54-.195c.683.012 1.813.188 2.741 1.116a3.508 3.508 0 011.006 2.053 3.721 3.721 0 01-.222 1.783c-.298.788-.81 1.392-1.15 1.756-.738.787-1.768 1.575-2.753 2.261-1.694 1.179-3.756 2.397-5.397 3.304-1.133 2.227-3.505 5.745-7.079 7.815-2.425 1.403-4.325 2.342-5.577 2.888-4.202 7.852-15.219 24.093-30.589 34.693-16.18 11.159-37.363 14.812-46.014 15.276l-3.292.176v-23.937l3.01-.11c7.747-.284 26.898-3.601 40.834-14.307 12.064-9.269 19.733-20.555 23.098-26.916a20.479 20.479 0 01-2.331-1.324c-.911-.608-1.922-1.415-2.661-2.439-.762-1.056-1.44-2.662-.908-4.522a4.484 4.484 0 011.463-2.266 4.555 4.555 0 012.292-.977c1.329-.181 2.624.174 3.538.506.26.094.52.198.78.311zm27.078 5.238l.017-.022a.099.099 0 00-.017.022z" fill="#fff"/><path d="M219.48 285.451c0 19.719-15.986 35.705-35.705 35.705-19.719 0-35.705-15.986-35.705-35.705 0-19.719 2.455-79.22 35.705-79.22s35.705 59.501 35.705 79.22z" fill="#E9DFD3"/><path fill-rule="evenodd" clip-rule="evenodd" d="M148.219 276.971c.86-24.453 6.23-70.74 35.556-70.74 29.326 0 34.697 46.287 35.556 70.74h.149c0 .914-.023 1.827-.069 2.737.052 2.155.069 4.089.069 5.743 0 19.72-15.986 35.705-35.705 35.705-19.719 0-35.705-15.985-35.705-35.705 0-1.654.018-3.588.069-5.743a54.225 54.225 0 01-.069-2.737h.149zm5.36 0h60.392c-.371-10.336-1.563-24.469-5.039-37.104-2.289-8.322-5.453-15.548-9.665-20.601-4.075-4.89-9.039-7.679-15.492-7.679-6.453 0-11.417 2.789-15.492 7.679-4.211 5.053-7.376 12.279-9.665 20.601-3.476 12.635-4.667 26.768-5.039 37.104z" fill="#fff"/><path d="M240.011 169.188c0 31.058-25.177 56.235-56.235 56.235s-56.235-25.177-56.235-56.235 25.177-56.235 56.235-56.235 56.235 25.177 56.235 56.235z" fill="#E9DFD3"/><path fill-rule="evenodd" clip-rule="evenodd" d="M183.776 221.853c29.086 0 52.664-23.579 52.664-52.665s-23.578-52.664-52.664-52.664c-29.086 0-52.665 23.578-52.665 52.664 0 29.086 23.579 52.665 52.665 52.665zm0 3.57c31.058 0 56.235-25.177 56.235-56.235s-25.177-56.235-56.235-56.235-56.235 25.177-56.235 56.235 25.177 56.235 56.235 56.235z" fill="#fff"/><path d="M216.8 199.061c-3.231-.233-5.863-1.688-6.924-4.8-.437-1.281-.985-3.119-.468-4.433.442-1.121.758-1.998.948-2.632.483-1.608 2.002-2.544 3.751-3.434 6.142-3.13 13.277 3.846 10.917 9.976-1.366 3.553-4.28 5.607-8.224 5.323zm-58.126-6.134c.82 1.596-2.1 5.999-3.555 6.903-4.659 2.896-9.193.728-11.89-3.485-2.323-3.635.642-9.312 4.36-10.73 5.212-1.991 9.587.926 11.373 5.756a.433.433 0 01.003.297l-.315.938a.4.4 0 00.024.321z" fill="#DFC4BD"/><path d="M195.648 200.221a8.475 8.475 0 00-2.07 2.507L192.126 204a.146.146 0 01-.168.027.143.143 0 00-.134.012c-.918.579-1.738 1.012-2.461 1.3a8.027 8.027 0 00-1.242.299c-2.192.722-5.399.545-7.701.389-3.531-.529-7.545-2.633-9.184-5.974a1.51 1.51 0 01-.076-.841c.923-.859 1.229.291 1.672.761a10.844 10.844 0 002.544 2.003c.283.381.665.555 1.146.523.098.326.306.389.624.189 4.549 1.724 11.04 1.675 15.066-1.318.931-.69 1.939-1.82 3.023-3.387.251-.367.536-.532.89-.77a.332.332 0 01.263-.049c1.263.257-.287 2.464-.74 3.057z" fill="#211814"/><path d="M171.159 199.213c-.055.281-.029.561.077.841l-.407-.428c-.055-.057-.056-.117-.003-.178a.981.981 0 01.333-.235zm24.489 1.009a6.832 6.832 0 01-2.07 2.507 8.475 8.475 0 012.07-2.507zm-20.273 1.755c.432.059.814.233 1.146.522-.481.033-.863-.141-1.146-.522zm1.146.522l.624.19c-.318.199-.526.136-.624-.19zm12.841 2.841c-.712.788-1.577.342-2.008.733a.524.524 0 01-.275.132 16.885 16.885 0 01-6.659-.177c2.302.156 5.509.333 7.701-.389a8.015 8.015 0 011.241-.299z" fill="#5F5C50"/><circle cx="183.554" cy="192.945" r="3.21" fill="#C3BAA9"/><path d="M239.508 161.843c-14.993-2.375-34.556-3.813-55.955-3.813-21.4 0-40.962 1.438-55.955 3.813 3.698-27.602 27.34-48.89 55.955-48.89s52.257 21.288 55.955 48.89z" fill="#D3E47A"/><path d="M153.204 136.563c3.927-13.408 12.199-19.764 15.397-21.601-7.141 1.562-20.976 8.514-29.01 18.616-8.033 10.102-11.083 23.189-11.604 28.47l21.646-2.526c-.446-2.066-.357-9.551 3.571-22.959z" fill="#B7C764"/><path d="M158.546 184.148l-2.044.889a.459.459 0 00.018.847c1.467.577 2.655.234 3.562-1.027a.336.336 0 01.346-.149c.849.13 1.776.463 2.565.445 3.618-.074 5.834-1.916 6.649-5.526.049-.213-.034-.33-.249-.352l-.277-.027c-.163-.019-.277.049-.341.203-3.05 7.257-10.465 3.638-12.979-1.587a.329.329 0 00-.394-.183.331.331 0 00-.238.363c.101.944.379 1.825.835 2.643.074.136.052.254-.065.356-.75.654-1.61 1.1-2.579 1.338a.484.484 0 00-.374.438.494.494 0 00.3.492c1.36.574 2.492.299 3.396-.824.194-.237.401-.25.623-.037l1.319 1.268c.191.182.166.326-.073.43zm49.282.001l2.044.888a.465.465 0 01.274.43.457.457 0 01-.292.417c-1.467.577-2.655.235-3.562-1.027a.334.334 0 00-.346-.148c-.849.129-1.776.462-2.565.444-3.618-.074-5.834-1.916-6.649-5.526-.049-.213.034-.33.249-.351l.277-.028c.163-.019.277.049.341.204 3.05 7.256 10.465 3.637 12.979-1.588a.334.334 0 01.581-.046.335.335 0 01.051.227 6.863 6.863 0 01-.835 2.642c-.073.136-.052.255.065.356.75.655 1.61 1.1 2.579 1.338a.484.484 0 01.374.438.492.492 0 01-.3.492c-1.36.574-2.492.299-3.396-.824-.194-.237-.401-.25-.623-.037l-1.319 1.268c-.191.182-.166.326.073.431z" fill="#201812"/><circle cx="260.024" cy="114.825" r="12.977" fill="#0E739C"/><circle cx="264.918" cy="109.081" r="4.68" fill="#278DB6"/><circle cx="267.896" cy="116.74" r="1.702" fill="#278DB6"/><circle cx="140.334" cy="102.486" r="12.977" fill="#0E739C"/><circle cx="145.227" cy="96.742" r="4.68" fill="#278DB6"/><circle cx="148.205" cy="104.401" r="1.702" fill="#278DB6"/><circle cx="218.071" cy="88.913" r="12.977" fill="#0E739C"/><circle cx="222.964" cy="83.169" r="4.68" fill="#278DB6"/><circle cx="225.943" cy="90.828" r="1.702" fill="#278DB6"/><circle cx="251.216" cy="149.205" r="7.872" fill="#0E739C"/><circle cx="254.185" cy="145.721" r="2.839" fill="#278DB6"/><circle cx="156.205" cy="78.872" r="7.872" fill="#0E739C"/><circle cx="159.173" cy="75.388" r="2.839" fill="#278DB6"/><circle cx="108.082" cy="120.825" r="7.872" fill="#0E739C"/><circle cx="111.051" cy="117.341" r="2.839" fill="#278DB6"/><circle cx="115.486" cy="149.205" r="7.872" fill="#0E739C"/><circle cx="118.454" cy="145.721" r="2.839" fill="#278DB6"/></g></svg>