<svg width="348" height="354" fill="none" xmlns="http://www.w3.org/2000/svg"><path opacity=".5" d="M287.823 42.829c32.179 18.27 43.906 67.945 41.975 115.799-1.897 47.854-17.418 93.888-49.632 130.461-32.179 36.574-81.017 63.687-120.646 54.974-39.664-8.68-70.05-53.186-95.641-89.759-25.557-36.573-46.32-65.214-45.872-93.465.448-28.251 22.074-56.047 47.665-74.35 25.592-18.27 55.081-27.048 96.193-37.971 41.078-10.89 93.779-23.992 125.958-5.69z" fill="#C5E1EC"/><path d="M109.918 15.286c32.563-17.578 80.889-1.156 120.424 25.877 39.553 27.003 70.333 64.587 84.236 111.299 13.921 46.683 10.984 102.465-17.431 131.43-28.406 29.012-82.253 31.147-126.832 33.429-44.562 2.252-79.855 4.651-103.562-10.721-23.707-15.372-35.79-48.452-37.721-79.856-1.905-31.386 6.305-61.039 18.865-101.681 12.568-40.596 29.431-92.216 62.021-109.777z" fill="#C5E1EC"/><mask id="a" style="mask-type:alpha" maskUnits="userSpaceOnUse" x="28" y="8" width="295" height="311"><path d="M109.918 15.286c32.563-17.578 80.889-1.156 120.424 25.877 39.553 27.003 70.333 64.587 84.236 111.299 13.921 46.683 10.984 102.465-17.431 131.43-28.406 29.012-82.253 31.147-126.832 33.429-44.562 2.252-79.855 4.651-103.562-10.721-23.707-15.372-35.79-48.452-37.721-79.856-1.905-31.386 6.305-61.039 18.865-101.681 12.568-40.596 29.431-92.216 62.021-109.777z" fill="#C5E1EC"/></mask><g mask="url(#a)"><path d="M410 322.703V222.051c0-10.793-13.068-16.175-20.669-8.513-4.728 4.766-12.434 4.766-17.162 0l-6.044-6.093c-8.058-8.122-21.192-8.122-29.25 0-8.058 8.123-21.192 8.123-29.25 0-8.058-8.122-21.192-8.122-29.25 0-8.058 8.123-21.192 8.123-29.25 0-8.058-8.122-21.192-8.122-29.25 0-8.058 8.123-21.192 8.123-29.25 0-8.058-8.122-21.192-8.122-29.25 0-8.058 8.123-21.192 8.123-29.25 0-8.058-8.122-21.192-8.122-29.25 0-8.058 8.123-21.192 8.123-29.25 0-8.058-8.122-21.192-8.122-29.25 0-8.058 8.123-21.192 8.123-29.25 0-8.058-8.122-21.192-8.122-29.25 0l-6.044 6.093c-4.728 4.766-12.434 4.766-17.162 0-7.6-7.662-20.669-2.28-20.669 8.513v100.652h468z" fill="#278DB6"/><path d="M109.252 163.429c.68 2.381-4.251 4.676-6.802 5.527 2.267 5.385 10.288 18.834 24.234 29.548 13.945 10.714 32.878 13.959 40.602 14.243v16.794c-7.936-.426-27.508-3.827-42.303-14.031-14.796-10.203-25.297-26.218-28.698-32.949-.638-.213-2.721-1.106-5.952-2.976-3.231-1.871-5.315-5.456-5.953-7.015-3.188-1.701-9.31-5.357-8.29-6.378 1.02-1.02 6.094 2.268 8.503 4.039l1.7-1.913c-3.4-3.33-9.353-10.161-5.952-10.841 3.402-.681 6.945 6.519 8.291 10.203l2.338-1.275c-3.188-5.811-8.588-17.304-4.676-16.794 3.911.51 7.298 9.991 8.503 14.668l2.55-1.063c-1.204-3.401-2.89-10.331 0-10.841 2.892-.511 4.323 8.29 4.677 12.754 2.126-1.559 6.548-4.081 7.228-1.7z" fill="#E9DFD3"/><path fill-rule="evenodd" clip-rule="evenodd" d="M101.643 161.791c-.655-4.474-2.025-9.817-4.296-9.417-1.785.316-1.825 3.079-1.31 5.947.318 1.777.85 3.594 1.31 4.895l-2.55 1.063-.038-.146a53.915 53.915 0 00-1.601-5.016c-1.656-4.416-4.132-9.15-6.865-9.506-2.424-.316-1.272 3.978.714 8.672 1.15 2.718 2.578 5.569 3.754 7.738l.209.384-2.338 1.275a31.619 31.619 0 00-.84-2.07 33.67 33.67 0 00-.315-.69c-.82-1.754-1.879-3.656-3.052-5.104-1.278-1.578-2.693-2.618-4.084-2.34-2.896.58.99 5.619 4.308 9.159a51.515 51.515 0 001.644 1.683l-1.7 1.913-.1-.074a50.26 50.26 0 00-1.778-1.235c-1.207-.8-2.58-1.635-3.775-2.207-1.324-.633-2.43-.943-2.85-.523-.433.433.42 1.34 1.788 2.372 1.524 1.147 3.686 2.448 5.427 3.418.382.214.744.411 1.075.587.162.397.418.925.763 1.523 1.01 1.75 2.78 4.098 5.19 5.492 3.23 1.871 5.314 2.764 5.951 2.977 3.402 6.731 13.903 22.745 28.699 32.949 13.188 9.096 30.172 12.786 39.327 13.782 1.115.121 2.114.202 2.976.248v-16.793c-7.724-.284-26.658-3.529-40.603-14.243-11.994-9.215-19.606-20.454-22.944-26.845a36.738 36.738 0 01-1.29-2.703 22.751 22.751 0 002.752-1.134c2.273-1.116 4.525-2.734 4.051-4.393-.442-1.546-2.461-1.025-4.404-.043a21.15 21.15 0 00-2.824 1.743 51.87 51.87 0 00-.381-3.338zm2.779-1.491a39.674 39.674 0 00-.922-4.225c-.409-1.444-.97-2.988-1.772-4.196-.733-1.105-2.358-2.884-4.898-2.435-1.914.338-2.982 1.65-3.51 2.911-.587-1.02-1.24-1.994-1.958-2.832-1.058-1.233-2.616-2.593-4.684-2.863-1.21-.158-2.72.121-3.766 1.434-.855 1.074-.967 2.342-.963 3.125.006 1.076.253 2.3.603 3.523a5.408 5.408 0 00-2.795-.184c-.982.197-2.114.73-2.824 1.904-.664 1.1-.64 2.249-.51 3.022.222 1.314.936 2.639 1.64 3.726a5.635 5.635 0 00-1.467-.186c-.65.012-1.727.18-2.61 1.064a3.345 3.345 0 00-.96 1.955 3.57 3.57 0 00.212 1.699c.284.751.772 1.326 1.096 1.672.702.75 1.684 1.501 2.622 2.154 1.614 1.123 3.578 2.284 5.141 3.148 1.08 2.121 3.34 5.473 6.744 7.444 2.31 1.337 4.12 2.231 5.313 2.752 4.002 7.479 14.498 22.951 29.139 33.048 15.413 10.63 35.592 14.111 43.833 14.552l3.136.168v-22.802l-2.867-.105c-7.38-.271-25.624-3.43-38.899-13.629-11.493-8.83-18.798-19.581-22.003-25.64.754-.37 1.517-.793 2.22-1.262.868-.579 1.831-1.348 2.535-2.323.726-1.007 1.372-2.536.865-4.308a4.279 4.279 0 00-1.394-2.159 4.332 4.332 0 00-2.183-.93c-1.266-.173-2.5.166-3.37.481-.248.09-.496.19-.744.297zm-25.794 4.99a.149.149 0 01-.016-.021l.016.021z" fill="#fff"/><path d="M237.749 163.429c-.68 2.381 4.251 4.676 6.802 5.527-2.267 5.385-10.288 18.834-24.234 29.548-13.945 10.714-32.878 13.959-40.602 14.243v16.794c7.936-.426 27.508-3.827 42.303-14.031 14.795-10.203 25.297-26.218 28.698-32.949.638-.213 2.721-1.106 5.952-2.976 3.232-1.871 5.315-5.456 5.953-7.015 3.188-1.701 9.31-5.357 8.29-6.378-1.02-1.02-6.094 2.268-8.503 4.039l-1.701-1.913c3.402-3.33 9.354-10.161 5.953-10.841-3.402-.681-6.945 6.519-8.291 10.203l-2.338-1.275c3.188-5.811 8.588-17.304 4.676-16.794-3.911.51-7.298 9.991-8.503 14.668l-2.551-1.063c1.205-3.401 2.891-10.331 0-10.841-2.891-.511-4.322 8.29-4.676 12.754-2.126-1.559-6.548-4.081-7.228-1.7z" fill="#E9DFD3"/><path fill-rule="evenodd" clip-rule="evenodd" d="M245.357 161.791c.655-4.474 2.025-9.817 4.296-9.417 1.785.316 1.825 3.079 1.31 5.947-.318 1.777-.85 3.594-1.31 4.895l2.551 1.063.037-.146a53.247 53.247 0 011.602-5.016c1.655-4.416 4.131-9.15 6.864-9.506 2.424-.316 1.272 3.978-.714 8.672-1.149 2.718-2.578 5.569-3.754 7.738l-.209.384 2.338 1.275c.14-.383.304-.805.489-1.251a38.02 38.02 0 01.666-1.509c.82-1.754 1.878-3.656 3.052-5.104 1.278-1.578 2.693-2.618 4.084-2.34 2.896.58-.99 5.619-4.308 9.159-.213.228-.424.449-.631.662a49.611 49.611 0 01-1.013 1.021l1.7 1.913.101-.074a50.635 50.635 0 011.777-1.235c1.207-.8 2.58-1.635 3.775-2.207 1.324-.633 2.431-.943 2.85-.523.433.433-.419 1.34-1.788 2.372-1.524 1.147-3.686 2.448-5.427 3.418-.382.214-.744.411-1.075.587-.162.397-.418.925-.763 1.523-1.009 1.75-2.78 4.098-5.189 5.492-3.231 1.871-5.315 2.764-5.952 2.977-3.402 6.731-13.903 22.745-28.699 32.949-13.188 9.096-30.172 12.786-39.327 13.782a55.103 55.103 0 01-2.976.248v-16.793c7.724-.284 26.658-3.529 40.603-14.243 11.994-9.215 19.606-20.454 22.944-26.845.543-1.039.973-1.95 1.29-2.703a22.751 22.751 0 01-2.752-1.134c-2.273-1.116-4.525-2.734-4.051-4.393.442-1.546 2.461-1.025 4.404-.043a21.15 21.15 0 012.824 1.743 51.87 51.87 0 01.381-3.338zm-2.779-1.491c.236-1.417.541-2.881.922-4.225.409-1.444.97-2.988 1.772-4.196.733-1.105 2.358-2.884 4.898-2.435 1.914.338 2.982 1.65 3.51 2.911.587-1.02 1.239-1.994 1.958-2.832 1.058-1.233 2.616-2.593 4.684-2.863 1.209-.158 2.72.121 3.765 1.434.856 1.074.968 2.342.964 3.125-.006 1.076-.253 2.3-.603 3.523a5.41 5.41 0 012.795-.184c.982.197 2.114.73 2.823 1.904.665 1.1.641 2.249.511 3.022-.222 1.314-.936 2.639-1.64 3.726a5.637 5.637 0 011.467-.186c.65.012 1.727.18 2.611 1.064.519.519.864 1.198.959 1.955a3.57 3.57 0 01-.212 1.699c-.284.751-.772 1.326-1.096 1.672-.702.75-1.684 1.501-2.622 2.154-1.614 1.123-3.578 2.284-5.141 3.148-1.08 2.121-3.339 5.473-6.744 7.444-2.31 1.337-4.12 2.231-5.313 2.752-4.002 7.479-14.498 22.951-29.139 33.048-15.413 10.63-35.592 14.111-43.833 14.552l-3.136.168v-22.802l2.867-.105c7.38-.271 25.624-3.43 38.899-13.629 11.493-8.83 18.798-19.581 22.003-25.64a19.556 19.556 0 01-2.22-1.262c-.868-.579-1.831-1.348-2.535-2.323-.726-1.007-1.372-2.536-.865-4.308a4.279 4.279 0 011.394-2.159 4.332 4.332 0 012.183-.93c1.266-.173 2.5.166 3.37.481.248.09.496.19.744.297zm25.794 4.99l.016-.021-.016.021z" fill="#fff"/><path d="M207.775 254.915c0 16.268-15.228 29.456-34.012 29.456-18.785 0-34.013-13.188-34.013-29.456s2.338-65.354 34.013-65.354c31.674 0 34.012 49.086 34.012 65.354z" fill="#E9DFD3"/><path fill-rule="evenodd" clip-rule="evenodd" d="M139.892 247.919c.818-20.174 5.934-58.358 33.871-58.358 27.936 0 33.052 38.184 33.87 58.358h.142c0 .754-.022 1.507-.065 2.258.049 1.778.065 3.373.065 4.738 0 16.268-15.228 29.456-34.012 29.456-18.785 0-34.013-13.188-34.013-29.456 0-1.365.016-2.96.065-4.738a39.502 39.502 0 01-.065-2.258h.142zm5.106 0h57.53c-.354-8.527-1.49-20.187-4.801-30.61-2.18-6.866-5.195-12.827-9.207-16.996-3.882-4.034-8.611-6.334-14.757-6.334-6.147 0-10.876 2.3-14.758 6.334-4.012 4.169-7.027 10.13-9.207 16.996-3.311 10.423-4.446 22.083-4.8 30.61z" fill="#fff"/><path d="M227.332 154.273c0 29.586-23.984 53.57-53.57 53.57s-53.57-23.984-53.57-53.57 23.984-53.57 53.57-53.57 53.57 23.984 53.57 53.57z" fill="#E9DFD3"/><path fill-rule="evenodd" clip-rule="evenodd" d="M173.762 204.441c27.707 0 50.169-22.461 50.169-50.168s-22.462-50.169-50.169-50.169c-27.707 0-50.168 22.462-50.168 50.169 0 27.707 22.461 50.168 50.168 50.168zm0 3.402c29.586 0 53.57-23.984 53.57-53.57s-23.984-53.57-53.57-53.57-53.57 23.984-53.57 53.57 23.984 53.57 53.57 53.57z" fill="#fff"/><path d="M147.468 160.977l-1.281-.838a.246.246 0 00-.294.003c-.81.547-.239 1.357-.166 2.056-.515-.579-.67-1.214-.466-1.905a.386.386 0 01.163-.224c.888-.612 1.502.189 2.044.908z" fill="#5F5C50"/><path d="M201.072 161.749l.003-1.139a.402.402 0 00-.099-.268c-.262-.309-.618-.422-1.069-.341 1.229-.83 2.071.883 1.165 1.748z" fill="#AAA"/><path d="M145.726 162.197c-.073-.699-.644-1.509.166-2.056a.246.246 0 01.294-.003l1.282.839.964.795c.108.291.327.408.655.352.54.233.843.051.911-.545 1.526-1.625 3.699-2.193 5.694-1.016 2.745 1.617 3.869 4.202 3.37 7.753-.381 2.702-1.704 4.338-3.97 4.907-4.831 1.217-7.22-3.815-6.809-7.747a2.145 2.145 0 00-.21-1.214.278.278 0 00-.215-.163c-1.074-.2-1.784-.834-2.132-1.902zm5.254.084c-.715.222-1.08.727-1.095 1.518-.006.363.161.581.501.655.684 1.194 2.714 1.57 3.227 0 .299-.647.274-1.278-.073-1.893-.771-.771-1.624-.864-2.56-.28zm5.559 8.775l-.099-1.133a.395.395 0 00-.428-.361l-.364.032a1.108 1.108 0 00-.384.105c-.12.058-.226.136-.313.231a.956.956 0 00-.195.322.87.87 0 00-.045.364l.005.059a.868.868 0 00.109.349.93.93 0 00.248.283c.102.078.22.137.348.173.128.036.262.048.396.036l.361-.032a.399.399 0 00.27-.139c.067-.08.1-.184.091-.289zm43.368-11.055c.451-.081.807.032 1.069.341a.402.402 0 01.099.268l-.003 1.139c-.415 1.025-1.088 1.812-2.018 2.362-.554.329-.804.841-.76 1.433.083 1.147.01 2.229-.219 3.247-.906 4.022-6.081 6.296-9.066 2.924-2.539-2.869-2.225-8.28.813-10.706 1.814-1.447 4.636-1.683 6.319.379 1.267 1.552 2.892-.615 3.766-1.387zm-10.35 2.706c-.462.513-.584 1.119-.364 1.82.789 1.815 3.701 1.445 3.349-.655.196-.408.131-.772-.195-1.092-.513-1.069-2.106-.673-2.79-.073zm4.718 8.966a.727.727 0 00.325.033.844.844 0 00.325-.114c.103-.061.197-.144.275-.243a1.133 1.133 0 00.245-.713 1 1 0 00-.066-.36.843.843 0 00-.187-.29.717.717 0 00-.602-.208.844.844 0 00-.325.114 1.02 1.02 0 00-.275.243 1.133 1.133 0 00-.245.713.98.98 0 00.067.36c.043.112.106.21.186.29.079.08.173.139.277.175z" fill="#211814"/><path d="M149.998 161.579c-.067.596-.371.778-.911.545.361-.027.665-.209.911-.545zm-1.566.193c.27.032.488.149.655.353-.328.056-.547-.061-.655-.353z" fill="#5F5C50"/><path d="M153.54 162.562l.073 1.893c-.513 1.57-2.543 1.194-3.227 0-.274-.858-.076-1.582.594-2.173.936-.584 1.789-.491 2.56.28zm38.807.218l.195 1.092c.353 2.1-2.56 2.47-3.349.656-.07-.449.026-.837.288-1.165a.393.393 0 00.085-.257l-.009-.399c.684-.6 2.277-.996 2.79.073z" fill="#fff"/><path d="M150.98 162.282c-.67.59-.868 1.315-.594 2.173-.34-.074-.507-.292-.501-.655.015-.791.38-1.296 1.095-1.518z" fill="#5F5C50"/><path d="M153.54 162.562c.348.615.372 1.246.073 1.893l-.073-1.893zm36.016.145l.009.399a.395.395 0 01-.085.256c-.262.328-.358.717-.288 1.165-.22-.701-.098-1.307.364-1.82z" fill="#AAA"/><path d="M192.347 162.78c.326.321.391.685.195 1.092l-.195-1.092z" fill="#5F5C50"/><path d="M205.221 182.73c-3.078-.222-5.586-1.608-6.596-4.573-.417-1.22-.938-2.97-.446-4.223.422-1.067.723-1.903.903-2.507.46-1.532 1.908-2.423 3.573-3.271 5.851-2.982 12.649 3.664 10.4 9.503-1.301 3.384-4.077 5.341-7.834 5.071zm-55.371-5.842c.78 1.52-2.001 5.714-3.387 6.576-4.439 2.758-8.758.693-11.326-3.32-2.214-3.463.611-8.871 4.153-10.223 4.965-1.895 9.133.883 10.833 5.484a.405.405 0 01.003.283l-.3.894a.38.38 0 00.024.306z" fill="#DFC4BD"/><path d="M156.539 171.057a.394.394 0 01-.361.428l-.361.032a1.1 1.1 0 01-.396-.036 1.033 1.033 0 01-.348-.173.917.917 0 01-.248-.283.868.868 0 01-.109-.35l-.006-.058a.871.871 0 01.046-.364.94.94 0 01.195-.322c.087-.095.193-.173.313-.231.12-.058.25-.093.384-.105l.364-.032a.394.394 0 01.428.361l.099 1.133z" fill="#E9DFD3"/><path d="M193.808 170.47c-.177.514.032 1.053.467 1.202.435.15.931-.145 1.108-.659.177-.514-.032-1.052-.467-1.202-.435-.15-.931.145-1.108.659z" fill="#fff"/><path d="M185.071 183.836a8.058 8.058 0 00-1.971 2.388l-1.384 1.211a.139.139 0 01-.16.026.137.137 0 00-.128.012c-.874.551-1.655.964-2.344 1.238a7.638 7.638 0 00-1.183.285c-2.088.687-5.143.519-7.336.37-3.364-.504-7.188-2.507-8.749-5.691a1.439 1.439 0 01-.072-.8c.879-.819 1.17.276 1.593.725.712.757 1.52 1.393 2.423 1.907.27.363.634.529 1.092.498.093.311.291.371.594.181 4.333 1.642 10.516 1.596 14.352-1.255.887-.659 1.847-1.734 2.88-3.227.239-.35.51-.507.848-.734a.317.317 0 01.25-.047c1.203.245-.274 2.348-.705 2.913z" fill="#211814"/><path d="M161.744 182.875c-.052.268-.028.535.073.801l-.387-.408c-.053-.054-.054-.111-.003-.169a.926.926 0 01.317-.224zm23.327.961a6.516 6.516 0 01-1.971 2.388 8.084 8.084 0 011.971-2.388zm-19.311 1.672c.411.056.775.222 1.092.498-.458.031-.822-.135-1.092-.498zm1.092.498l.594.18c-.303.191-.501.131-.594-.18zm12.232 2.705c-.679.752-1.503.326-1.913.699a.5.5 0 01-.263.125 16.067 16.067 0 01-6.343-.169c2.193.149 5.248.318 7.337-.369a7.489 7.489 0 011.182-.286z" fill="#5F5C50"/><circle cx="173.55" cy="176.905" r="3.058" fill="#C3BAA9"/><path d="M226.853 147.276c-14.283-2.263-32.918-3.632-53.304-3.632-20.385 0-39.02 1.369-53.303 3.632 3.523-26.294 26.045-46.573 53.303-46.573 27.259 0 49.781 20.279 53.304 46.573z" fill="#D3E47A"/><path d="M144.639 123.194c3.741-12.773 11.621-18.828 14.667-20.578-6.802 1.488-19.982 8.111-27.635 17.734-7.653 9.624-10.558 22.09-11.054 27.12l20.62-2.405c-.425-1.969-.34-9.099 3.402-21.871z" fill="#B7C764"/><path d="M410 361.703V261.051c0-10.793-13.068-16.175-20.669-8.513-4.728 4.766-12.434 4.766-17.162 0l-6.044-6.093c-8.058-8.122-21.192-8.122-29.25 0-8.058 8.123-21.192 8.123-29.25 0-8.058-8.122-21.192-8.122-29.25 0-8.058 8.123-21.192 8.123-29.25 0-8.058-8.122-21.192-8.122-29.25 0-8.058 8.123-21.192 8.123-29.25 0-8.058-8.122-21.192-8.122-29.25 0-8.058 8.123-21.192 8.123-29.25 0-8.058-8.122-21.192-8.122-29.25 0-8.058 8.123-21.192 8.123-29.25 0-8.058-8.122-21.192-8.122-29.25 0-8.058 8.123-21.192 8.123-29.25 0-8.058-8.122-21.192-8.122-29.25 0l-6.044 6.093c-4.728 4.766-12.434 4.766-17.162 0-7.6-7.662-20.669-2.28-20.669 8.513v100.652h468z" fill="#0E739C"/></g></svg>