<svg width="348" height="354" fill="none" xmlns="http://www.w3.org/2000/svg"><path opacity=".5" d="M290.755 43.957c24.523 23.442 29.546 67.808 32.247 108.799 2.701 40.992 3.124 78.611-12.704 107.22-15.786 28.566-47.864 48.08-81.335 57.986-33.513 9.906-68.419 10.162-93.575-4.441-25.156-14.603-40.562-44.066-62.426-73.871-21.864-29.804-50.185-59.95-58.163-98.978-7.977-39.07 4.432-87.022 35.033-109.354C80.475 8.943 129.31 12.146 175.738 15.05c46.429 2.903 90.494 5.465 115.017 28.907z" fill="#C5E1EC"/><path d="M126.689 338.862c-33.035-7.719-59.916-43.369-83.083-77.294C20.44 227.643.95 195.464.035 162.781c-.93-32.624 16.772-65.737 40.558-91.284 23.822-25.57 53.75-43.537 82.836-43.751 29.087-.215 57.332 17.324 91.313 31.873 33.98 14.55 73.694 26.11 100.406 55.661 26.733 29.588 40.427 77.189 25.43 111.977-15.012 34.847-58.692 56.917-100.149 78.022-41.457 21.104-80.704 41.302-113.74 33.583z" fill="#C5E1EC"/><mask id="a" style="mask-type:alpha" maskUnits="userSpaceOnUse" x="0" y="27" width="348" height="314"><path d="M127.131 338.862c-33.035-7.719-59.916-43.369-83.083-77.294S1.392 195.464.476 162.781c-.93-32.624 16.772-65.737 40.558-91.284 23.822-25.57 53.75-43.537 82.837-43.751 29.086-.215 57.332 17.324 91.312 31.873 33.98 14.55 73.695 26.11 100.406 55.661 26.734 29.588 40.427 77.189 25.43 111.977-15.011 34.847-58.692 56.917-100.148 78.022-41.457 21.104-80.705 41.302-113.74 33.583z" fill="#C5E1EC"/></mask><g mask="url(#a)"><path d="M387.884 299V198.347c0-10.792-13.068-16.174-20.669-8.513-4.728 4.766-12.434 4.766-17.162 0l-6.044-6.092c-8.058-8.123-21.192-8.123-29.25 0s-21.192 8.123-29.25 0-21.192-8.123-29.25 0-21.192 8.123-29.25 0-21.192-8.123-29.25 0-21.192 8.123-29.25 0-21.192-8.123-29.25 0-21.192 8.123-29.25 0-21.192-8.123-29.25 0-21.192 8.123-29.25 0-21.192-8.123-29.25 0-21.192 8.123-29.25 0-21.192-8.123-29.25 0l-6.044 6.092c-4.728 4.766-12.434 4.766-17.162 0-7.601-7.661-20.67-2.279-20.67 8.513V299h468.001z" fill="#278DB6"/><path d="M51.989 228.427c.49-1.715-3.062-3.368-4.899-3.98 1.633-3.878 7.41-13.563 17.451-21.278 10.042-7.715 23.676-10.052 29.238-10.256V180.82c-5.715.306-19.808 2.755-30.462 10.103-10.655 7.348-18.217 18.879-20.666 23.727-.459.153-1.96.796-4.286 2.143-2.327 1.347-3.827 3.929-4.286 5.051-2.296 1.225-6.705 3.858-5.97 4.593.735.734 4.388-1.633 6.123-2.909l1.225 1.378c-2.45 2.398-6.736 7.317-4.287 7.807 2.45.49 5.001-4.695 5.97-7.348l1.684.919c-2.296 4.184-6.184 12.46-3.367 12.093 2.816-.368 5.255-7.195 6.123-10.563l1.837.766c-.868 2.449-2.082 7.439 0 7.807 2.081.367 3.112-5.97 3.367-9.185 1.531 1.123 4.715 2.939 5.205 1.225z" fill="#E9DFD3"/><path fill-rule="evenodd" clip-rule="evenodd" d="M46.51 229.605c-.472 3.222-1.459 7.07-3.094 6.781-1.285-.227-1.314-2.216-.944-4.282a23.68 23.68 0 01.944-3.525l-1.837-.765-.027.105a38.81 38.81 0 01-1.153 3.612c-1.192 3.18-2.975 6.589-4.943 6.845-1.745.228-.916-2.864.514-6.245a67.51 67.51 0 012.703-5.571l.15-.277-1.683-.918a23.168 23.168 0 01-.605 1.491 29.29 29.29 0 01-.226.497c-.59 1.262-1.353 2.632-2.198 3.675-.92 1.136-1.94 1.885-2.94 1.685-2.087-.418.712-4.047 3.101-6.596a46.41 46.41 0 011.061-1.091l.123-.12-1.224-1.378-.073.053c-.363.265-.803.574-1.28.889-.868.577-1.857 1.178-2.718 1.59-.954.456-1.75.679-2.053.376-.311-.311.303-.965 1.289-1.707 1.097-.827 2.653-1.763 3.907-2.462.276-.154.536-.296.774-.423.117-.286.302-.666.55-1.096.727-1.261 2.002-2.951 3.737-3.955 2.326-1.347 3.827-1.99 4.286-2.143 2.449-4.848 10.011-16.38 20.665-23.727 9.497-6.55 21.727-9.208 28.32-9.924a38.744 38.744 0 012.142-.179v12.093c-5.561.204-19.195 2.541-29.237 10.256-8.637 6.636-14.119 14.729-16.522 19.33-.391.749-.7 1.405-.929 1.947.557.186 1.27.467 1.982.816 1.636.804 3.258 1.969 2.916 3.164-.318 1.114-1.771.738-3.171.031a15.155 15.155 0 01-2.033-1.255c-.055.69-.145 1.523-.274 2.403zm2 1.074a28.766 28.766 0 01-.663 3.043c-.295 1.039-.699 2.151-1.277 3.021-.527.796-1.697 2.077-3.526 1.754-1.379-.243-2.148-1.189-2.528-2.097a13.457 13.457 0 01-1.41 2.04c-.761.888-1.884 1.867-3.373 2.061-.87.114-1.958-.087-2.711-1.032-.616-.774-.697-1.687-.694-2.251.005-.775.182-1.656.434-2.537a3.89 3.89 0 01-2.012.133c-.708-.142-1.523-.526-2.034-1.371-.478-.792-.461-1.619-.367-2.176.16-.947.674-1.9 1.18-2.683a4.04 4.04 0 01-1.056.133c-.468-.008-1.243-.129-1.88-.765a2.41 2.41 0 01-.69-1.408 2.56 2.56 0 01.152-1.224c.205-.54.556-.955.79-1.204.505-.54 1.212-1.081 1.888-1.551 1.161-.809 2.576-1.645 3.702-2.267.777-1.527 2.404-3.941 4.856-5.36 1.663-.963 2.967-1.607 3.826-1.982 2.881-5.386 10.44-16.526 20.982-23.798 11.1-7.654 25.63-10.16 31.565-10.478l2.257-.121v16.42l-2.064.075c-5.314.195-18.451 2.47-28.01 9.814-8.277 6.359-13.537 14.1-15.845 18.464.543.266 1.092.57 1.598.908.626.417 1.319.971 1.826 1.673.523.725.988 1.826.623 3.102a3.084 3.084 0 01-1.004 1.555 3.138 3.138 0 01-1.572.67c-.911.124-1.8-.12-2.427-.347a9.267 9.267 0 01-.535-.214zm-18.573-3.593a.1.1 0 00-.012.015l.012-.015z" fill="#fff"/><path d="M263.611 228.427c-.49-1.715 3.061-3.368 4.898-3.98-1.633-3.878-7.409-13.563-17.451-21.278-10.041-7.715-23.675-10.052-29.237-10.256V180.82c5.715.306 19.808 2.755 30.462 10.103s18.216 18.879 20.665 23.727c.46.153 1.96.796 4.287 2.143 2.326 1.347 3.826 3.929 4.286 5.051 2.296 1.225 6.704 3.858 5.97 4.593-.735.734-4.389-1.633-6.123-2.909l-1.225 1.378c2.449 2.398 6.735 7.317 4.286 7.807-2.449.49-5-4.695-5.97-7.348l-1.684.919c2.296 4.184 6.185 12.46 3.368 12.093-2.817-.368-5.256-7.195-6.123-10.563l-1.837.766c.867 2.449 2.082 7.439 0 7.807-2.082.367-3.113-5.97-3.368-9.185-1.53 1.123-4.714 2.939-5.204 1.225z" fill="#E9DFD3"/><path fill-rule="evenodd" clip-rule="evenodd" d="M269.09 229.605c.472 3.222 1.458 7.07 3.093 6.781 1.286-.227 1.315-2.216.944-4.282a23.56 23.56 0 00-.944-3.525l1.837-.765.028.105a37.72 37.72 0 001.153 3.612c1.192 3.18 2.975 6.589 4.942 6.845 1.746.228.916-2.864-.513-6.245-.828-1.956-1.857-4.009-2.704-5.571l-.15-.277 1.684-.918a23.783 23.783 0 00.831 1.988c.59 1.262 1.353 2.632 2.198 3.675.92 1.136 1.939 1.885 2.941 1.685 2.085-.418-.713-4.047-3.103-6.596a43.7 43.7 0 00-1.061-1.091l-.123-.12 1.225-1.378.072.053c.364.265.804.574 1.28.889.869.577 1.858 1.178 2.718 1.59.954.456 1.751.679 2.053.376.312-.311-.302-.965-1.288-1.707-1.097-.827-2.654-1.763-3.908-2.462a43.532 43.532 0 00-.774-.423 9.401 9.401 0 00-.549-1.096c-.727-1.261-2.002-2.951-3.737-3.955-2.327-1.347-3.827-1.99-4.286-2.143-2.449-4.848-10.011-16.38-20.666-23.727-9.497-6.55-21.727-9.208-28.319-9.924a38.712 38.712 0 00-2.143-.179v12.093c5.562.204 19.196 2.541 29.238 10.256 8.637 6.636 14.118 14.729 16.522 19.33.391.749.7 1.405.929 1.947a16.56 16.56 0 00-1.982.816c-1.636.804-3.258 1.969-2.917 3.164.318 1.114 1.772.738 3.172.031a15.166 15.166 0 002.033-1.255c.054.69.145 1.523.274 2.403zm-2.001 1.074c.17 1.02.389 2.074.664 3.043.294 1.039.699 2.151 1.276 3.021.528.796 1.698 2.077 3.527 1.754 1.379-.243 2.147-1.189 2.527-2.097.423.735.893 1.436 1.411 2.04.761.888 1.883 1.867 3.372 2.061.871.114 1.959-.087 2.712-1.032.616-.774.696-1.687.693-2.251-.004-.775-.181-1.656-.433-2.537a3.89 3.89 0 002.012.133c.707-.142 1.523-.526 2.033-1.371.479-.792.462-1.619.368-2.176-.16-.947-.674-1.9-1.181-2.683.305.077.669.14 1.056.133.468-.008 1.244-.129 1.88-.765.374-.374.622-.863.691-1.408a2.563 2.563 0 00-.153-1.224c-.204-.54-.555-.955-.789-1.204-.506-.54-1.212-1.081-1.888-1.551-1.162-.809-2.577-1.645-3.702-2.267-.778-1.527-2.404-3.941-4.856-5.36-1.664-.963-2.967-1.607-3.826-1.982-2.882-5.386-10.44-16.526-20.983-23.798-11.099-7.654-25.63-10.16-31.564-10.478l-2.258-.121v16.42l2.065.075c5.314.195 18.451 2.47 28.01 9.814 8.276 6.359 13.537 14.1 15.845 18.464a13.95 13.95 0 00-1.599.908c-.625.417-1.318.971-1.825 1.673-.523.725-.988 1.826-.623 3.102a3.083 3.083 0 001.003 1.555c.51.417 1.079.602 1.573.67.911.124 1.8-.12 2.427-.347.178-.065.357-.136.535-.214zm18.574-3.593z" fill="#fff"/><path d="M144.518 151.168c-.49 1.714 3.061 3.367 4.898 3.98-1.632 3.877-7.409 13.562-17.45 21.277-10.042 7.715-23.676 10.052-29.238 10.256v12.093c5.715-.306 19.808-2.755 30.462-10.103 10.654-7.347 18.216-18.879 20.666-23.727.459-.153 1.959-.796 4.286-2.143 2.327-1.347 3.827-3.929 4.286-5.051 2.296-1.225 6.705-3.858 5.97-4.592-.735-.735-4.388 1.632-6.123 2.908l-1.225-1.378c2.449-2.398 6.736-7.317 4.286-7.807-2.449-.489-5 4.695-5.97 7.348l-1.683-.918c2.296-4.184 6.184-12.461 3.367-12.093-2.816.367-5.255 7.194-6.123 10.562l-1.837-.765c.868-2.45 2.082-7.44 0-7.807-2.082-.368-3.112 5.97-3.367 9.184-1.531-1.122-4.715-2.939-5.205-1.224z" fill="#E9DFD3"/><path fill-rule="evenodd" clip-rule="evenodd" d="M149.997 149.989c.472-3.222 1.459-7.07 3.094-6.781 1.285.227 1.314 2.217.943 4.282a23.654 23.654 0 01-.943 3.525l1.837.765.027-.105a37.748 37.748 0 011.153-3.612c1.192-3.18 2.975-6.588 4.943-6.845 1.745-.228.916 2.864-.514 6.245-.828 1.956-1.857 4.01-2.703 5.572l-.151.276 1.684.918a23.83 23.83 0 01.605-1.491c.072-.163.147-.329.226-.496.591-1.263 1.353-2.633 2.198-3.676.92-1.136 1.939-1.885 2.941-1.684 2.085.417-.713 4.046-3.102 6.595a44.099 44.099 0 01-1.062 1.091l-.122.121 1.224 1.377.073-.053c.363-.265.803-.573 1.279-.889.869-.577 1.858-1.178 2.719-1.59.953-.456 1.75-.679 2.052-.376.312.312-.302.965-1.288 1.708-1.097.826-2.654 1.762-3.907 2.461-.276.154-.537.296-.775.423a9.401 9.401 0 01-.549 1.096c-.727 1.261-2.002 2.951-3.737 3.956-2.327 1.347-3.827 1.99-4.286 2.143-2.449 4.847-10.011 16.379-20.665 23.727-9.497 6.549-21.727 9.207-28.319 9.924-.804.087-1.523.145-2.143.179v-12.093c5.561-.205 19.195-2.541 29.237-10.257 8.637-6.635 14.119-14.728 16.522-19.33.391-.749.7-1.405.929-1.947a16.56 16.56 0 01-1.982-.816c-1.636-.804-3.258-1.969-2.917-3.164.318-1.113 1.772-.738 3.172-.031.756.383 1.496.862 2.033 1.255.055-.689.145-1.523.274-2.403zm-2.001-1.074c.17-1.02.39-2.074.664-3.042.295-1.04.699-2.152 1.276-3.022.528-.795 1.698-2.076 3.527-1.754 1.379.244 2.148 1.189 2.528 2.097.422-.735.892-1.436 1.41-2.039.761-.888 1.884-1.868 3.372-2.062.871-.114 1.959.087 2.712 1.032.616.774.697 1.687.694 2.251-.005.775-.182 1.656-.434 2.537a3.9 3.9 0 012.012-.133c.708.142 1.523.526 2.034 1.371.478.792.461 1.62.367 2.176-.16.947-.674 1.9-1.181 2.683.305-.077.669-.14 1.057-.133.468.008 1.243.129 1.88.765.373.374.622.864.69 1.409.063.505-.043.932-.153 1.223-.204.541-.555.955-.788 1.204-.506.54-1.213 1.081-1.889 1.551-1.162.809-2.576 1.645-3.702 2.267-.777 1.527-2.404 3.941-4.856 5.36-1.664.963-2.967 1.607-3.826 1.982-2.882 5.386-10.439 16.527-20.983 23.798-11.099 7.654-25.629 10.161-31.564 10.479l-2.258.121v-16.42l2.065-.076c5.314-.195 18.451-2.47 28.01-9.814 8.276-6.358 13.537-14.1 15.845-18.463a14.044 14.044 0 01-1.599-.909c-.625-.417-1.318-.971-1.825-1.673-.523-.725-.988-1.826-.623-3.102a3.076 3.076 0 011.003-1.554 3.123 3.123 0 011.573-.67c.911-.125 1.8.119 2.427.346.178.065.357.137.535.214zm18.574 3.593a.114.114 0 00.012-.015l-.012.015z" fill="#fff"/><path d="M122.935 224.328c0 13.527-10.966 24.492-24.493 24.492-13.526 0-24.492-10.965-24.492-24.492 0-13.526 1.684-54.342 24.492-54.342 22.809 0 24.493 40.816 24.493 54.342z" fill="#E9DFD3"/><path fill-rule="evenodd" clip-rule="evenodd" d="M74.052 218.511c.59-16.774 4.274-48.525 24.39-48.525 20.117 0 23.801 31.751 24.39 48.525h.103c0 .627-.016 1.253-.047 1.877.035 1.479.047 2.806.047 3.94 0 13.527-10.966 24.492-24.493 24.492-13.526 0-24.492-10.965-24.492-24.492 0-1.134.012-2.461.047-3.94a37.471 37.471 0 01-.047-1.877h.102zm3.677 0h41.427c-.255-7.09-1.073-16.785-3.457-25.452-1.57-5.709-3.741-10.666-6.63-14.132-2.795-3.354-6.2-5.267-10.627-5.267-4.426 0-7.831 1.913-10.627 5.267-2.888 3.466-5.06 8.423-6.63 14.132-2.384 8.667-3.201 18.362-3.456 25.452z" fill="#fff"/><path d="M137.018 144.575c0 21.305-17.271 38.575-38.576 38.575-21.304 0-38.575-17.27-38.575-38.575 0-21.305 17.27-38.575 38.575-38.575 21.305 0 38.576 17.27 38.576 38.575z" fill="#E9DFD3"/><path fill-rule="evenodd" clip-rule="evenodd" d="M98.442 180.701c19.952 0 36.126-16.174 36.126-36.126 0-19.952-16.174-36.126-36.126-36.126-19.951 0-36.126 16.174-36.126 36.126 0 19.952 16.175 36.126 36.126 36.126zm0 2.449c21.305 0 38.576-17.27 38.576-38.575 0-21.305-17.271-38.575-38.576-38.575-21.304 0-38.575 17.27-38.575 38.575 0 21.305 17.27 38.575 38.575 38.575z" fill="#fff"/><path d="M79.509 149.403l-.923-.604a.178.178 0 00-.212.002c-.583.395-.172.978-.12 1.481-.37-.417-.482-.874-.335-1.372a.281.281 0 01.117-.161c.64-.44 1.082.136 1.473.654z" fill="#5F5C50"/><path d="M118.108 149.958l.002-.82a.293.293 0 00-.071-.193c-.189-.222-.445-.304-.77-.245.885-.598 1.491.636.839 1.258z" fill="#AAA"/><path d="M78.254 150.281c-.052-.503-.464-1.086.12-1.48a.175.175 0 01.211-.002l.923.604.694.572c.079.21.236.294.472.254.389.168.607.037.656-.392 1.1-1.171 2.664-1.579 4.1-.732 1.977 1.164 2.786 3.025 2.427 5.582-.274 1.946-1.227 3.124-2.859 3.534-3.479.877-5.198-2.747-4.903-5.578a1.554 1.554 0 00-.15-.875.201.201 0 00-.156-.117c-.773-.144-1.285-.601-1.535-1.37zm3.783.061c-.514.159-.777.524-.788 1.093-.004.261.116.418.36.472.493.859 1.955 1.13 2.324 0a1.42 1.42 0 00-.052-1.364c-.555-.555-1.17-.622-1.844-.201zm4.004 6.319l-.072-.816a.286.286 0 00-.308-.26l-.262.023a.78.78 0 00-.502.242.668.668 0 00-.14.232.626.626 0 00-.033.262l.004.042a.624.624 0 00.078.252.668.668 0 00.178.203.736.736 0 00.251.125c.092.026.19.035.286.026l.26-.023a.283.283 0 00.26-.308zm31.228-7.961c.324-.059.581.023.769.245a.29.29 0 01.072.193l-.002.82a3.401 3.401 0 01-1.454 1.701c-.398.237-.579.606-.547 1.032.06.826.008 1.606-.157 2.338-.653 2.896-4.379 4.534-6.529 2.106-1.829-2.066-1.602-5.962.585-7.709 1.307-1.043 3.339-1.212 4.551.272.912 1.118 2.083-.442 2.712-.998zm-7.454 1.948c-.332.369-.42.806-.262 1.311.569 1.307 2.666 1.04 2.412-.472.141-.293.094-.556-.14-.786-.37-.77-1.517-.485-2.01-.053zm3.398 6.457a.527.527 0 00.234.023.602.602 0 00.234-.082.714.714 0 00.198-.175.818.818 0 00.177-.513.74.74 0 00-.048-.259.61.61 0 00-.134-.209.527.527 0 00-.668-.068.73.73 0 00-.198.175.837.837 0 00-.177.513c.001.092.017.18.048.26a.62.62 0 00.134.209c.057.057.125.1.2.126z" fill="#211814"/><path d="M81.33 149.837c-.049.429-.267.559-.656.392.26-.02.479-.151.656-.392zm-1.128.138a.69.69 0 01.472.254c-.236.041-.394-.044-.472-.254z" fill="#5F5C50"/><path d="M83.88 150.544l.053 1.363c-.37 1.13-1.83.86-2.324 0-.197-.618-.054-1.14.428-1.565.674-.421 1.288-.353 1.843.202zm27.945.156l.141.787c.253 1.512-1.844 1.778-2.412.472-.05-.323.019-.603.208-.839a.282.282 0 00.06-.185l-.006-.287c.493-.432 1.64-.717 2.009.052z" fill="#fff"/><path d="M82.037 150.343c-.483.425-.625.946-.428 1.564-.245-.053-.365-.21-.36-.472.01-.569.273-.933.788-1.092z" fill="#5F5C50"/><path d="M83.88 150.544c.251.443.269.897.053 1.363l-.052-1.363zm25.936.104l.006.287a.28.28 0 01-.061.185 1.031 1.031 0 00-.207.839c-.158-.505-.071-.942.262-1.311z" fill="#AAA"/><path d="M111.825 150.701c.235.231.282.493.141.786l-.141-.786z" fill="#5F5C50"/><path d="M121.096 165.067c-2.217-.16-4.023-1.158-4.75-3.293-.3-.878-.676-2.139-.321-3.041.303-.768.52-1.37.65-1.805.331-1.103 1.373-1.745 2.573-2.355 4.213-2.148 9.108 2.638 7.489 6.843-.938 2.437-2.936 3.846-5.641 3.651zm-39.872-4.207c.562 1.094-1.44 4.114-2.439 4.735-3.196 1.986-6.306.499-8.156-2.391-1.594-2.493.44-6.388 2.99-7.361 3.576-1.365 6.578.636 7.802 3.949a.292.292 0 01.002.204l-.216.643a.277.277 0 00.017.221z" fill="#DFC4BD"/><path d="M86.041 156.661a.286.286 0 01-.26.308l-.26.023a.805.805 0 01-.285-.026.735.735 0 01-.251-.125.668.668 0 01-.178-.203.624.624 0 01-.079-.252l-.004-.042a.624.624 0 01.033-.262.668.668 0 01.14-.232.76.76 0 01.502-.242l.263-.023a.284.284 0 01.308.26l.071.816z" fill="#E9DFD3"/><path d="M112.877 156.238c-.127.371.023.758.337.866.313.108.67-.105.797-.475.128-.37-.023-.758-.336-.866-.313-.107-.67.105-.798.475z" fill="#fff"/><path d="M106.586 165.862a5.842 5.842 0 00-1.42 1.72l-.996.873c-.035.03-.073.037-.115.018a.101.101 0 00-.093.009c-.629.397-1.191.694-1.688.891a5.442 5.442 0 00-.851.206c-1.504.495-3.704.373-5.283.266-2.422-.363-5.176-1.806-6.3-4.098a1.037 1.037 0 01-.052-.577c.633-.589.843.2 1.147.523a7.434 7.434 0 001.745 1.373.85.85 0 00.786.359c.067.224.21.267.428.13 3.12 1.183 7.573 1.149 10.335-.904.639-.474 1.33-1.248 2.074-2.324.172-.251.367-.365.61-.528a.23.23 0 01.18-.034c.867.177-.197 1.691-.507 2.097z" fill="#211814"/><path d="M89.789 165.172c-.038.192-.02.385.052.576l-.279-.293c-.037-.04-.038-.08-.002-.122a.661.661 0 01.229-.161zm16.798.691a4.698 4.698 0 01-1.42 1.72 5.8 5.8 0 011.42-1.72zm-13.907 1.204c.297.041.56.16.787.359a.85.85 0 01-.787-.359z" fill="#5F5C50"/><path d="M93.467 167.426l.428.13c-.218.137-.361.093-.428-.13zm8.808 1.948c-.489.541-1.082.235-1.378.503a.355.355 0 01-.189.09 11.568 11.568 0 01-4.567-.121c1.579.107 3.779.228 5.283-.267.276-.09.56-.159.851-.205z" fill="#5F5C50"/><circle cx="98.29" cy="160.872" r="2.202" fill="#C3BAA9"/><path d="M136.672 139.537c-10.285-1.63-23.704-2.616-38.383-2.616-14.68 0-28.099.986-38.384 2.616C62.442 120.602 78.66 106 98.29 106c19.628 0 35.846 14.602 38.383 33.537z" fill="#D3E47A"/><path d="M77.47 122.195c2.695-9.197 8.369-13.557 10.563-14.817-4.899 1.071-14.39 5.84-19.9 12.77-5.511 6.929-7.603 15.906-7.96 19.529l14.848-1.733c-.306-1.417-.245-6.551 2.45-15.749z" fill="#B7C764"/><path d="M171.082 151.168c.49 1.714-3.062 3.367-4.899 3.98 1.633 3.878 7.409 13.562 17.451 21.277 10.042 7.715 23.676 10.052 29.238 10.257v12.093c-5.715-.307-19.809-2.756-30.463-10.103-10.654-7.348-18.216-18.88-20.665-23.727-.459-.153-1.959-.796-4.286-2.143-2.327-1.347-3.827-3.929-4.286-5.052-2.296-1.224-6.705-3.857-5.97-4.592.734-.735 4.388 1.633 6.123 2.908l1.224-1.377c-2.449-2.399-6.735-7.317-4.286-7.807 2.449-.49 5.001 4.694 5.97 7.347l1.684-.918c-2.296-4.184-6.184-12.46-3.368-12.093 2.817.367 5.256 7.194 6.123 10.562l1.837-.765c-.867-2.449-2.081-7.44 0-7.807 2.082-.368 3.113 5.97 3.368 9.184 1.531-1.122 4.715-2.939 5.205-1.224z" fill="#E9DFD3"/><path fill-rule="evenodd" clip-rule="evenodd" d="M165.604 149.989c-.472-3.222-1.459-7.069-3.094-6.781-1.286.227-1.314 2.217-.944 4.282.23 1.28.612 2.588.944 3.525l-1.837.765a37.024 37.024 0 00-.605-2.069 39.122 39.122 0 00-.575-1.648c-1.192-3.18-2.976-6.588-4.943-6.845-1.746-.228-.916 2.865.514 6.245.827 1.957 1.856 4.01 2.703 5.572l.151.276-1.684.919a23.185 23.185 0 00-.605-1.491 29.29 29.29 0 00-.226-.497c-.591-1.263-1.353-2.632-2.198-3.675-.921-1.137-1.94-1.885-2.941-1.685-2.086.417.713 4.046 3.102 6.595a44.165 44.165 0 001.061 1.091l.123.121-1.225 1.378-.072-.054a36.675 36.675 0 00-1.28-.889c-.869-.576-1.857-1.178-2.718-1.589-.954-.456-1.75-.679-2.053-.377-.311.312.303.965 1.288 1.708 1.097.826 2.654 1.763 3.908 2.462.275.153.536.295.774.422.117.286.301.666.55 1.097.727 1.26 2.002 2.951 3.736 3.955 2.327 1.347 3.827 1.99 4.287 2.143 2.449 4.847 10.011 16.379 20.665 23.727 9.497 6.55 21.727 9.207 28.319 9.924a39.71 39.71 0 002.143.179v-12.093c-5.562-.204-19.196-2.541-29.238-10.256-8.637-6.636-14.118-14.729-16.521-19.331a26.172 26.172 0 01-.929-1.947 16.53 16.53 0 001.982-.816c1.636-.804 3.258-1.969 2.916-3.164-.318-1.113-1.772-.738-3.171-.03-.756.382-1.497.861-2.033 1.255a38.12 38.12 0 00-.274-2.404zm2-1.074a28.693 28.693 0 00-.663-3.042c-.295-1.04-.699-2.151-1.277-3.022-.528-.795-1.697-2.076-3.526-1.753-1.379.243-2.148 1.188-2.528 2.096-.423-.735-.893-1.436-1.41-2.039-.762-.888-1.884-1.868-3.373-2.062-.871-.114-1.959.087-2.711 1.032-.617.774-.697 1.687-.694 2.251.004.775.182 1.657.434 2.537a3.9 3.9 0 00-2.012-.133c-.708.142-1.523.526-2.034 1.371-.479.793-.461 1.62-.367 2.176.159.947.674 1.901 1.18 2.684a4.035 4.035 0 00-1.056-.134c-.468.008-1.244.129-1.88.766a2.404 2.404 0 00-.69 1.408c-.064.505.042.932.152 1.223.205.541.556.955.789 1.204.506.541 1.213 1.081 1.888 1.551 1.162.809 2.577 1.645 3.703 2.267.777 1.528 2.404 3.941 4.856 5.361 1.663.963 2.966 1.606 3.825 1.981 2.882 5.386 10.44 16.527 20.983 23.798 11.099 7.655 25.63 10.161 31.564 10.479l2.258.121v-16.42l-2.064-.076c-5.314-.195-18.452-2.47-28.011-9.814-8.276-6.358-13.537-14.1-15.844-18.463a14.176 14.176 0 001.598-.908c.626-.417 1.319-.971 1.826-1.674.522-.724.987-1.826.623-3.102a3.078 3.078 0 00-1.004-1.554 3.117 3.117 0 00-1.572-.67c-.912-.124-1.8.12-2.427.347a9.47 9.47 0 00-.536.213zm-18.574 3.593l-.011-.015.011.015z" fill="#fff"/><path d="M242.027 224.328c0 13.527-10.965 24.492-24.492 24.492-13.526 0-24.492-10.965-24.492-24.492 0-13.526 1.684-54.342 24.492-54.342 22.809 0 24.492 40.816 24.492 54.342z" fill="#E9DFD3"/><path fill-rule="evenodd" clip-rule="evenodd" d="M193.145 218.511c.59-16.774 4.273-48.525 24.39-48.525s23.801 31.751 24.39 48.525h.102c0 .627-.015 1.253-.047 1.877.036 1.479.047 2.806.047 3.94 0 13.527-10.965 24.492-24.492 24.492-13.527 0-24.492-10.965-24.492-24.492 0-1.134.012-2.461.047-3.94a37.833 37.833 0 01-.047-1.877h.102zm3.677 0h41.427c-.255-7.09-1.073-16.785-3.457-25.452-1.57-5.709-3.741-10.666-6.63-14.132-2.795-3.354-6.2-5.267-10.627-5.267-4.426 0-7.831 1.913-10.627 5.267-2.889 3.466-5.059 8.423-6.63 14.132-2.384 8.667-3.201 18.362-3.456 25.452z" fill="#fff"/><path d="M256.111 144.575c0 21.305-17.27 38.575-38.575 38.575-21.304 0-38.575-17.27-38.575-38.575 0-21.305 17.271-38.575 38.575-38.575 21.305 0 38.575 17.27 38.575 38.575z" fill="#E9DFD3"/><path fill-rule="evenodd" clip-rule="evenodd" d="M217.536 180.701c19.952 0 36.126-16.174 36.126-36.126 0-19.952-16.174-36.126-36.126-36.126-19.952 0-36.126 16.174-36.126 36.126 0 19.952 16.174 36.126 36.126 36.126zm0 2.449c21.305 0 38.575-17.27 38.575-38.575 0-21.305-17.27-38.575-38.575-38.575-21.304 0-38.575 17.27-38.575 38.575 0 21.305 17.271 38.575 38.575 38.575z" fill="#fff"/><path d="M198.602 149.403l-.922-.604a.179.179 0 00-.212.002c-.583.395-.172.978-.12 1.481-.37-.417-.482-.874-.335-1.372a.277.277 0 01.117-.161c.64-.44 1.082.136 1.472.654z" fill="#5F5C50"/><path d="M237.202 149.958l.002-.82a.293.293 0 00-.071-.193c-.189-.222-.445-.304-.77-.245.885-.598 1.491.636.839 1.258z" fill="#AAA"/><path d="M197.348 150.281c-.053-.503-.464-1.086.119-1.48a.176.176 0 01.212-.002l.923.604.694.572c.078.21.236.294.472.254.388.168.607.037.656-.392 1.099-1.171 2.664-1.579 4.1-.732 1.977 1.164 2.786 3.025 2.427 5.582-.275 1.946-1.227 3.124-2.859 3.534-3.479.877-5.199-2.747-4.903-5.578a1.551 1.551 0 00-.151-.875.201.201 0 00-.155-.117c-.773-.144-1.285-.601-1.535-1.37zm3.783.061c-.515.159-.777.524-.789 1.093-.004.261.116.418.361.472.493.859 1.955 1.13 2.324 0 .215-.466.198-.92-.053-1.364-.555-.555-1.169-.622-1.843-.201zm4.003 6.319l-.071-.816a.284.284 0 00-.308-.26l-.262.023a.777.777 0 00-.503.242.634.634 0 00-.173.494l.005.042a.613.613 0 00.078.252.676.676 0 00.178.203.782.782 0 00.536.151l.26-.023a.282.282 0 00.26-.308zm31.229-7.961c.325-.059.581.023.77.245a.288.288 0 01.071.193l-.002.82a3.395 3.395 0 01-1.453 1.701c-.399.237-.579.606-.547 1.032.06.826.007 1.606-.158 2.338-.652 2.896-4.379 4.534-6.528 2.106-1.829-2.066-1.602-5.962.585-7.709 1.307-1.043 3.339-1.212 4.551.272.912 1.118 2.082-.442 2.711-.998zm-7.453 1.948c-.333.369-.42.806-.262 1.311.568 1.307 2.666 1.04 2.412-.472.141-.293.094-.556-.141-.786-.369-.77-1.516-.485-2.009-.053zm3.397 6.457a.533.533 0 00.235.023c.08-.01.16-.038.234-.082a.728.728 0 00.198-.175.816.816 0 00.128-.772.582.582 0 00-.134-.209.516.516 0 00-.434-.15.608.608 0 00-.234.082.726.726 0 00-.197.175.813.813 0 00-.129.773.605.605 0 00.134.209.53.53 0 00.199.126z" fill="#211814"/><path d="M200.425 149.837c-.049.429-.268.559-.657.392.26-.02.479-.151.657-.392z" fill="#5F5C50"/><path d="M199.297 149.975a.693.693 0 01.472.254c-.237.041-.394-.044-.472-.254z" fill="#5F5C50"/><path d="M202.975 150.544l.053 1.363c-.37 1.13-1.831.86-2.324 0-.197-.618-.055-1.14.428-1.565.674-.421 1.288-.353 1.843.202zm27.944.156l.14.787c.254 1.512-1.843 1.778-2.411.472a1.031 1.031 0 01.207-.839.283.283 0 00.061-.185l-.006-.287c.493-.432 1.64-.717 2.009.052z" fill="#fff"/><path d="M201.13 150.343c-.482.425-.625.946-.427 1.564-.245-.053-.365-.21-.361-.472.011-.569.274-.933.788-1.092z" fill="#5F5C50"/><path d="M202.974 150.544c.251.443.268.897.053 1.363l-.053-1.363zm25.936.104l.006.287a.286.286 0 01-.061.185 1.028 1.028 0 00-.207.839c-.158-.505-.071-.942.262-1.311z" fill="#AAA"/><path d="M230.919 150.701c.235.231.282.493.14.786l-.14-.786z" fill="#5F5C50"/><path d="M240.19 165.067c-2.216-.16-4.022-1.158-4.75-3.293-.3-.878-.675-2.139-.321-3.041.304-.768.521-1.37.651-1.805.331-1.103 1.373-1.745 2.573-2.355 4.213-2.148 9.108 2.638 7.489 6.843-.938 2.437-2.936 3.846-5.642 3.651zm-39.873-4.207c.562 1.094-1.441 4.114-2.439 4.735-3.196 1.986-6.306.499-8.156-2.391-1.594-2.493.441-6.388 2.991-7.361 3.575-1.365 6.576.636 7.801 3.949a.292.292 0 01.002.204l-.216.643a.275.275 0 00.017.221z" fill="#DFC4BD"/><path d="M205.135 156.661a.291.291 0 01-.066.208.292.292 0 01-.194.1l-.26.023a.802.802 0 01-.285-.026.73.73 0 01-.251-.125.663.663 0 01-.178-.203.614.614 0 01-.079-.252l-.004-.042a.618.618 0 01.033-.262.668.668 0 01.14-.232.763.763 0 01.502-.242l.262-.023a.287.287 0 01.309.26l.071.816z" fill="#E9DFD3"/><path d="M231.971 156.238c-.127.371.023.758.336.866.313.108.671-.105.798-.475.128-.37-.023-.758-.336-.866-.313-.107-.671.105-.798.475z" fill="#fff"/><path d="M225.681 165.862a5.812 5.812 0 00-1.42 1.72l-.996.873a.102.102 0 01-.116.018.1.1 0 00-.092.009c-.629.397-1.192.694-1.688.891a5.415 5.415 0 00-.851.206c-1.504.495-3.704.373-5.283.266-2.422-.363-5.176-1.806-6.3-4.098a1.031 1.031 0 01-.052-.577c.633-.589.843.2 1.147.523a7.416 7.416 0 001.745 1.373.85.85 0 00.786.359c.067.224.21.267.428.13 3.12 1.183 7.573 1.149 10.335-.904.638-.474 1.33-1.248 2.074-2.324.172-.251.367-.365.61-.528a.23.23 0 01.18-.034c.866.177-.197 1.691-.507 2.097z" fill="#211814"/><path d="M208.882 165.172c-.038.192-.02.385.053.576l-.279-.293c-.038-.04-.039-.08-.002-.122a.655.655 0 01.228-.161zm16.798.691a4.685 4.685 0 01-1.419 1.72 5.811 5.811 0 011.419-1.72zm-13.906 1.204c.297.041.559.16.787.359a.852.852 0 01-.787-.359zm.787.359l.427.13c-.218.137-.36.093-.427-.13zm8.807 1.948c-.488.541-1.082.235-1.377.503a.362.362 0 01-.189.09 11.572 11.572 0 01-4.568-.121c1.58.107 3.779.228 5.283-.267.277-.091.561-.159.851-.205z" fill="#5F5C50"/><circle cx="217.384" cy="160.872" r="2.202" fill="#C3BAA9"/><path d="M255.766 139.537c-10.285-1.63-23.704-2.616-38.384-2.616-14.679 0-28.098.986-38.383 2.616C181.536 120.602 197.754 106 217.382 106c19.629 0 35.847 14.602 38.384 33.537z" fill="#B86D77"/><path d="M196.564 122.195c2.694-9.197 8.368-13.557 10.563-14.817-4.899 1.071-14.39 5.84-19.9 12.77-5.511 6.929-7.603 15.906-7.96 19.529l14.848-1.733c-.306-1.417-.245-6.551 2.449-15.749z" fill="#9A5861"/><path d="M387.884 341V237.634c0-10.788-13.12-16.104-20.629-8.36-4.718 4.865-12.524 4.865-17.242 0l-6.004-6.192c-8.003-8.253-21.247-8.253-29.25 0-8.003 8.254-21.247 8.254-29.25 0-8.003-8.253-21.247-8.253-29.25 0-8.003 8.254-21.247 8.254-29.25 0-8.003-8.253-21.247-8.253-29.25 0-8.003 8.254-21.247 8.254-29.25 0-8.003-8.253-21.247-8.253-29.25 0-8.003 8.254-21.247 8.254-29.25 0-8.003-8.253-21.247-8.253-29.25 0-8.004 8.254-21.247 8.254-29.25 0-8.004-8.253-21.247-8.253-29.25 0-8.004 8.254-21.247 8.254-29.25 0-8.004-8.253-21.247-8.253-29.25 0l-6.004 6.192c-4.718 4.865-12.525 4.865-17.242 0-7.51-7.744-20.63-2.428-20.63 8.36V341h468.001z" fill="#0E739C"/></g></svg>