<svg width="348" height="354" fill="none" xmlns="http://www.w3.org/2000/svg"><path opacity=".5" d="M288.605 132.622c36.938 61.731 57.169 133.052 30.346 168.731-26.785 35.679-100.585 35.679-158.058 26.53-57.472-9.15-98.615-27.485-121.536-60.96-22.883-33.511-27.618-82.197-7.046-134.742C52.882 79.636 98.686 23.233 148.39 21.065c49.744-2.168 103.314 49.863 140.214 111.557z" fill="#C5E1EC"/><path d="M92.24 269.499c-52.86-48.793-88.16-116.2-72.5-158 15.625-41.789 68.956-75.85 126.673-83.296 57.718-7.446 102.364-1.47 133.801 24.172 31.412 25.689 49.699 71.059 44.796 127.274-4.902 56.214-7.197 125.74-54.269 141.851-47.109 16.121-125.685-3.232-178.5-52.001z" fill="#C5E1EC"/><mask id="a" style="mask-type:alpha" maskUnits="userSpaceOnUse" x="16" y="25" width="310" height="303"><path d="M92.24 269.499c-52.86-48.793-88.16-116.2-72.5-158 15.625-41.789 68.956-75.85 126.673-83.296 57.718-7.446 102.364-1.47 133.801 24.172 31.412 25.689 49.699 71.059 44.796 127.274-4.902 56.214-7.197 125.74-54.269 141.851-47.109 16.121-125.685-3.232-178.5-52.001z" fill="#C5E1EC"/></mask><g mask="url(#a)"><path d="M153.359 121.05c.499 1.744-3.115 3.427-4.985 4.05 1.662 3.946 7.54 13.802 17.759 21.653 10.219 7.852 24.094 10.23 29.754 10.437v12.307c-5.816-.312-20.158-2.804-31-10.281-10.842-7.478-18.538-19.213-21.03-24.146-.468-.156-1.994-.81-4.362-2.181-2.368-1.371-3.895-3.998-4.362-5.141-2.337-1.246-6.823-3.925-6.075-4.673.747-.748 4.465 1.661 6.231 2.96l1.246-1.402c-2.492-2.441-6.854-7.447-4.362-7.945 2.493-.499 5.089 4.777 6.076 7.477l1.713-.934c-2.336-4.258-6.293-12.681-3.427-12.307 2.866.374 5.349 7.322 6.231 10.749l1.87-.779c-.883-2.493-2.119-7.571 0-7.945 2.118-.374 3.167 6.076 3.427 9.347 1.558-1.143 4.798-2.991 5.296-1.246z" fill="#E9DFD3"/><path fill-rule="evenodd" clip-rule="evenodd" d="M147.784 119.85c-.48-3.279-1.484-7.195-3.148-6.901-1.308.231-1.337 2.256-.96 4.358.233 1.302.622 2.634.96 3.587l-1.869.779a37.933 37.933 0 00-1.202-3.783c-1.213-3.236-3.027-6.705-5.03-6.966-1.776-.232-.932 2.915.523 6.355a68.662 68.662 0 002.905 5.952l-1.714.934a25.359 25.359 0 00-.846-2.023c-.601-1.284-1.377-2.678-2.237-3.74-.936-1.156-1.973-1.918-2.992-1.714-2.123.424.725 4.117 3.157 6.711a37.553 37.553 0 001.204 1.234l-1.246 1.402a34.266 34.266 0 00-1.376-.96c-.884-.586-1.89-1.198-2.766-1.617-.971-.464-1.781-.691-2.089-.383-.317.317.308.982 1.311 1.738 1.116.841 2.7 1.794 3.976 2.505.281.156.546.301.788.43.119.291.307.678.559 1.116.74 1.282 2.038 3.003 3.803 4.025 2.368 1.371 3.895 2.025 4.362 2.181 2.493 4.933 10.188 16.668 21.03 24.146 9.665 6.665 22.111 9.369 28.819 10.099.818.089 1.55.148 2.181.182V157.19c-5.66-.207-19.534-2.585-29.754-10.437-8.789-6.753-14.367-14.989-16.813-19.672a26.634 26.634 0 01-.945-1.981 16.835 16.835 0 002.016-.83c1.665-.818 3.316-2.004 2.969-3.22-.324-1.133-1.804-.751-3.228-.031a15.45 15.45 0 00-2.069 1.277 38.324 38.324 0 00-.279-2.446zm2.036-1.093a29.16 29.16 0 00-.675-3.096c-.3-1.058-.711-2.189-1.299-3.075-.537-.809-1.728-2.113-3.589-1.785-1.403.248-2.185 1.21-2.572 2.134a13.698 13.698 0 00-1.435-2.075c-.775-.904-1.917-1.901-3.433-2.099-.886-.115-1.993.089-2.759 1.051-.627.787-.709 1.717-.706 2.29.004.789.185 1.686.442 2.582a3.972 3.972 0 00-2.048-.135c-.72.144-1.55.535-2.07 1.395-.487.807-.469 1.649-.373 2.215.162.963.686 1.934 1.201 2.73a4.133 4.133 0 00-1.075-.136c-.476.009-1.265.132-1.913.78a2.45 2.45 0 00-.703 1.433c-.064.514.044.949.156 1.244.208.551.565.972.802 1.226.515.55 1.235 1.1 1.922 1.578 1.182.824 2.622 1.674 3.768 2.307.791 1.555 2.446 4.011 4.941 5.455 1.693.98 3.02 1.635 3.894 2.017 2.932 5.481 10.624 16.818 21.353 24.218 11.295 7.79 26.082 10.34 32.122 10.664l2.297.123v-16.71l-2.101-.077c-5.408-.198-18.777-2.513-28.505-9.987-8.422-6.471-13.776-14.349-16.124-18.79a14.14 14.14 0 001.627-.924c.636-.424 1.341-.988 1.857-1.703.532-.737 1.006-1.858.635-3.157a3.137 3.137 0 00-1.022-1.581 3.174 3.174 0 00-1.6-.682c-.928-.127-1.832.122-2.47.353a9.079 9.079 0 00-.545.217zm-18.902 3.657l-.012-.016c.001 0 .005.005.012.016z" fill="#fff"/><path d="M247.524 121.05c-.499 1.744 3.115 3.427 4.985 4.05-1.662 3.946-7.54 13.802-17.759 21.653-10.219 7.852-24.094 10.23-29.754 10.438v12.306c5.816-.311 20.158-2.804 31-10.281 10.842-7.478 18.538-19.213 21.03-24.146.467-.156 1.994-.81 4.362-2.181 2.368-1.371 3.894-3.998 4.362-5.141 2.336-1.246 6.823-3.925 6.075-4.673-.748-.748-4.466 1.662-6.231 2.96l-1.246-1.402c2.492-2.441 6.854-7.447 4.362-7.945-2.493-.499-5.089 4.777-6.076 7.477l-1.713-.934c2.336-4.258 6.293-12.681 3.427-12.307-2.867.374-5.349 7.322-6.231 10.749l-1.87-.779c.883-2.492 2.119-7.571 0-7.945-2.118-.374-3.167 6.076-3.427 9.347-1.558-1.142-4.798-2.991-5.296-1.246z" fill="#E9DFD3"/><path fill-rule="evenodd" clip-rule="evenodd" d="M253.099 119.85c.48-3.279 1.484-7.194 3.148-6.901 1.308.231 1.337 2.256.96 4.358a23.923 23.923 0 01-.96 3.587l1.869.779.028-.107c.153-.586.351-1.268.588-1.999.175-.539.371-1.104.585-1.677 1.213-3.236 3.028-6.705 5.03-6.966 1.777-.232.933 2.915-.523 6.355-.842 1.992-1.889 4.081-2.75 5.671l-.154.281 1.714.934a27.056 27.056 0 01.846-2.023c.601-1.284 1.377-2.678 2.236-3.74.937-1.156 1.974-1.918 2.993-1.714 2.123.424-.725 4.118-3.157 6.712a37.278 37.278 0 01-1.08 1.11l-.125.123 1.247 1.402.073-.054c.37-.27.818-.584 1.303-.905.884-.587 1.89-1.199 2.766-1.618.971-.464 1.781-.691 2.089-.383.317.317-.308.982-1.311 1.738-1.116.841-2.701 1.794-3.977 2.505-.28.156-.545.301-.788.43a9.35 9.35 0 01-.559 1.116c-.739 1.283-2.037 3.003-3.802 4.025-2.368 1.371-3.895 2.025-4.362 2.181-2.493 4.933-10.188 16.668-21.03 24.146-9.665 6.665-22.111 9.369-28.82 10.099-.817.089-1.549.148-2.181.182v-12.306c5.66-.208 19.535-2.586 29.754-10.438 8.79-6.753 14.368-14.988 16.814-19.672.398-.761.713-1.429.945-1.981a16.91 16.91 0 01-2.017-.83c-1.665-.818-3.315-2.004-2.968-3.22.324-1.133 1.803-.751 3.228-.031.769.389 1.522.876 2.069 1.277.055-.702.147-1.55.279-2.446zm-2.037-1.093c.174-1.038.397-2.111.676-3.096.3-1.058.711-2.189 1.299-3.075.537-.809 1.727-2.113 3.589-1.784 1.403.247 2.185 1.209 2.572 2.133.43-.748.908-1.461 1.435-2.075.775-.904 1.917-1.901 3.432-2.098.887-.116 1.994.088 2.76 1.05.627.788.709 1.717.706 2.29-.005.789-.185 1.686-.442 2.582a3.972 3.972 0 012.048-.135c.72.144 1.55.536 2.069 1.396.487.806.47 1.648.374 2.214-.162.963-.686 1.934-1.201 2.731a4.09 4.09 0 011.075-.136c.476.008 1.265.131 1.913.779.38.38.633.878.703 1.433.064.514-.044.949-.156 1.245-.208.55-.565.971-.803 1.225-.514.55-1.234 1.1-1.921 1.579-1.183.823-2.622 1.673-3.768 2.306-.791 1.555-2.446 4.011-4.942 5.455-1.693.98-3.019 1.635-3.893 2.017-2.933 5.481-10.624 16.819-21.353 24.218-11.295 7.79-26.083 10.34-32.122 10.664l-2.297.123v-16.71l2.1-.077c5.408-.198 18.778-2.513 28.506-9.987 8.422-6.471 13.775-14.349 16.124-18.79-.553-.27-1.112-.58-1.627-.924-.636-.424-1.342-.988-1.857-1.703-.533-.737-1.006-1.858-.635-3.156a3.135 3.135 0 011.022-1.582 3.174 3.174 0 011.6-.682c.927-.126 1.832.122 2.47.353.181.066.363.138.544.217zm18.902 3.657l.012-.016-.012.016z" fill="#fff"/><path d="M225.557 195.501c0 13.765-11.159 24.925-24.924 24.925-13.766 0-24.925-11.16-24.925-24.925 0-13.766 1.714-55.302 24.925-55.302 23.211 0 24.924 41.536 24.924 55.302z" fill="#E9DFD3"/><path fill-rule="evenodd" clip-rule="evenodd" d="M175.812 189.581c.6-17.07 4.349-49.382 24.821-49.382s24.221 32.312 24.82 49.382h.104c0 .638-.016 1.275-.047 1.911.035 1.504.047 2.854.047 4.009 0 13.765-11.159 24.925-24.924 24.925-13.766 0-24.925-11.16-24.925-24.925 0-1.155.012-2.505.048-4.009a38.023 38.023 0 01-.048-1.911h.104zm3.741 0h42.159c-.259-7.216-1.091-17.082-3.518-25.901-1.598-5.81-3.807-10.855-6.747-14.382-2.844-3.413-6.31-5.36-10.814-5.36-4.505 0-7.97 1.947-10.815 5.36-2.94 3.527-5.149 8.572-6.747 14.382-2.426 8.819-3.258 18.685-3.518 25.901z" fill="#fff"/><path d="M239.89 114.34c0 21.681-17.576 39.257-39.257 39.257-21.68 0-39.256-17.576-39.256-39.257 0-21.68 17.576-39.256 39.256-39.256 21.681 0 39.257 17.576 39.257 39.256z" fill="#E9DFD3"/><path fill-rule="evenodd" clip-rule="evenodd" d="M200.633 151.104c20.305 0 36.764-16.459 36.764-36.764 0-20.304-16.459-36.764-36.764-36.764-20.304 0-36.764 16.46-36.764 36.764 0 20.305 16.46 36.764 36.764 36.764zm0 2.493c21.681 0 39.257-17.576 39.257-39.257 0-21.68-17.576-39.256-39.257-39.256-21.68 0-39.256 17.576-39.256 39.256 0 21.681 17.576 39.257 39.256 39.257z" fill="#fff"/><path d="M181.365 119.254l-.939-.615a.182.182 0 00-.216.002c-.593.401-.175.995-.121 1.507-.377-.424-.491-.889-.342-1.396.02-.07.06-.124.12-.164.651-.448 1.101.139 1.498.666z" fill="#5F5C50"/><path d="M220.646 119.818l.002-.834a.29.29 0 00-.073-.196c-.192-.227-.453-.31-.783-.25.901-.608 1.517.647.854 1.28z" fill="#AAA"/><path d="M180.088 120.147c-.053-.512-.471-1.105.122-1.506a.18.18 0 01.216-.002l.939.614.706.583c.08.213.24.299.48.258.396.171.618.038.668-.399 1.118-1.191 2.711-1.607 4.172-.745 2.012 1.185 2.835 3.079 2.47 5.681-.279 1.981-1.249 3.179-2.909 3.596-3.541.892-5.291-2.795-4.99-5.677a1.575 1.575 0 00-.154-.889.206.206 0 00-.157-.12c-.787-.147-1.308-.611-1.563-1.394zm3.85.062c-.523.162-.791.533-.802 1.112-.004.266.118.426.367.48.502.875 1.989 1.151 2.365 0a1.442 1.442 0 00-.054-1.387c-.565-.565-1.19-.633-1.876-.205zm4.074 6.431l-.072-.831a.293.293 0 00-.102-.197.287.287 0 00-.212-.067l-.267.023a.827.827 0 00-.281.077.762.762 0 00-.23.169.678.678 0 00-.176.503l.004.043a.644.644 0 00.262.463.736.736 0 00.255.127.833.833 0 00.29.027l.265-.024a.287.287 0 00.197-.102.286.286 0 00.067-.211zm31.78-8.102c.33-.06.591.023.784.25a.293.293 0 01.072.196l-.002.834a3.467 3.467 0 01-1.479 1.731c-.406.241-.589.617-.557 1.05a8.115 8.115 0 01-.16 2.38c-.664 2.947-4.456 4.614-6.644 2.142-1.861-2.102-1.63-6.067.596-7.845 1.329-1.06 3.397-1.233 4.631.278.928 1.137 2.119-.451 2.759-1.016zm-7.585 1.982c-.338.376-.427.821-.266 1.334.578 1.33 2.712 1.059 2.454-.48.144-.299.096-.565-.143-.8-.376-.783-1.543-.493-2.045-.054zm3.458 6.571a.532.532 0 00.238.024.617.617 0 00.239-.084.734.734 0 00.201-.178.85.85 0 00.18-.522.746.746 0 00-.049-.264.601.601 0 00-.137-.212.519.519 0 00-.441-.153.624.624 0 00-.238.084.74.74 0 00-.202.178.85.85 0 00-.179.522c0 .093.017.183.048.264a.63.63 0 00.137.213.53.53 0 00.203.128z" fill="#211814"/><path d="M183.219 119.694c-.05.437-.273.57-.668.399.264-.019.487-.153.668-.399z" fill="#5F5C50"/><path d="M182.071 119.836a.705.705 0 01.481.258c-.241.041-.401-.045-.481-.258z" fill="#5F5C50"/><path d="M185.815 120.415l.053 1.387c-.376 1.15-1.863.875-2.365 0-.2-.629-.055-1.16.436-1.592.686-.429 1.311-.36 1.876.205zm28.437.159l.143.801c.258 1.538-1.876 1.809-2.454.48a1.051 1.051 0 01.211-.854.29.29 0 00.062-.188l-.006-.292c.501-.44 1.668-.73 2.044.053z" fill="#fff"/><path d="M183.938 120.21c-.491.432-.636.963-.435 1.592-.249-.054-.371-.214-.367-.48.011-.579.279-.95.802-1.112z" fill="#5F5C50"/><path d="M185.815 120.414c.254.451.272.913.053 1.387l-.053-1.387zm26.393.107l.006.293a.286.286 0 01-.062.188 1.05 1.05 0 00-.211.853c-.161-.513-.072-.958.267-1.334z" fill="#AAA"/><path d="M214.252 120.574c.239.235.287.502.143.801l-.143-.801z" fill="#5F5C50"/><path d="M223.687 135.193c-2.256-.162-4.094-1.178-4.834-3.35-.305-.894-.687-2.177-.327-3.095.309-.782.53-1.395.662-1.837.337-1.123 1.398-1.776 2.619-2.397 4.287-2.185 9.268 2.685 7.621 6.964-.954 2.48-2.988 3.914-5.741 3.715zm-40.576-4.281c.572 1.114-1.467 4.187-2.482 4.819-3.253 2.021-6.418.508-8.3-2.433-1.622-2.537.448-6.501 3.043-7.491 3.639-1.389 6.693.647 7.939 4.019a.29.29 0 01.002.207l-.219.655a.278.278 0 00.017.224z" fill="#DFC4BD"/><path d="M188.013 126.64a.288.288 0 01-.068.211.29.29 0 01-.197.103l-.265.023a.788.788 0 01-.545-.153.677.677 0 01-.261-.464l-.005-.042a.64.64 0 01.034-.267.677.677 0 01.143-.236.748.748 0 01.229-.17.827.827 0 01.282-.077l.266-.023a.291.291 0 01.314.265l.073.83z" fill="#E9DFD3"/><path d="M215.323 126.21c-.13.377.023.771.342.881.319.11.682-.106.812-.483s-.023-.771-.342-.881c-.319-.11-.682.107-.812.483z" fill="#fff"/><path d="M208.921 136.004a5.917 5.917 0 00-1.445 1.75l-1.013.888a.104.104 0 01-.118.019.1.1 0 00-.094.009c-.64.404-1.213.706-1.718.907a5.606 5.606 0 00-.866.209c-1.53.504-3.769.38-5.376.271-2.465-.369-5.267-1.837-6.411-4.17a1.058 1.058 0 01-.054-.587c.645-.6.858.203 1.168.531a7.577 7.577 0 001.775 1.398.867.867 0 00.801.365c.068.228.213.272.435.133 3.176 1.203 7.707 1.169 10.517-.92.65-.483 1.354-1.271 2.111-2.365.175-.256.373-.371.621-.538a.235.235 0 01.184-.034c.881.179-.201 1.72-.517 2.134z" fill="#211814"/><path d="M191.826 135.3c-.038.196-.02.392.054.587l-.284-.299c-.039-.04-.039-.081-.002-.124a.679.679 0 01.232-.164zm17.094.704a4.774 4.774 0 01-1.444 1.75 5.914 5.914 0 011.444-1.75zm-14.15 1.225c.301.042.568.163.8.365a.862.862 0 01-.8-.365z" fill="#5F5C50"/><path d="M195.569 137.594l.436.132c-.222.139-.367.095-.436-.132zm8.965 1.983c-.498.551-1.102.239-1.403.512a.36.36 0 01-.192.092 11.768 11.768 0 01-4.648-.124c1.607.109 3.846.233 5.376-.271.282-.092.571-.162.867-.209z" fill="#5F5C50"/><circle cx="200.478" cy="130.925" r="2.241" fill="#C3BAA9"/><path d="M239.538 109.213c-10.466-1.658-24.122-2.662-39.061-2.662-14.938 0-28.595 1.004-39.061 2.662 2.582-19.269 19.086-34.129 39.061-34.129s36.48 14.86 39.061 34.129z" fill="#D3E47A"/><path d="M179.291 91.565c2.742-9.36 8.516-13.797 10.749-15.079-4.985 1.09-14.643 5.944-20.251 12.996-5.608 7.052-7.737 16.187-8.101 19.874l15.111-1.763c-.312-1.443-.249-6.668 2.492-16.028z" fill="#B7C764"/><path d="M420.467 308V207.347c0-10.792-13.068-16.174-20.669-8.513-4.728 4.767-12.434 4.767-17.162 0l-6.044-6.092c-8.058-8.123-21.192-8.123-29.25 0s-21.192 8.123-29.25 0-21.192-8.123-29.25 0-21.192 8.123-29.25 0-21.192-8.123-29.25 0-21.192 8.123-29.25 0-21.192-8.123-29.25 0-21.192 8.123-29.25 0-21.192-8.123-29.25 0-21.192 8.123-29.25 0-21.192-8.123-29.25 0-21.192 8.123-29.25 0-21.192-8.123-29.25 0l-6.044 6.092c-4.728 4.767-12.434 4.767-17.162 0-7.601-7.661-20.67-2.279-20.67 8.513V308h468.001z" fill="#278DB6"/><path d="M75.093 164.531c.498 1.745-3.116 3.427-4.985 4.05 1.661 3.947 7.54 13.802 17.759 21.654 10.219 7.851 24.093 10.229 29.753 10.437v12.307c-5.815-.312-20.157-2.805-31-10.282-10.842-7.477-18.537-19.213-21.03-24.146-.467-.156-1.994-.81-4.362-2.181-2.368-1.371-3.894-3.998-4.362-5.14-2.336-1.247-6.823-3.926-6.075-4.674.748-.747 4.466 1.662 6.231 2.96l1.247-1.402c-2.493-2.441-6.855-7.446-4.362-7.945 2.492-.498 5.088 4.778 6.075 7.478l1.714-.935c-2.337-4.258-6.294-12.68-3.427-12.307 2.866.374 5.348 7.322 6.23 10.749l1.87-.779c-.883-2.492-2.119-7.571 0-7.944 2.119-.374 3.168 6.075 3.427 9.346 1.558-1.142 4.798-2.991 5.297-1.246z" fill="#E9DFD3"/><path fill-rule="evenodd" clip-rule="evenodd" d="M69.518 163.331c-.48-3.279-1.485-7.194-3.149-6.9-1.308.23-1.337 2.255-.96 4.357.233 1.302.623 2.634.96 3.587l-1.869.779-.028-.107a39.713 39.713 0 00-1.173-3.676c-1.213-3.235-3.028-6.704-5.03-6.966-1.777-.231-.932 2.916.523 6.356.842 1.991 1.889 4.08 2.75 5.67l.154.281-1.714.935a23.201 23.201 0 00-.615-1.518c-.074-.165-.15-.334-.23-.505-.602-1.285-1.377-2.679-2.237-3.74-.937-1.157-1.974-1.919-2.993-1.715-2.123.425.726 4.118 3.157 6.712a37.69 37.69 0 001.08 1.11l.125.123-1.246 1.402a35.607 35.607 0 00-1.376-.959c-.885-.587-1.89-1.199-2.767-1.617-.97-.465-1.78-.691-2.089-.384-.317.317.308.982 1.311 1.738 1.117.841 2.7 1.794 3.977 2.505.28.157.545.301.788.431.119.29.306.677.559 1.115.74 1.283 2.037 3.003 3.803 4.025 2.367 1.371 3.894 2.025 4.361 2.181 2.493 4.933 10.188 16.669 21.03 24.146 9.665 6.665 22.111 9.37 28.82 10.099.817.089 1.549.149 2.181.182v-12.306c-5.66-.208-19.535-2.586-29.754-10.437-8.79-6.753-14.368-14.989-16.814-19.672a27.125 27.125 0 01-.945-1.982 16.541 16.541 0 002.017-.83c1.665-.818 3.315-2.004 2.968-3.22-.324-1.133-1.803-.751-3.228-.031-.769.389-1.522.877-2.069 1.277a38.03 38.03 0 00-.278-2.446zm2.036-1.093a29.19 29.19 0 00-.676-3.096c-.3-1.058-.71-2.189-1.299-3.075-.537-.809-1.727-2.113-3.589-1.784-1.403.247-2.185 1.21-2.572 2.133-.43-.747-.908-1.461-1.435-2.075-.775-.904-1.917-1.9-3.432-2.098-.886-.116-1.994.089-2.76 1.051-.627.787-.709 1.716-.705 2.29.004.789.184 1.686.441 2.582a3.95 3.95 0 00-2.048-.135c-.72.144-1.55.535-2.07 1.395-.486.806-.469 1.648-.373 2.214.162.964.686 1.934 1.201 2.731a4.088 4.088 0 00-1.074-.136c-.477.008-1.266.131-1.914.779a2.45 2.45 0 00-.702 1.433c-.065.514.043.949.155 1.245.208.55.565.972.803 1.225.515.55 1.234 1.1 1.921 1.579 1.183.823 2.622 1.674 3.768 2.307.791 1.554 2.447 4.01 4.942 5.455 1.693.98 3.02 1.635 3.893 2.016 2.933 5.481 10.624 16.819 21.353 24.218 11.296 7.79 26.083 10.341 32.122 10.664l2.298.123V198.57l-2.101-.078c-5.408-.198-18.777-2.513-28.505-9.987-8.422-6.47-13.776-14.349-16.125-18.789a14.295 14.295 0 001.627-.925c.637-.424 1.342-.987 1.858-1.702.532-.738 1.005-1.859.634-3.157a3.136 3.136 0 00-1.022-1.582 3.186 3.186 0 00-1.6-.682c-.927-.126-1.831.122-2.47.353-.18.066-.363.139-.544.217zm-18.902 3.657a.106.106 0 01-.012-.015l.012.015z" fill="#fff"/><path d="M169.257 164.531c-.499 1.745 3.116 3.427 4.985 4.05-1.662 3.947-7.54 13.803-17.759 21.654-10.219 7.851-24.094 10.229-29.754 10.437v12.307c5.816-.312 20.158-2.804 31-10.282 10.843-7.477 18.538-19.213 21.03-24.146.468-.155 1.994-.81 4.362-2.181 2.368-1.37 3.895-3.998 4.362-5.14 2.337-1.246 6.823-3.926 6.076-4.674-.748-.747-4.466 1.662-6.232 2.96l-1.246-1.402c2.493-2.44 6.854-7.446 4.362-7.945-2.492-.498-5.089 4.778-6.075 7.478l-1.714-.935c2.337-4.258 6.293-12.68 3.427-12.306-2.866.373-5.348 7.321-6.231 10.748l-1.869-.779c.882-2.492 2.118-7.57 0-7.944-2.119-.374-3.168 6.075-3.428 9.346-1.557-1.142-4.798-2.991-5.296-1.246z" fill="#E9DFD3"/><path fill-rule="evenodd" clip-rule="evenodd" d="M174.832 163.332c.48-3.279 1.484-7.195 3.148-6.901 1.309.231 1.338 2.255.961 4.358a24.021 24.021 0 01-.961 3.586l1.87.779.027-.107a37.35 37.35 0 01.589-1.999c.174-.539.37-1.104.585-1.676 1.213-3.236 3.028-6.705 5.03-6.966 1.776-.232.932 2.915-.523 6.355-.842 1.991-1.889 4.08-2.751 5.67l-.153.281 1.713.935a24.655 24.655 0 01.846-2.023c.601-1.285 1.377-2.679 2.237-3.74.937-1.157 1.973-1.918 2.993-1.715 2.122.425-.726 4.118-3.157 6.712-.157.167-.311.329-.463.485a37.35 37.35 0 01-.742.748l1.246 1.402.074-.054c.37-.27.817-.584 1.302-.905.884-.587 1.89-1.199 2.766-1.617.971-.464 1.782-.691 2.089-.384.318.318-.307.983-1.311 1.738-1.116.841-2.7 1.794-3.976 2.506-.28.156-.546.301-.788.43-.119.29-.307.677-.559 1.115-.74 1.283-2.038 3.003-3.803 4.025-2.368 1.371-3.894 2.026-4.362 2.181-2.492 4.933-10.188 16.669-21.03 24.146-9.665 6.666-22.111 9.37-28.819 10.099-.817.089-1.55.149-2.181.183v-12.307c5.66-.208 19.535-2.586 29.754-10.437 8.789-6.753 14.367-14.989 16.813-19.672.398-.762.713-1.429.946-1.982a16.517 16.517 0 01-2.017-.83c-1.665-.818-3.316-2.004-2.968-3.22.323-1.133 1.803-.751 3.227-.031.769.389 1.523.877 2.069 1.277a38.3 38.3 0 01.279-2.445zm-2.036-1.094c.173-1.038.396-2.11.675-3.095.3-1.059.711-2.19 1.299-3.076.537-.809 1.728-2.113 3.589-1.784 1.403.248 2.186 1.21 2.572 2.133.43-.747.909-1.461 1.436-2.075.774-.903 1.917-1.9 3.432-2.098.886-.116 1.993.089 2.759 1.051.627.787.709 1.716.706 2.29-.004.789-.185 1.686-.441 2.582a3.967 3.967 0 012.047-.135c.72.144 1.55.535 2.07 1.395.487.806.469 1.648.374 2.214-.163.964-.686 1.934-1.202 2.731.31-.078.681-.143 1.075-.136.476.009 1.266.131 1.913.779.381.381.633.878.703 1.433.064.514-.043.949-.155 1.245-.208.55-.566.972-.803 1.226-.515.549-1.234 1.1-1.922 1.578-1.182.823-2.622 1.674-3.767 2.307-.792 1.554-2.447 4.01-4.942 5.455-1.693.98-3.019 1.635-3.893 2.016-2.933 5.481-10.625 16.819-21.354 24.219-11.295 7.789-26.082 10.34-32.121 10.663l-2.298.123V198.57l2.101-.077c5.408-.199 18.777-2.514 28.505-9.988 8.422-6.47 13.776-14.348 16.124-18.789a14.532 14.532 0 01-1.627-.924c-.636-.425-1.341-.988-1.857-1.703-.532-.738-1.005-1.858-.634-3.157a3.13 3.13 0 011.021-1.582 3.19 3.19 0 011.6-.682c.928-.126 1.832.122 2.47.353.181.066.363.139.545.217zm18.902 3.657l.012-.015a.063.063 0 00-.012.015z" fill="#fff"/><path d="M147.291 238.983c0 13.766-11.159 24.925-24.925 24.925-13.765 0-24.925-11.159-24.925-24.925 0-13.765 1.714-55.301 24.925-55.301 23.211 0 24.925 41.536 24.925 55.301z" fill="#E9DFD3"/><path fill-rule="evenodd" clip-rule="evenodd" d="M97.546 233.064c.6-17.071 4.348-49.382 24.82-49.382s24.221 32.311 24.821 49.382h.104c0 .638-.016 1.275-.048 1.91.036 1.505.048 2.855.048 4.009 0 13.766-11.159 24.925-24.925 24.925-13.765 0-24.925-11.159-24.925-24.925 0-1.154.012-2.504.048-4.009a38.072 38.072 0 01-.048-1.91h.105zm3.741 0h42.158c-.259-7.216-1.091-17.082-3.517-25.902-1.598-5.81-3.807-10.854-6.747-14.382-2.845-3.413-6.31-5.36-10.815-5.36-4.504 0-7.97 1.947-10.815 5.36-2.939 3.528-5.148 8.572-6.747 14.382-2.426 8.82-3.258 18.686-3.517 25.902z" fill="#fff"/><path d="M161.623 157.822c0 21.681-17.575 39.256-39.256 39.256S83.11 179.503 83.11 157.822s17.576-39.257 39.257-39.257c21.681 0 39.256 17.576 39.256 39.257z" fill="#E9DFD3"/><path fill-rule="evenodd" clip-rule="evenodd" d="M122.367 194.586c20.304 0 36.764-16.46 36.764-36.764 0-20.304-16.46-36.764-36.764-36.764-20.304 0-36.764 16.46-36.764 36.764 0 20.304 16.46 36.764 36.764 36.764zm0 2.492c21.681 0 39.256-17.575 39.256-39.256s-17.575-39.257-39.256-39.257-39.257 17.576-39.257 39.257c0 21.681 17.576 39.256 39.257 39.256z" fill="#fff"/><path d="M103.098 162.735l-.939-.614a.179.179 0 00-.215.002c-.594.401-.175.994-.122 1.506-.377-.424-.491-.889-.341-1.395a.285.285 0 01.119-.165c.651-.448 1.101.139 1.498.666z" fill="#5F5C50"/><path d="M142.379 163.3l.002-.835a.295.295 0 00-.072-.196c-.192-.226-.453-.309-.784-.25.901-.608 1.518.647.854 1.281z" fill="#AAA"/><path d="M101.822 163.629c-.054-.512-.472-1.106.121-1.507a.182.182 0 01.216-.002l.939.615.706.582c.08.214.24.3.48.258.396.171.619.038.668-.399 1.119-1.19 2.711-1.607 4.173-.744 2.012 1.185 2.835 3.078 2.469 5.681-.279 1.98-1.249 3.179-2.909 3.596-3.541.892-5.291-2.796-4.99-5.677a1.577 1.577 0 00-.153-.89.21.21 0 00-.158-.12c-.787-.146-1.308-.611-1.562-1.393zm3.85.062c-.524.162-.791.533-.803 1.112-.004.266.118.426.367.48.502.875 1.989 1.15 2.365 0a1.445 1.445 0 00-.053-1.387c-.565-.565-1.191-.634-1.876-.205zm4.074 6.43l-.073-.83a.29.29 0 00-.314-.265l-.266.024a.79.79 0 00-.511.246.686.686 0 00-.143.236.64.64 0 00-.034.267l.005.042c.008.09.035.177.08.257.044.079.106.15.181.207a.76.76 0 00.255.126.788.788 0 00.29.027l.265-.023a.293.293 0 00.265-.314zm31.78-8.102c.33-.06.591.024.783.25a.295.295 0 01.072.196l-.002.835a3.455 3.455 0 01-1.479 1.73c-.405.242-.589.617-.557 1.05a8.112 8.112 0 01-.16 2.38c-.664 2.947-4.456 4.614-6.644 2.143-1.861-2.102-1.63-6.068.596-7.845 1.329-1.061 3.397-1.234 4.631.277.928 1.138 2.119-.45 2.76-1.016zm-7.585 1.983c-.339.375-.428.82-.267 1.334.578 1.329 2.712 1.058 2.454-.481.144-.298.096-.565-.143-.8-.375-.783-1.543-.493-2.044-.053zm3.457 6.57a.535.535 0 00.239.024.611.611 0 00.238-.083.753.753 0 00.201-.178.84.84 0 00.18-.522.751.751 0 00-.049-.265.613.613 0 00-.136-.212.533.533 0 00-.442-.152.606.606 0 00-.238.083.757.757 0 00-.202.178.86.86 0 00-.179.522.73.73 0 00.049.265.6.6 0 00.136.212.53.53 0 00.203.128z" fill="#211814"/><path d="M104.952 163.176c-.05.437-.272.57-.668.399.265-.02.488-.153.668-.399z" fill="#5F5C50"/><path d="M103.805 163.317a.698.698 0 01.48.259c-.241.041-.401-.045-.48-.259z" fill="#5F5C50"/><path d="M107.547 163.896l.053 1.387c-.375 1.15-1.863.875-2.364 0-.201-.629-.056-1.159.435-1.592.686-.428 1.311-.36 1.876.205zm28.439.16l.143.8c.258 1.539-1.876 1.81-2.455.48a1.05 1.05 0 01.212-.853.297.297 0 00.062-.188l-.007-.292c.502-.44 1.669-.73 2.045.053z" fill="#fff"/><path d="M105.672 163.691c-.491.433-.636.964-.436 1.592-.249-.054-.371-.214-.367-.48.012-.579.279-.949.803-1.112z" fill="#5F5C50"/><path d="M107.548 163.896c.255.451.272.913.053 1.387l-.053-1.387zm26.393.107l.007.292a.295.295 0 01-.062.188 1.052 1.052 0 00-.212.854c-.16-.514-.071-.958.267-1.334z" fill="#AAA"/><path d="M135.985 164.056c.239.235.287.501.143.8l-.143-.8z" fill="#5F5C50"/><path d="M145.42 178.675c-2.256-.162-4.093-1.178-4.834-3.351-.305-.894-.687-2.177-.326-3.094a24.63 24.63 0 00.661-1.838c.338-1.122 1.398-1.775 2.619-2.397 4.287-2.185 9.269 2.685 7.621 6.964-.954 2.48-2.988 3.914-5.741 3.716zm-40.577-4.281c.572 1.114-1.466 4.187-2.482 4.818-3.252 2.022-6.417.508-8.3-2.432-1.622-2.538.448-6.501 3.044-7.491 3.638-1.39 6.692.646 7.939 4.018a.3.3 0 01.002.207l-.22.655a.28.28 0 00.017.225z" fill="#DFC4BD"/><path d="M109.745 170.121a.291.291 0 01-.264.314l-.265.023a.777.777 0 01-.546-.153.687.687 0 01-.181-.207.638.638 0 01-.08-.256l-.004-.043a.64.64 0 01.176-.503.8.8 0 01.511-.246l.267-.024a.292.292 0 01.314.265l.072.83z" fill="#E9DFD3"/><path d="M137.055 169.692c-.129.377.024.771.343.881.318.109.682-.107.812-.484.129-.376-.024-.771-.343-.88-.318-.11-.682.106-.812.483z" fill="#fff"/><path d="M130.654 179.486a5.914 5.914 0 00-1.444 1.75l-1.014.888a.104.104 0 01-.117.019.1.1 0 00-.094.008c-.641.404-1.213.707-1.718.907a5.535 5.535 0 00-.867.21c-1.53.503-3.769.379-5.376.271-2.465-.37-5.267-1.838-6.411-4.171a1.046 1.046 0 01-.053-.586c.644-.6.858.202 1.167.531a7.562 7.562 0 001.776 1.398.865.865 0 00.8.365c.068.227.214.272.435.132 3.176 1.204 7.707 1.17 10.518-.92.65-.482 1.353-1.27 2.11-2.364.175-.257.374-.372.621-.538a.231.231 0 01.184-.034c.881.179-.201 1.72-.517 2.134z" fill="#211814"/><path d="M113.56 178.781c-.039.197-.021.392.053.587l-.284-.299c-.038-.039-.039-.081-.002-.123a.685.685 0 01.233-.165zm17.094.704a4.768 4.768 0 01-1.445 1.75 5.917 5.917 0 011.445-1.75zm-14.151 1.226c.302.041.568.163.8.365a.866.866 0 01-.8-.365zm.8.364l.435.133c-.222.139-.367.095-.435-.133zm8.963 1.984c-.497.55-1.101.239-1.402.512a.375.375 0 01-.192.092 11.792 11.792 0 01-4.649-.124c1.608.109 3.846.232 5.376-.271.282-.093.571-.162.867-.209z" fill="#5F5C50"/><circle cx="122.212" cy="174.407" r="2.241" fill="#C3BAA9"/><path d="M161.272 152.694c-10.466-1.658-24.123-2.661-39.061-2.661-14.939 0-28.595 1.003-39.061 2.661 2.581-19.268 19.085-34.129 39.061-34.129 19.975 0 36.479 14.861 39.061 34.129z" fill="#B86D77"/><path d="M101.025 135.047c2.742-9.36 8.516-13.797 10.749-15.079-4.985 1.09-14.644 5.943-20.252 12.995-5.608 7.052-7.737 16.188-8.1 19.874l15.11-1.763c-.311-1.442-.249-6.667 2.493-16.027z" fill="#9A5861"/><path d="M174.014 197.142c.498 1.745-3.116 3.428-4.985 4.051 1.661 3.946 7.539 13.802 17.758 21.653 10.22 7.851 24.094 10.23 29.754 10.437v12.307c-5.815-.312-20.158-2.804-31-10.282-10.842-7.477-18.538-19.212-21.03-24.145-.467-.156-1.994-.81-4.362-2.181-2.368-1.371-3.894-3.999-4.362-5.141-2.336-1.246-6.823-3.926-6.075-4.673.748-.748 4.466 1.661 6.231 2.959l1.246-1.402c-2.492-2.44-6.854-7.446-4.361-7.944 2.492-.499 5.088 4.777 6.075 7.477l1.714-.935c-2.337-4.258-6.294-12.68-3.428-12.306 2.867.374 5.349 7.321 6.232 10.749l1.869-.779c-.883-2.493-2.119-7.571 0-7.945 2.119-.374 3.167 6.075 3.427 9.347 1.558-1.143 4.798-2.991 5.297-1.247z" fill="#E9DFD3"/><path fill-rule="evenodd" clip-rule="evenodd" d="M168.438 195.943c-.48-3.279-1.484-7.195-3.148-6.901-1.308.231-1.337 2.256-.96 4.358.233 1.302.623 2.633.96 3.587l-1.869.779a35.859 35.859 0 00-.616-2.106 40.505 40.505 0 00-.585-1.677c-1.213-3.236-3.028-6.705-5.03-6.966-1.777-.232-.932 2.915.523 6.355.842 1.991 1.889 4.081 2.751 5.67.051.096.102.19.153.281l-1.714.935a24.563 24.563 0 00-.846-2.023c-.601-1.285-1.376-2.678-2.236-3.74-.937-1.156-1.974-1.918-2.993-1.714-2.123.424.725 4.117 3.157 6.711a41.328 41.328 0 001.205 1.233l-1.247 1.402a37.346 37.346 0 00-1.375-.959c-.885-.586-1.891-1.198-2.767-1.617-.97-.464-1.781-.691-2.089-.383-.317.317.308.982 1.311 1.738 1.116.84 2.701 1.793 3.977 2.505.28.156.545.301.788.43.119.291.306.678.559 1.115.739 1.283 2.037 3.004 3.803 4.026 2.367 1.371 3.894 2.025 4.361 2.181 2.493 4.933 10.188 16.668 21.031 24.145 9.664 6.666 22.11 9.37 28.819 10.1.817.088 1.549.148 2.181.182v-12.307c-5.66-.207-19.535-2.586-29.754-10.437-8.79-6.753-14.368-14.989-16.814-19.672a26.825 26.825 0 01-.945-1.981 16.766 16.766 0 002.017-.831c1.665-.818 3.315-2.003 2.968-3.22-.324-1.132-1.803-.75-3.228-.03a15.41 15.41 0 00-2.069 1.277 36.852 36.852 0 00-.279-2.446zm2.037-1.093a29.162 29.162 0 00-.676-3.096c-.3-1.058-.711-2.19-1.299-3.075-.537-.81-1.727-2.113-3.589-1.785-1.403.248-2.185 1.21-2.572 2.134-.43-.748-.908-1.461-1.435-2.076-.775-.903-1.917-1.9-3.432-2.098-.886-.115-1.994.089-2.76 1.051-.627.787-.709 1.717-.706 2.29.005.789.185 1.686.442 2.582a3.972 3.972 0 00-2.048-.135c-.72.144-1.55.535-2.069 1.395-.487.806-.47 1.648-.374 2.215.162.963.686 1.933 1.201 2.73a4.133 4.133 0 00-1.075-.136c-.476.009-1.265.132-1.913.779-.38.381-.633.879-.702 1.433-.065.514.043.949.155 1.245.208.551.565.972.803 1.226.515.55 1.234 1.1 1.921 1.578 1.183.823 2.622 1.674 3.768 2.307.791 1.554 2.447 4.01 4.942 5.455 1.693.98 3.019 1.635 3.893 2.017 2.933 5.481 10.624 16.818 21.353 24.218 11.295 7.789 26.083 10.34 32.122 10.664l2.298.123v-16.71l-2.101-.077c-5.408-.199-18.778-2.514-28.506-9.987-8.422-6.471-13.775-14.349-16.124-18.79a14.356 14.356 0 001.627-.924c.636-.424 1.342-.988 1.858-1.703.532-.737 1.005-1.858.634-3.157a3.14 3.14 0 00-1.022-1.582 3.183 3.183 0 00-1.6-.682c-.927-.126-1.832.122-2.469.354a8.577 8.577 0 00-.545.217zm-18.902 3.656l-.012-.015.012.015z" fill="#fff"/><path d="M268.178 197.143c-.499 1.744 3.115 3.427 4.985 4.05-1.662 3.946-7.54 13.802-17.759 21.653-10.219 7.851-24.094 10.23-29.754 10.437v12.307c5.816-.312 20.158-2.804 31-10.281 10.842-7.478 18.538-19.213 21.03-24.146.468-.156 1.994-.81 4.362-2.181 2.368-1.371 3.895-3.999 4.362-5.141 2.337-1.246 6.823-3.926 6.075-4.673-.747-.748-4.465 1.661-6.231 2.96l-1.246-1.403c2.493-2.44 6.854-7.446 4.362-7.944-2.493-.499-5.089 4.777-6.076 7.477l-1.713-.934c2.337-4.258 6.293-12.681 3.427-12.307-2.866.374-5.348 7.322-6.231 10.749l-1.869-.779c.882-2.493 2.118-7.571 0-7.945-2.119-.374-3.168 6.075-3.428 9.347-1.557-1.143-4.798-2.991-5.296-1.246z" fill="#E9DFD3"/><path fill-rule="evenodd" clip-rule="evenodd" d="M273.753 195.943c.48-3.279 1.484-7.195 3.148-6.901 1.308.231 1.338 2.256.961 4.358a24.07 24.07 0 01-.961 3.587l1.87.779.027-.107c.154-.587.352-1.269.589-1.999.174-.539.37-1.105.585-1.677 1.213-3.236 3.027-6.705 5.03-6.966 1.776-.232.932 2.915-.523 6.355-.842 1.991-1.889 4.081-2.751 5.67l-.153.281 1.713.935a25.359 25.359 0 01.846-2.023c.601-1.284 1.377-2.678 2.237-3.74.937-1.156 1.973-1.918 2.993-1.714 2.122.424-.726 4.117-3.157 6.711a45.818 45.818 0 01-1.08 1.111l-.125.122 1.246 1.402.074-.053c.37-.271.817-.584 1.302-.906.884-.586 1.89-1.198 2.766-1.617.971-.464 1.781-.691 2.089-.383.317.317-.308.982-1.311 1.738-1.116.84-2.7 1.793-3.976 2.505-.281.156-.546.301-.788.43a9.665 9.665 0 01-.559 1.116c-.74 1.282-2.038 3.003-3.803 4.025-2.368 1.371-3.895 2.025-4.362 2.181-2.492 4.933-10.188 16.668-21.03 24.145-9.665 6.666-22.111 9.37-28.819 10.1-.818.089-1.55.148-2.181.182v-12.307c5.66-.207 19.534-2.586 29.754-10.437 8.789-6.753 14.367-14.989 16.813-19.672.398-.761.713-1.429.945-1.981a16.758 16.758 0 01-2.016-.831c-1.665-.818-3.316-2.003-2.968-3.219.323-1.133 1.803-.751 3.227-.031a15.45 15.45 0 012.069 1.277c.056-.702.148-1.55.279-2.446zm-2.036-1.093a29.16 29.16 0 01.675-3.096c.3-1.058.711-2.189 1.299-3.075.537-.81 1.728-2.113 3.589-1.785 1.403.248 2.186 1.21 2.572 2.134.43-.748.909-1.461 1.435-2.075.775-.904 1.917-1.901 3.433-2.099.886-.115 1.993.089 2.759 1.051.627.787.709 1.717.706 2.29-.004.789-.185 1.686-.442 2.582a3.972 3.972 0 012.048-.135c.72.144 1.55.535 2.07 1.395.487.806.469 1.648.374 2.215-.163.963-.686 1.934-1.202 2.73.31-.078.681-.143 1.075-.136.476.009 1.266.132 1.913.78.381.38.633.878.703 1.433.064.514-.044.948-.155 1.244-.209.551-.566.972-.803 1.226-.515.55-1.235 1.1-1.922 1.578-1.182.824-2.622 1.674-3.768 2.307-.791 1.555-2.446 4.011-4.941 5.455-1.693.98-3.02 1.635-3.894 2.017-2.932 5.481-10.624 16.818-21.353 24.218-11.295 7.79-26.082 10.34-32.122 10.664l-2.297.123v-16.71l2.101-.077c5.408-.199 18.777-2.513 28.505-9.987 8.422-6.471 13.776-14.349 16.124-18.79a14.532 14.532 0 01-1.627-.924c-.636-.424-1.341-.988-1.857-1.703-.532-.737-1.005-1.858-.634-3.157a3.135 3.135 0 011.021-1.582 3.184 3.184 0 011.6-.681c.928-.127 1.832.121 2.47.353.181.065.363.138.545.217zm18.902 3.656l.012-.015a.063.063 0 00-.012.015z" fill="#fff"/><path d="M242.837 264.23c-8.968 6.25-13.954 7.881-27.72 7.881-13.765 0-18.754 13.249-18.754-.516 0-13.766 1.714-55.302 24.925-55.302 23.211 0 21.549 34.171 21.549 47.937z" fill="#E9DFD3"/><path fill-rule="evenodd" clip-rule="evenodd" d="M196.467 265.675c.6-17.071 4.349-49.382 24.821-49.382s24.21 30.051 24.81 47.122l-1.359 1.087c0 .638-5.132 1.267-5.163 1.902.035 1.504-1.359-.611-1.359.543-22.556.638-5.258 5.707-19.024 5.707-13.765 0-22.83 12.706-22.83-1.059 0-1.155.012-2.505.048-4.01a37.954 37.954 0 01-.048-1.91h.104zm3.742 0h42.158c-.259-7.216-1.091-17.082-3.517-25.902-1.598-5.809-3.807-10.854-6.747-14.381-2.845-3.414-6.311-5.36-10.815-5.36-4.505 0-7.97 1.946-10.815 5.36-2.94 3.527-5.149 8.572-6.747 14.381-2.426 8.82-3.258 18.686-3.517 25.902z" fill="#fff"/><path d="M260.544 190.433c0 21.681-17.576 39.257-39.256 39.257-21.681 0-39.257-17.576-39.257-39.257 0-21.681 17.576-39.256 39.257-39.256 21.68 0 39.256 17.575 39.256 39.256z" fill="#E9DFD3"/><path fill-rule="evenodd" clip-rule="evenodd" d="M221.288 227.197c20.304 0 36.764-16.46 36.764-36.764 0-20.304-16.46-36.764-36.764-36.764-20.304 0-36.764 16.46-36.764 36.764 0 20.304 16.46 36.764 36.764 36.764zm0 2.493c21.68 0 39.256-17.576 39.256-39.257 0-21.681-17.576-39.256-39.256-39.256-21.681 0-39.257 17.575-39.257 39.256s17.576 39.257 39.257 39.257z" fill="#fff"/><path d="M202.019 195.347l-.939-.615a.18.18 0 00-.215.002c-.594.401-.175.995-.122 1.507-.377-.424-.491-.89-.341-1.396a.276.276 0 01.119-.164c.651-.449 1.101.138 1.498.666z" fill="#5F5C50"/><path d="M241.301 195.911l.002-.834a.298.298 0 00-.072-.197c-.193-.226-.454-.309-.784-.249.901-.608 1.518.646.854 1.28z" fill="#AAA"/><path d="M200.743 196.24c-.054-.512-.472-1.105.121-1.507a.182.182 0 01.216-.002l.939.615.706.583c.08.213.24.299.481.258.395.171.618.038.667-.399 1.119-1.191 2.711-1.607 4.173-.745 2.012 1.185 2.835 3.079 2.469 5.681-.279 1.981-1.248 3.179-2.909 3.596-3.54.892-5.29-2.796-4.99-5.677a1.579 1.579 0 00-.153-.89.208.208 0 00-.158-.119c-.787-.147-1.308-.611-1.562-1.394zm3.85.062c-.524.162-.791.533-.803 1.112-.004.266.118.426.367.48.502.875 1.989 1.15 2.365 0a1.445 1.445 0 00-.053-1.387c-.565-.565-1.191-.633-1.876-.205zm4.074 6.43l-.073-.83a.29.29 0 00-.313-.265l-.267.024a.81.81 0 00-.282.077.745.745 0 00-.229.169.64.64 0 00-.176.503l.004.043a.638.638 0 00.08.256c.045.079.106.15.181.207a.782.782 0 00.546.153l.264-.023a.292.292 0 00.265-.314zm31.78-8.101c.33-.06.591.023.783.249a.298.298 0 01.072.197l-.002.834a3.462 3.462 0 01-1.479 1.731c-.405.241-.589.617-.557 1.05a8.115 8.115 0 01-.16 2.38c-.664 2.947-4.456 4.614-6.643 2.142-1.861-2.102-1.631-6.067.595-7.845 1.33-1.061 3.398-1.234 4.631.277.928 1.138 2.119-.45 2.76-1.015zm-7.585 1.982c-.339.376-.428.82-.267 1.334.578 1.33 2.713 1.059 2.454-.48.144-.299.096-.566-.143-.8-.375-.784-1.543-.493-2.044-.054zm3.457 6.57a.521.521 0 00.239.025.624.624 0 00.238-.084.736.736 0 00.201-.178.827.827 0 00.131-.786.627.627 0 00-.136-.213.535.535 0 00-.442-.152.607.607 0 00-.238.084.707.707 0 00-.201.178.827.827 0 00-.131.786.613.613 0 00.136.212.519.519 0 00.203.128z" fill="#211814"/><path d="M203.874 195.787c-.05.437-.272.57-.668.399.265-.02.487-.153.668-.399zm-1.148.142a.701.701 0 01.48.258c-.241.041-.401-.045-.48-.258z" fill="#5F5C50"/><path d="M206.469 196.507l.053 1.387c-.375 1.151-1.863.875-2.364 0-.201-.628-.056-1.159.435-1.592.686-.428 1.311-.36 1.876.205zm28.437.16l.143.8c.259 1.539-1.875 1.81-2.454.481-.051-.329.019-.614.211-.854a.286.286 0 00.062-.188l-.006-.292c.501-.44 1.669-.73 2.044.053z" fill="#fff"/><path d="M204.593 196.303c-.491.432-.636.963-.436 1.592-.249-.054-.371-.214-.367-.48.012-.579.279-.95.803-1.112z" fill="#5F5C50"/><path d="M206.469 196.507c.254.451.272.913.053 1.387l-.053-1.387zm26.393.107l.006.293a.288.288 0 01-.061.187c-.193.241-.263.525-.212.854-.16-.514-.072-.958.267-1.334z" fill="#AAA"/><path d="M234.906 196.667c.239.235.287.502.143.8l-.143-.8z" fill="#5F5C50"/><path d="M244.342 211.286c-2.256-.162-4.093-1.178-4.834-3.35-.305-.895-.687-2.177-.326-3.095a24.63 24.63 0 00.661-1.838c.337-1.122 1.398-1.775 2.619-2.396 4.287-2.186 9.269 2.685 7.621 6.964-.954 2.479-2.988 3.914-5.741 3.715zm-40.577-4.281c.572 1.114-1.466 4.187-2.482 4.819-3.253 2.021-6.418.508-8.3-2.433-1.622-2.538.448-6.501 3.043-7.491 3.639-1.389 6.693.647 7.94 4.019a.3.3 0 01.002.207l-.22.655a.278.278 0 00.017.224z" fill="#DFC4BD"/><path d="M208.667 202.733a.29.29 0 01-.265.313l-.264.024a.83.83 0 01-.29-.027.74.74 0 01-.256-.127.675.675 0 01-.181-.207.628.628 0 01-.08-.256l-.004-.043a.636.636 0 01.033-.266.683.683 0 01.143-.236.756.756 0 01.229-.17.833.833 0 01.282-.077l.267-.023a.289.289 0 01.313.264l.073.831z" fill="#E9DFD3"/><path d="M235.977 202.303c-.13.377.024.771.342.881.319.11.683-.107.812-.483.13-.377-.023-.771-.342-.881-.319-.11-.682.106-.812.483z" fill="#fff"/><path d="M229.575 212.097a5.914 5.914 0 00-1.444 1.75l-1.014.888a.104.104 0 01-.118.019.096.096 0 00-.093.009c-.641.404-1.213.706-1.718.907a5.532 5.532 0 00-.867.209c-1.53.504-3.769.38-5.376.271-2.465-.369-5.267-1.838-6.411-4.17a1.049 1.049 0 01-.053-.587c.644-.6.858.203 1.167.531a7.562 7.562 0 001.776 1.398.864.864 0 00.8.365c.068.228.213.272.435.132 3.176 1.204 7.707 1.17 10.518-.919.65-.483 1.353-1.271 2.11-2.365.175-.256.374-.371.621-.538a.235.235 0 01.184-.034c.881.179-.201 1.72-.517 2.134z" fill="#211814"/><path d="M212.481 211.393c-.039.196-.021.392.053.586l-.284-.298c-.038-.04-.039-.081-.002-.124a.67.67 0 01.233-.164zm17.095.705a4.776 4.776 0 01-1.445 1.75 5.904 5.904 0 011.445-1.75zm-14.152 1.224c.301.042.568.163.8.365a.864.864 0 01-.8-.365z" fill="#5F5C50"/><path d="M216.224 213.687l.435.132c-.222.139-.367.095-.435-.132zm8.964 1.983c-.497.551-1.101.239-1.402.512a.367.367 0 01-.192.092 11.792 11.792 0 01-4.649-.124c1.607.109 3.846.233 5.376-.271.282-.092.571-.162.867-.209z" fill="#5F5C50"/><circle cx="221.132" cy="207.018" r="2.241" fill="#C3BAA9"/><path d="M260.193 185.306c-10.467-1.658-24.123-2.662-39.061-2.662-14.939 0-28.595 1.004-39.062 2.662 2.582-19.269 19.086-34.129 39.062-34.129 19.975 0 36.479 14.86 39.061 34.129z" fill="#D3E47A"/><path d="M199.946 167.658c2.742-9.36 8.516-13.797 10.749-15.079-4.985 1.091-14.644 5.944-20.252 12.996-5.608 7.052-7.737 16.187-8.1 19.874l15.11-1.763c-.311-1.443-.249-6.668 2.493-16.028z" fill="#B7C764"/><path d="M420.467 350V246.634c0-10.788-13.12-16.104-20.629-8.36-4.718 4.866-12.524 4.866-17.242 0l-6.004-6.192c-8.003-8.253-21.247-8.253-29.25 0-8.003 8.254-21.247 8.254-29.25 0-8.003-8.253-21.247-8.253-29.25 0-8.003 8.254-21.247 8.254-29.25 0-8.003-8.253-21.247-8.253-29.25 0-8.003 8.254-21.247 8.254-29.25 0-8.003-8.253-21.247-8.253-29.25 0-8.003 8.254-21.247 8.254-29.25 0-8.003-8.253-21.247-8.253-29.25 0-8.003 8.254-21.247 8.254-29.25 0-8.004-8.253-21.247-8.253-29.25 0-8.003 8.254-21.247 8.254-29.25 0-8.003-8.253-21.247-8.253-29.25 0l-6.004 6.192c-4.718 4.866-12.524 4.866-17.242 0-7.51-7.744-20.63-2.428-20.63 8.36V350h468.001z" fill="#0E739C"/></g></svg>